<svg width="968" height="968" version="1.1" viewBox="0 0 968 968" xmlns="http://www.w3.org/2000/svg">
 <g stroke-width="1.3333">
  <path d="m0 484v-484h968v968h-968z" fill="#231f20"/>
  <path d="m323.43 138.67c-192.09 0-283.43 0.43998-283.43 1.3633 0 0.7493 54 67.643 120 148.65l120 147.29v175.35 175.35h-62-62v38 38h167.33 167.33v-38-38h-62-62v-175.2-175.2l119.67-146.93c65.817-80.809 119.86-147.77 120.1-148.8 0.36979-1.6114-39.886-1.8789-283-1.8789zm341.54 45.227c-2.3787-0.31608-0.90497 4.3051 3.7383 13.525 19.818 39.354 21.515 81.978 4.5586 114.54-16.473 31.638-45.07 51.393-96.602 66.734-71.545 21.299-105.24 46.499-115.42 86.324-3.558 13.912-3.5045 39.943 0.125 61.18 3.6039 21.087 11.94 52.465 13.939 52.465 0.89649 0 3.1508-6.165 5.1992-14.221 11.847-46.59 31.717-79.683 61.174-101.88 21.236-16.002 48.253-27.057 107.65-44.057 54.604-15.626 88.917-27.189 101.33-34.148 7.9265-4.443 18.193-14.39 21.703-21.027 4.4008-8.3226 4.8864-29.389 0.97461-42.268-9.4948-31.26-33.528-65.107-78.637-110.75-17.25-17.453-26.678-26.021-29.736-26.428zm-322.3 48.822c10.966 0.0415 13.659 0.5284 20.051 3.6289 39.629 19.224 40.528 72.754 1.5449 91.957-7.5891 3.7385-10.494 4.4164-20.229 4.7188-8.3736 0.26011-13.193-0.29399-18.301-2.1055-18.097-6.4181-30.154-20.941-33.811-40.723-3.8715-20.943 8.4625-43.495 29.145-53.293 8.123-3.8482 10.083-4.2271 21.6-4.1836zm553.52 192.62c-2.2333 0-330 165.67-332.82 168.22-1.8993 1.7204 36.614 78.445 39.377 78.445 1.1627 0 76.471-37.767 167.35-83.926 147.4-74.867 165.24-84.257 165.24-87 0-1.6913-8.2705-19.425-18.379-39.408-13.745-27.172-18.981-36.332-20.766-36.332zm-357.23 184c-2.8017 0-68.297 33.313-68.297 34.738 0 3.862 38.385 77.262 40.404 77.262 0.83703 0 15.938-7.2779 33.559-16.172s32.622-16.708 33.336-17.365c1.6669-1.5331-36.573-78.463-39.002-78.463z" fill="#fff"/>
 </g>
</svg>
