<svg width="968" height="968" version="1.1" viewBox="0 0 968 968" xmlns="http://www.w3.org/2000/svg">
 <g stroke-width="1.3333">
  <path d="m0 484v-484h968v968h-968z" fill="#231f20"/>
  <path d="m322.67 62.697c-14.504 0-29.008 0.68038-38.764 2.041-48.523 6.7677-95.512 27.068-133.24 57.561-13.661 11.042-37.805 36.039-47.658 49.34-27.681 37.367-45.267 80.168-51.604 125.6-2.7319 19.587-2.7326 58.561-0.001953 77.26 4.0839 27.964 11.223 51.605 23.201 76.838 36.854 77.634 107.16 132.8 191.88 150.56l14.184 2.9726v33.9 33.9l-167.33 0.6875v41.322 41.324h84 84v83.334 83.332h41.332 41.334v-83.332-83.334h84 84v-41.324-41.322l-167.33-0.6875-0.71094-67.27 3.0215-0.60937c43.92-8.8393 68.421-17.511 98.725-34.943l6.3672-3.6621 4.9648 2.9551c33.768 20.09 62.506 28.436 98.301 28.553 33.754 0.11013 64.379-7.7866 91.236-23.527l7.7363-4.5352 103.68 103.71h-81.66-81.66v41.332 41.334h152.67 152.67v-152.67-152.67h-42-42v80.994 80.994l-102.14-102.11 8.377-16.938c8.854-17.904 13.856-33.216 17.299-52.939 2.5923-14.853 1.7398-53.589-1.4961-68-8.2076-36.553-24.214-65.665-50.629-92.08-33.314-33.314-72.307-50.793-119.31-53.482l-14.482-0.82813-6.7285-13.471c-40.063-80.22-117.11-135.74-205.46-148.07-9.7554-1.3606-24.26-2.041-38.764-2.041zm3.248 83.137c11.433 0.10347 22.401 0.95902 30.086 2.5918 53.563 11.381 97.429 41.538 126.57 87.014 3.7212 5.8078 6.7653 11.161 6.7637 11.895-1e-3 0.73334-4.319 3.7327-9.5938 6.666-37.557 20.886-66.664 56.572-80.387 98.555-6.3511 19.43-9.0451 36.865-9.0801 58.779-0.0459 28.707 5.2831 52.426 17.76 79.051 2.9301 6.2526 5.1343 11.563 4.8965 11.801-0.2378 0.2378-6.0949 3.0747-13.014 6.3027-13.597 6.344-29.766 11.81-44.578 15.072-13.474 2.9671-46.328 3.4942-62 0.99414-36.375-5.8026-73.895-24.557-101.14-50.555-29.428-28.082-47.76-60.908-56.451-101.08-4.2114-19.467-4.2114-54.369 0-73.836 8.3042-38.385 25.281-69.602 52.842-97.162 27.515-27.515 57.956-44.107 96.906-52.818 10.252-2.2927 25.722-3.4006 40.422-3.2676zm260.46 156.84 4.4805 0.78516c38.207 6.7071 67.637 28.198 83.814 61.205 30.231 61.679-5.029 136.7-72.34 153.92-12.473 3.1901-29.661 4.3298-40.33 2.6738-9.6358-1.4955-23.057-5.712-30.814-9.6816l-5.6797-2.9082 8.6582-11.256c29.975-38.967 48.388-84.5 53.934-133.36 1.506-13.271 0.99787-44.425-0.91993-56.375l-0.80273-4.9961zm-68.848 17.729c2.9422-0.0954 3.0663 5.2252 2.9727 18.93-0.18691 27.364-6.963 54.959-19.973 81.332-5.9574 12.077-21.648 36.668-23.396 36.668-0.51679 0-2.2193-3.4197-3.7832-7.5996-8.5198-22.771-9.1872-48.918-1.832-71.734 6.2575-19.411 20.687-39.716 37.109-52.217 4.3562-3.3159 7.137-5.3217 8.9023-5.3789z" fill="#fff"/>
 </g>
</svg>
