<svg width="965.33" height="969.33" version="1.1" viewBox="0 0 965.33 969.33" xmlns="http://www.w3.org/2000/svg">
 <g stroke-width="1.3333">
  <path d="m0 484.67v-484.67h965.33v969.33h-965.33z" fill="#231f20"/>
  <path d="m476.85 80.115c-30.974 0.020615-62.44 2.6585-91.09 7.8496-129.87 23.531-240.83 103.27-285.74 205.33-34.746 78.958-30.392 169.95 11.711 244.7 55.61 98.742 168.11 168.69 298.36 185.51l17.75 2.293-0.60547 3.4297c-0.33321 1.8863-5.6924 43.63-11.91 92.764-6.2177 49.133-11.662 91.584-12.098 94.334-0.63052 3.979-0.36755 5 1.2871 5 1.1978 0 33.79-42.251 76.879-99.66l74.801-99.66 16.904-3.5254c36.262-7.564 63.813-16.25 94.594-29.82 112.97-49.805 189.73-142.02 204.91-246.17 2.7353-18.761 2.7353-58.231 0-76.992-20.664-141.73-152.86-255.56-325.93-280.66-21.937-3.1808-45.73-4.7485-69.82-4.7324zm141.17 91.883 45.322 45.336 45.32 45.336-67.66 67.67c-37.213 37.219-67.66 68.266-67.66 68.994 0 0.72799 30.3 31.629 67.334 68.668l67.334 67.344-45.006 44.992-45.008 44.992-67.322-67.332c-37.027-37.033-67.923-67.332-68.656-67.332-0.73339 0-31.638 30.302-68.678 67.336l-67.344 67.334-45.322-45.336-45.32-45.336 66.994-67.004c36.847-36.852 66.994-67.9 66.994-68.994 0-1.0946-30.148-32.143-66.996-68.996l-66.998-67.006 44.996-44.994 44.994-44.996 67.008 66.996c36.853 36.848 67.901 66.996 68.996 66.996 1.0946 0 32.295-30.3 69.334-67.334l67.344-67.334z" fill="#fff"/>
 </g>
</svg>
