<svg width="968" height="968" version="1.1" viewBox="0 0 968 968" xmlns="http://www.w3.org/2000/svg">
 <g stroke-width="1.3333">
  <path d="m0 484v-484h968v968h-968z" fill="#231f20"/>
  <path d="m320.5 57.516c-1.0758-0.043574-1.8359 0.23279-1.8359 0.74219 0 0.6792 17.692 41.357 39.314 90.396 21.622 49.04 39.172 89.278 39 89.418-0.17231 0.13987-7.4823 3.6461-16.244 7.791-36.27 17.158-66.364 38.675-99.885 71.418-105.55 103.1-154.15 245.37-123.65 361.97 17.479 66.817 63.258 125.64 128.63 165.28 65.468 39.698 146.35 58.683 224.84 52.773 50.348-3.7911 96.417-16.191 140.71-37.873 36.116-17.682 64.271-37.777 90.057-64.279 78.466-80.645 96.56-191.58 51.295-314.49-10.77-29.244-33.025-70.753-53.143-99.123-21.841-30.802-58.97-70.778-84.914-91.426-18.992-15.115-46.32-32.574-66.412-42.428-10.817-5.3048-18.827-10.005-18.498-10.855 0.319-0.82508 17.755-40.238 38.746-87.584 20.991-47.346 38.164-87.096 38.164-88.334 0-1.3087-1.0427-2.25-2.4922-2.25-1.3707 0-37.821 13.898-81 30.883-43.179 16.985-79.408 30.816-80.508 30.736-1.1-0.0795-37.1-14.057-80-31.059-42.9-17.002-79.35-31.203-81-31.559-0.4125-0.088845-0.80547-0.13782-1.1641-0.15234zm340.63 321.82 10.176 10.965c62.508 67.354 94.615 128.26 102.12 193.7 3.2737 28.55-0.14247 64.538-8.834 93.033-22.746 74.572-86.203 136.07-168.72 163.51-15.77 5.2439-47.992 12.925-53.369 12.723-1.0079-0.0379 4.6305-2.3784 12.531-5.2012 83.999-30.01 148.52-101.69 170.32-189.21 6.541-26.258 8.5039-43.229 8.5039-73.514-1e-5 -30.304-1.9954-47.337-8.502-72.572-9.0937-35.269-27.03-73.722-56.334-120.76l-7.8906-12.666zm-285.35 50h42.605l30.363 56.666c16.7 31.167 31.085 56.666 31.967 56.666 0.88148 0 15.331-25.487 32.109-56.639l30.506-56.639 42.332-0.02734c23.283-0.0155 42.334 0.21877 42.334 0.51953 0 0.30075-15.078 26.782-33.506 58.848-18.428 32.066-33.797 59.418-34.154 60.785-0.62 2.3709 0.73795 2.4863 29.504 2.4863h30.156v11.334 11.332l-75.334 0.03125-11 19.295c-6.05 10.611-11 20.203-11 21.316 0 1.7731 6.0391 2.0254 48.668 2.0254h48.666v11.332 11.334h-50-50v48.666 48.668h-39.334-39.332v-48.668-48.666h-50-50v-11.334-11.332h49.332c35.337 0 49.334-0.42148 49.334-1.4844 0-0.81613-5.1596-10.417-11.465-21.334l-11.463-19.85h-37.869-37.869v-11.332-11.334h30c26.367 0 30-0.25276 30-2.0918 0-1.5032-46.734-84.207-67.568-119.57-0.32399-0.55 18.584-1 42.018-1z" fill="#fff"/>
 </g>
</svg>
