<svg width="968" height="969.33" version="1.1" viewBox="0 0 968 969.33" xmlns="http://www.w3.org/2000/svg">
 <g stroke-width="1.3333">
  <path d="m0 484.67v-484.67h968v969.33h-968z" fill="#231f20"/>
  <path d="m594.09 58.695c-40.809 0.0798-80.731 19.744-120.19 59.203-45.845 45.842-79.586 104.23-110.12 190.55-17.333 49.006-32.849 77.879-52.463 97.629-19.055 19.187-35.098 21.947-48.52 8.3496-6.1441-6.2248-9.9544-14.323-15.338-32.594-6.565-22.28-9.0581-29.117-14.707-40.332-5.6021-11.122-15.332-22.338-21.711-25.027-6.8188-2.875-16.282-2.2614-23.939 1.5547-24.167 12.043-109.04 123.51-139.29 182.94-9.8998 19.449-12.361 30.184-11.5 50.156 1.0169 23.578 7.8604 37.498 21.785 44.311 6.445 3.1532 8.4464 3.4976 17.082 2.9434 16.053-1.0302 27.141-7.0997 55.26-30.248 29.878-24.596 47.225-33.456 56.307-28.76 6.788 3.5102 8.3182 9.2079 8.459 31.482 0.1088 17.226 0.42331 19.858 2.6641 22.334 3.0696 3.392 9.5188 3.6711 18.916 0.82031 13.501-4.0955 21.256-1.2229 25.301 9.3691 3.3459 8.7612 1.3763 19.037-7.2539 37.84-3.7238 8.1132-10.309 25.106-14.633 37.764-26.225 76.769-31.006 135.63-11.857 145.96 3.2577 1.7577 7.2717 2.3022 16.32 2.2188 30.116-0.27786 62.468-18.558 118.61-67.025 18.167-15.684 30.373-24.137 34.855-24.137 4.0953 0 7.2031 4.7835 7.2031 11.088 0 8.9216-4.9272 29.746-15.357 64.912-20.486 69.068-24.31 92.195-16.785 101.49 3.8756 4.7861 20.247 6.5835 34.959 3.8379 10.78-2.012 23.105-8.6649 31.785-17.158 10.358-10.135 19.594-24.666 36.973-58.168 7.9883-15.4 17.078-31.758 20.201-36.35 12.061-17.736 30.2-33.603 38.455-33.639 4.529-0.0196 10.65 6.0751 13.062 13.006 1.2087 3.4733 2.6829 12.636 3.2774 20.361 1.5792 20.522 6.8723 28.819 21.729 34.061 24.715 8.7199 52.937-2.2189 64.479-24.99 11.355-22.403 15.1-44.059 18.523-107.12 4.4268-81.536 9.2524-112.23 23.314-148.25 7.6759-19.666 14.387-30.51 20.463-33.064 3.664-1.5406 4.797-1.4538 8.998 0.68946 6.1297 3.1272 9.4837 7.5953 20.5 27.301 9.5411 17.067 12.651 21.152 18.357 24.121 15.786 8.2132 35.446-9.063 59.174-51.994 10.912-19.743 16.009-23.122 24.32-16.129 9.1143 7.6692 18.179 27.888 30.188 67.33 10.754 35.322 16.334 43.681 31.223 46.771 14.142 2.9358 26.073-1.1168 34.049-11.562 5.7112-7.4797 9.4929-17.17 13.225-33.877 2.5463-11.4 2.8322-16.801 2.8555-54 0.016-25.406-0.63592-46.985-1.6914-56-9.2854-79.308-25.667-150.45-39.25-170.45-24.992-36.802-63.178-44.328-90.613-17.859-3.9785 3.8382-15.543 18.078-25.701 31.645-32.276 43.108-46.027 57.292-57.66 59.475-12.395 2.3254-22.327-11.538-28.521-39.816-5.6068-25.594-6.764-43.021-7.8613-118.32-0.94775-65.035-1.3358-73.928-3.6992-84.668-5.285-24.016-13.906-40.896-27.404-53.662-12.903-12.203-24.808-16.352-46.807-16.309zm-61.422 77.828c3.7136 0.06055 6.9672 1.0135 9.5469 2.9394 9.946 7.4258 12.17 18.152 7.0605 34.043-9.5558 29.719-44.286 58.843-64.91 54.432-24.335-5.2047-20.044-41.407 8.3008-70.025 13.587-13.718 28.861-21.57 40.002-21.389zm82.303 29.346c3.9032-0.05169 7.4881 1.823 11.947 5.8516 13.771 12.442 19.418 40.165 13.162 64.625-3.1506 12.319-6.6442 19.385-13.141 26.584-8.3858 9.2933-15.922 11.111-24.941 6.0117-3.4208-1.9341-6.9027-5.6329-9.709-10.312-11.963-19.949-12.681-48.398-1.8008-71.354 4.9556-10.456 9.6012-15.77 16.855-19.281 2.8283-1.3692 5.285-2.094 7.627-2.125zm-97.797 100.06c17.398 0.07171 34.599 11.068 42.186 27.832 7.5186 16.615 10.852 51.957 6.7012 71.057-4.7665 21.933-17.645 41.46-35.873 54.393-10.684 7.58-28.242 16.312-37.811 18.805-8.4045 2.1891-10.029 2.2573-15.359 0.65235-28.633-8.6215-37.004-63.215-18.268-119.14 10.722-32.004 26.594-48.487 50.982-52.945 2.4659-0.45074 4.956-0.66259 7.4414-0.65235z" fill="#fff"/>
 </g>
</svg>
