<svg width="968" height="968" version="1.1" viewBox="0 0 968 968" xmlns="http://www.w3.org/2000/svg">
 <g stroke-width="1.3333">
  <path d="m0 484v-484h968v968h-968z" fill="#231f20"/>
  <path d="m761.96 33.549c-43.26 0.1795-82.059 20.423-108.18 56.758l-5.9727 8.3086-9.5684-6.3945c-30.685-20.509-58.746-30.316-90.988-31.799-21.393-0.98353-35.035 0.80724-53.912 7.0742-41.526 13.786-78.171 44.363-95.857 79.984-6.7984 13.693-11.618 29.32-13.578 44.033-1.9598 14.713-0.85841 45.461 2.1191 59.152 8.1496 37.474 30.013 80.969 58.734 116.85 23.161 28.931 46.219 49.907 77.914 70.877 35.676 23.604 52.683 45.322 62.861 80.277 4.5393 15.59 6.3075 31.333 8.498 75.656 2.2888 46.312 2.605 49.678 4.668 49.678 0.72012 0 18.803-12.045 40.186-26.768 43.771-30.137 53.158-37.093 77.787-57.635 95.611-79.742 161.38-166.13 188.1-247.08 10.716-32.463 14.637-59.042 13.535-91.777-1.1795-35.043-8.1438-62.955-23.635-94.738-11.042-22.654-19.859-35.26-35.965-51.412-25.997-26.073-53.512-38.826-88.039-40.807-2.9212-0.16756-5.825-0.24439-8.709-0.23242zm0.62891 94.473c17.342-0.10433 33.221 13.29 46.213 39.406 6.9522 13.975 7.6761 16.369 11.312 37.418 4.5546 26.364 4.7924 35.737 1.3535 53.477-10.829 55.862-50.664 118.43-115.67 181.68-10.175 9.9-22.876 21.841-28.223 26.535-8.8178 7.7413-9.7898 8.2718-10.459 5.7129-1.5373-5.8785-12.74-29.33-18.799-39.354-17.548-29.03-38.765-50.872-68.83-70.859-29.92-19.891-46.401-35.36-66.752-62.658-16.712-22.416-30.306-50.189-34.119-69.701-2.4723-12.652-1.1581-27.359 3.3398-37.359 9.1686-20.385 37.52-37.65 61.828-37.65 20.727 0 48.109 14.519 71.018 37.656 10.424 10.528 16.199 18.087 54.531 71.383 22.325 31.041 29.332 39.513 29.332 35.457 0-0.46122-1.547-14.411-3.4395-31-4.2833-37.547-3.3332-53.543 4.5234-76.168 8.2275-23.692 29.204-51.318 45.059-59.34 6.0534-3.0627 11.997-4.598 17.777-4.6328zm-584.42 313.49c-2.1273-0.00599-4.3297 0.04303-6.625 0.14257-23.382 1.0141-39.544 8.2239-57.572 25.682-20.476 19.828-36.706 52.114-44.729 88.973-3.8993 17.916-4.8454 51.48-2.0469 72.619 8.9361 67.502 45.995 137.87 111.52 211.74 22.577 25.455 74.979 75.202 79.322 75.303 0.74888 0.0173 2.0329-3.4928 2.8516-7.8008 2.7931-14.697 14.829-37.84 30.875-59.359 12.617-16.921 47.469-51.781 64.504-64.521 7.1087-5.3165 19.709-13.951 28-19.186 21.346-13.477 35.532-24.774 52.408-41.738 36.644-36.834 62.384-80.959 70.566-120.97 3.062-14.974 2.7972-40.53-0.55664-53.842-4.668-18.529-10.772-28.74-26.631-44.549-18.836-18.777-37.494-29.334-60.475-34.215-15.077-3.2024-42.295-1.8436-56.904 2.8398-15.123 4.8481-34.481 15.07-48.584 25.654-11.917 8.9441-31.374 27.301-39.883 37.629l-4.8652 5.9062v-10.693c0-33.503-19.958-64.2-52.285-80.422-12.835-6.4409-23.996-9.1456-38.887-9.1875z" fill="#fff"/>
 </g>
</svg>
