<?xml version="1.0" encoding="UTF-8" standalone="no"?>
<!-- Generator: Adobe Illustrator 15.0.0, SVG Export Plug-In . SVG Version: 6.00 Build 0)  -->

<svg
   xmlns:dc="http://purl.org/dc/elements/1.1/"
   xmlns:cc="http://creativecommons.org/ns#"
   xmlns:rdf="http://www.w3.org/1999/02/22-rdf-syntax-ns#"
   xmlns:svg="http://www.w3.org/2000/svg"
   xmlns="http://www.w3.org/2000/svg"
   xmlns:xlink="http://www.w3.org/1999/xlink"
   xmlns:sodipodi="http://sodipodi.sourceforge.net/DTD/sodipodi-0.dtd"
   xmlns:inkscape="http://www.inkscape.org/namespaces/inkscape"
   version="1.1"
   id="Ebene_1"
   x="0px"
   y="0px"
   width="426.082px"
   height="519.378px"
   viewBox="0 0 426.082 519.378"
   enable-background="new 0 0 426.082 519.378"
   xml:space="preserve"
   inkscape:version="0.48.4 r9939"
   sodipodi:docname="PEGI_n_3.svg"><metadata
   id="metadata3047"><rdf:RDF><cc:Work
       rdf:about=""><dc:format>image/svg+xml</dc:format><dc:type
         rdf:resource="http://purl.org/dc/dcmitype/StillImage" /><dc:title></dc:title></cc:Work></rdf:RDF></metadata><defs
   id="defs3045">
	<defs
   id="defs3003">
		<rect
   height="536.125"
   width="426.082"
   y="-3.624"
   id="SVGID_1_" />
	</defs>
	<clipPath
   id="SVGID_2_">
		<use
   id="use3007"
   overflow="visible"
   xlink:href="#SVGID_1_" />
	</clipPath>
	
	
	
	
	
	
	
	
	
	
	
	
	
	
	
	
	
<clipPath
   id="SVGID_2_-1"><use
     xlink:href="#SVGID_1_"
     overflow="visible"
     id="use3188" /></clipPath></defs><sodipodi:namedview
   pagecolor="#ffffff"
   bordercolor="#666666"
   borderopacity="1"
   objecttolerance="10"
   gridtolerance="10"
   guidetolerance="10"
   inkscape:pageopacity="0"
   inkscape:pageshadow="2"
   inkscape:window-width="1213"
   inkscape:window-height="778"
   id="namedview3043"
   showgrid="false"
   inkscape:zoom="0.64260405"
   inkscape:cx="607.6035"
   inkscape:cy="180.07415"
   inkscape:window-x="59"
   inkscape:window-y="-8"
   inkscape:window-maximized="1"
   inkscape:current-layer="Ebene_1" />

<g
   id="g3254"><g
     id="g3160"><path
       inkscape:connector-curvature="0"
       id="path3013"
       d="M 0,519.378 H 425.717 V 0 H 0 M 417.205,417.194 H 8.522 V 8.508 h 408.682 v 408.686 z"
       clip-path="url(#SVGID_2_)" /><polygon
       style="fill:#ffffff"
       id="polygon3017"
       points="40.901,455.167 41.045,455.167 47.976,487.455 54.759,487.455 64.115,447.929 57.64,447.929 51.523,480.245 51.365,480.245 44.808,447.929 37.512,447.929 30.797,480.245 30.653,480.245 24.312,447.929 17.822,447.929 27.039,487.455 34.263,487.455 "
       clip-path="url(#SVGID_2_)" /><polygon
       style="fill:#ffffff"
       id="polygon3019"
       points="88.7,455.167 88.854,455.167 95.785,487.455 102.548,487.455 111.924,447.929 105.434,447.929 99.322,480.245 99.164,480.245 92.597,447.929 85.302,447.929 78.596,480.245 78.447,480.245 72.105,447.929 65.621,447.929 74.838,487.455 82.062,487.455 "
       clip-path="url(#SVGID_2_)" /><polygon
       style="fill:#ffffff"
       id="polygon3021"
       points="136.489,455.167 136.638,455.167 143.579,487.455 150.352,487.455 159.718,447.929 153.237,447.929 147.111,480.245 146.963,480.245 140.396,447.929 133.105,447.929 126.39,480.245 126.241,480.245 119.9,447.929 113.4,447.929 122.627,487.455 129.855,487.455 "
       clip-path="url(#SVGID_2_)" /><rect
       style="fill:#ffffff"
       id="rect3023"
       height="7.8039999"
       width="6.7729998"
       clip-path="url(#SVGID_2_)"
       y="479.651"
       x="163.21201" /><path
       style="fill:#ffffff;fill-rule:evenodd"
       inkscape:connector-curvature="0"
       id="path3025"
       d="m 185.323,467.706 c 0,-9.012 1.107,-15.492 7.972,-15.492 5.752,0 7.223,6.06 7.223,14.744 0,10.182 -1.471,16.221 -7.223,16.221 -6.634,0 -7.972,-7.813 -7.972,-15.473 m -5.819,32.729 h 6.184 v -17.467 h 0.158 c 1.4,3.385 4.722,5.522 8.254,5.522 10.248,0 12.908,-12.539 12.908,-21.532 0,-11.715 -3.533,-20.055 -12.908,-20.055 -4.28,0 -7.736,2.962 -8.551,5.905 H 185.4 v -4.88 h -5.896 v 52.507 z"
       clip-rule="evenodd"
       clip-path="url(#SVGID_2_)" /><path
       style="fill:#ffffff;fill-rule:evenodd"
       inkscape:connector-curvature="0"
       id="path3027"
       d="m 219.035,463.564 v -1.476 c 0,-2.34 0.738,-10.315 7.224,-10.315 5.464,0 6.864,5.225 6.864,9.653 v 2.138 h -14.088 z m 20.568,4.871 v -2.502 c 0,-8.484 -1.112,-19.029 -13.191,-19.029 -12.165,0 -14.092,11.428 -14.092,21.32 0,13.565 4.055,20.267 13.728,20.267 10.756,0 13.258,-9.808 13.258,-14.006 h -6.183 c 0,2.942 -0.825,9.146 -6.711,9.146 -7.593,0 -7.593,-9.146 -7.593,-15.195 h 20.784 z"
       clip-rule="evenodd"
       clip-path="url(#SVGID_2_)" /><path
       style="fill:#ffffff;fill-rule:evenodd"
       inkscape:connector-curvature="0"
       id="path3029"
       d="m 258.623,452.214 c 6.644,0 7.967,7.813 7.967,15.492 0,8.092 -1.323,14.447 -8.044,14.447 -6.173,0 -7.142,-8.043 -7.142,-14.447 0,-9.433 1.467,-15.492 7.219,-15.492 m 13.785,-4.285 h -5.886 v 5.033 h -0.153 c -0.806,-3.105 -4.275,-6.059 -8.552,-6.059 -10.027,0 -12.894,10.104 -12.894,20.803 0,5.234 0.729,19.749 12.232,19.749 3.901,0 7.583,-1.994 8.925,-5.302 h 0.154 v 5.167 c 0,2.723 0.287,8.839 -7.689,8.839 -3.24,0 -6.039,-1.399 -6.326,-5.004 h -6.193 c 1.016,9.874 10.545,9.874 12.961,9.874 7.967,0 13.421,-4.275 13.421,-16.077 v -37.023 z"
       clip-rule="evenodd"
       clip-path="url(#SVGID_2_)" /><path
       style="fill:#ffffff;fill-rule:evenodd"
       inkscape:connector-curvature="0"
       id="path3031"
       d="m 280.921,487.455 h 6.174 v -39.517 h -6.174 v 39.517 z m 0,-45.556 h 6.174 v -7.095 h -6.174 v 7.095 z"
       clip-rule="evenodd"
       clip-path="url(#SVGID_2_)" /><rect
       style="fill:#ffffff"
       id="rect3033"
       height="7.8039999"
       width="6.7870002"
       clip-path="url(#SVGID_2_)"
       y="479.651"
       x="296.96899" /><path
       style="fill:#ffffff;fill-rule:evenodd"
       inkscape:connector-curvature="0"
       id="path3035"
       d="m 313.65,487.455 h 6.192 v -39.517 h -6.192 v 39.517 z m 0,-45.556 h 6.192 v -7.095 h -6.192 v 7.095 z"
       clip-rule="evenodd"
       clip-path="url(#SVGID_2_)" /><path
       style="fill:#ffffff"
       inkscape:connector-curvature="0"
       id="path3037"
       d="m 328.317,487.455 h 6.174 v -27.274 c 0,-5.752 4.525,-7.967 7.842,-7.967 5.589,0 5.819,4.947 5.819,7.967 v 27.274 h 6.193 v -28.022 c 0,-4.63 0,-12.529 -10.401,-12.529 -3.825,0 -7.957,2.07 -9.577,5.694 h -0.163 v -4.669 h -5.887 v 39.526 z"
       clip-path="url(#SVGID_2_)" /><path
       style="fill:#ffffff"
       inkscape:connector-curvature="0"
       id="path3039"
       d="m 364.305,487.455 h 6.212 v -34.646 h 6.769 v -4.88 h -6.769 v -4.63 c 0,-2.732 1.323,-3.758 3.979,-3.758 h 2.866 v -5.312 h -4.496 c -5.972,0 -8.561,3.097 -8.561,9.069 v 4.63 h -5.742 v 4.88 h 5.742 v 34.647 z"
       clip-path="url(#SVGID_2_)" /><path
       style="fill:#ffffff;fill-rule:evenodd"
       inkscape:connector-curvature="0"
       id="path3041"
       d="m 379.644,467.706 c 0,11.121 2.818,20.784 14.227,20.784 11.36,0 14.227,-9.663 14.227,-20.784 0,-11.149 -2.8,-20.803 -14.227,-20.803 -11.332,0 -14.227,9.654 -14.227,20.803 m 14.083,15.934 c -6.337,0 -7.584,-7.401 -7.584,-15.934 0,-8.57 1.323,-15.933 7.584,-15.933 6.634,0 7.898,7.362 7.898,15.933 0,8.532 -1.332,15.934 -7.898,15.934"
       clip-rule="evenodd"
       clip-path="url(#SVGID_2_)" /><g
       id="g3153"
       transform="matrix(0.71095117,0,0,0.71095117,-244.52308,117.39441)"><path
         id="path2986"
         d="m 930.62589,422.23402 -575.99367,0 0,-575.99366 575.99367,0 0,575.99366 z"
         style="fill:#99cc00"
         inkscape:connector-curvature="0" /><path
         id="path2990"
         style="fill:#bcdc5a"
         d="m 580.3959,159.52946 c 4.35677,5.76787 2.99859,7.99036 -1.4111,11.34172 l -9.45437,-12.55879 c 5.15051,-3.86289 7.17897,-3.72178 10.86547,1.21707 M 814.62097,312.0518 c 4.39205,5.76787 2.98095,8.04327 -1.37583,11.32408 l -9.47201,-12.54115 c 5.16816,-3.86289 7.19661,-3.66887 10.84784,1.21707 M 603.76725,32.195263 c 4.37442,5.76787 2.99859,8.04327 -1.39346,11.34172 l -9.43673,-12.52352 c 5.11524,-3.88053 7.14369,-3.70414 10.83019,1.1818 M 498.3404,-107.733 c 4.33913,5.76787 2.99859,8.025625 -1.37583,11.341715 l -9.45437,-12.541155 c 5.0976,-3.88052 7.1437,-3.70414 10.8302,1.19944 m -70.14934,381.94966 c 4.33913,5.78552 2.99859,8.02564 -1.39346,11.35936 l -9.47202,-12.55879 c 5.13288,-3.86289 7.16134,-3.73942 10.86548,1.19943 M 627.15625,-95.121295 c 4.33913,5.75024 2.99859,8.04327 -1.4111,11.34172 l -9.4191,-12.55879 c 5.11524,-3.845245 7.1437,-3.686495 10.8302,1.21707 M 685.8404,299.42245 c 4.33913,5.76787 2.94567,8.06091 -1.42874,11.377 l -9.45438,-12.57644 c 5.11524,-3.82761 7.16134,-3.6865 10.88312,1.19944 m 23.38899,-127.28128 c 4.32149,5.7326 2.99859,8.008 -1.42874,11.32408 l -9.43674,-12.54115 c 5.15052,-3.86289 7.1437,-3.70414 10.86548,1.21707 M 861.43424,57.418683 c 4.33914,5.76787 2.98095,8.04327 -1.4111,11.34172 l -9.43674,-12.55879 c 5.13287,-3.84525 7.1437,-3.6865 10.84784,1.21707 M 755.98974,-82.509585 c 4.33913,5.767881 2.99858,8.025641 -1.39347,11.341721 l -9.43673,-12.541151 c 5.11524,-3.86289 7.1437,-3.70414 10.8302,1.19943 m -23.389,127.316558 c 4.33914,5.76787 2.99859,8.02563 -1.39346,11.34172 l -9.43673,-12.54116 c 5.07996,-3.86289 7.14369,-3.70414 10.83019,1.19944 M 884.82323,-69.897874 c 4.33914,5.767877 2.99859,8.025637 -1.37582,11.324087 l -9.50729,-12.541157 c 5.16816,-3.86289 7.19661,-3.6865 10.88311,1.21707 M 451.58005,146.90011 c 4.33913,5.76787 2.99859,8.008 -1.37582,11.34172 l -9.45438,-12.59407 c 5.11524,-3.80997 7.1437,-3.65123 10.8302,1.25235 m 105.42686,139.94591 c 4.33913,5.73259 2.99859,7.99035 -1.39346,11.30644 l -9.43674,-12.5588 c 5.11524,-3.84525 7.1437,-3.66886 10.8302,1.25236 M 838.00996,184.71761 c 4.39205,5.76787 3.01623,8.06091 -1.37582,11.377 l -9.43674,-12.5588 c 5.0976,-3.88053 7.12606,-3.6865 10.81256,1.1818 m -479.33325,-306.26176 9.45438,12.54116 c 4.39205,-3.31609 5.73259,-5.57385 1.39346,-11.32409 -3.70414,-4.92121 -5.71496,-5.07996 -10.84784,-1.21707 M 474.9514,19.583543 c 4.37442,5.76788 2.99859,8.04328 -1.39346,11.35936 l -9.45437,-12.55879 c 5.11524,-3.84525 7.1437,-3.72178 10.84783,1.19943 m 451.34055,-173.353713 -15.94543,0 5.78551,7.67286 10.15992,-7.67286 z m -292.90922,1.35819 -1.02305,-1.35819 -21.39581,0 8.73118,11.65922 13.68768,-10.30103 z m 52.58114,29.47436 c 15.39863,20.40805 22.77163,24.800095 36.33584,14.55198 4.05691,-3.0515 6.26176,-6.52634 7.30244,-11.14769 l 3.98636,1.28763 7.00259,-5.25636 -21.67803,-28.78645 -17.09196,12.85866 7.28481,9.68367 3.42192,-2.59289 3.84525,5.13288 c 2.34595,3.10442 1.81679,5.43273 -0.29986,7.02022 -2.11665,1.58749 -4.49789,1.46402 -6.84384,-1.62276 l -17.77987,-23.65358 c -2.34595,-3.08678 -1.81679,-5.43274 0.26458,-7.02023 2.11665,-1.58748 4.53316,-1.49929 6.87912,1.62277 l 2.2754,3.03387 7.86688,-5.94427 -32.96684,0 c -3.42191,7.81397 -0.12347,17.16252 10.19521,30.83255 m 76.25235,-16.86265 -10.54798,-13.9699 -21.41345,0 18.27375,24.27094 13.68768,-10.30104 z m 52.59877,29.49201 c 15.34572,20.390395 22.73636,24.782455 36.30057,14.551975 4.07455,-3.06915 6.31468,-6.561615 7.32009,-11.147695 l 3.98636,1.26999 7.00259,-5.27399 -21.67804,-28.75118 -17.05668,12.84102 7.24953,9.68368 3.40428,-2.5929 3.84525,5.11524 c 2.36359,3.12206 1.83443,5.43274 -0.29986,7.03787 -2.11665,1.58749 -4.49789,1.48165 -6.8262,-1.64041 l -17.83279,-23.63594 c -2.32831,-3.10442 -1.78151,-5.43274 0.35278,-7.02022 2.11665,-1.60513 4.49788,-1.48166 6.8262,1.60512 l 2.25776,3.03387 13.68767,-10.2834 c -3.17497,-4.16274 -5.34454,-6.59689 -7.65522,-8.04327 -0.14111,-0.10583 -0.29986,-0.10583 -0.44097,-0.21167 l -17.46237,0 c -1.78151,0.89958 -3.5983,1.95791 -5.27398,3.24554 -13.15852,9.89534 -12.47061,20.67262 2.29303,40.21637 m 76.19945,-16.8803 -20.01999,-26.58161 -21.39583,0 27.76342,36.88265 13.6524,-10.30104 z m -477.32244,30.638525 30.39158,-22.930385 -8.3255,-11.0595 -16.77445,12.61172 -7.60231,-10.10702 13.17615,-9.93062 -8.37841,-11.11242 -13.15851,9.94826 -6.63217,-8.7841 7.74341,-5.85607 -22.2072,0 -7.23189,5.46802 38.9993,51.752115 z m 128.83349,12.62935 30.39158,-22.930375 -8.37841,-11.09478 -16.73918,12.62935 -7.61995,-10.10701 13.17615,-9.91299 -8.37841,-11.11241 -13.14087,9.91298 -6.63217,-8.7841 15.92779,-12.012 -4.81538,-6.43815 -8.85465,0 -23.97107,18.06209 39.03457,51.787395 z m 50.94073,-37.041385 c 4.07455,-3.08679 6.31468,-6.54398 7.30245,-11.16534 l 4.00399,1.26999 6.98495,-5.27399 -13.26434,-17.63876 -23.15969,0 -2.29304,1.76388 7.24953,9.63076 3.42192,-2.55762 3.88052,5.13288 c 2.31068,3.06915 1.76388,5.4151 -0.35277,7.02023 -2.11665,1.58749 -4.49789,1.46401 -6.84384,-1.65805 l -14.53434,-19.33208 -19.19097,0 c 1.65805,5.16816 5.11524,11.11242 10.45979,18.23848 15.39863,20.39041 22.77163,24.78246 36.33584,14.56962 m -128.81585,-12.62935 c 4.07455,-3.06915 6.29704,-6.56162 7.30245,-11.13006 l 3.98636,1.23471 6.98494,-5.25635 -3.75705,-5.02705 -21.39582,0 0.98777,1.32291 c 2.31068,3.12206 1.78152,5.45038 -0.33513,7.03787 -2.11665,1.58748 -4.49788,1.48165 -6.84384,-1.62277 l -5.06232,-6.73801 -22.11901,0 c 1.19944,1.8168 2.45179,3.63359 3.93345,5.62677 15.38099,20.3904 22.754,24.78245 36.3182,14.55198 m 417.77399,480.17991 39.05221,51.76975 9.13688,-6.96731 0,-9.29562 -34.50141,-45.82549 -13.68768,10.31867 z m -35.68321,57.41416 -13.17616,9.91298 -6.61453,-8.80174 15.91016,-11.97672 -8.02564,-10.67145 -29.59783,22.29539 13.19379,17.48001 27.18133,0 9.50729,-7.1437 -8.37841,-11.09477 z m 55.75612,4.32149 4.02164,1.25235 6.98494,-5.23871 -21.64275,-28.76881 -17.09196,12.87629 7.24953,9.63076 3.42192,-2.57526 3.88053,5.13288 c 2.34595,3.08679 1.76387,5.4151 -0.35278,7.00259 -2.09901,1.58749 -4.49788,1.48166 -6.79092,-1.62277 l -17.83278,-23.63593 c -2.34596,-3.12206 -1.8168,-5.45038 0.29986,-7.02023 2.09901,-1.58749 4.49788,-1.46401 6.84383,1.62277 l 2.2754,3.0515 13.6524,-10.31867 c -3.1397,-4.16275 -5.30926,-6.61453 -7.58466,-8.06091 -7.26717,-4.70955 -15.91016,-2.48707 -23.21261,3.0515 -13.1938,9.91299 -12.48825,20.63735 2.25776,40.19873 6.57926,8.73119 11.6945,14.35795 16.45696,17.3389 l 15.57503,0 c 1.4111,-0.7761 2.8222,-1.6404 4.32149,-2.78692 4.02164,-3.05151 6.26176,-6.52634 7.26717,-11.13006 m -118.14441,12.13547 -2.39887,1.78151 29.98589,0 c -8.66063,-10.49506 -17.00377,-9.73659 -27.58702,-1.78151 m -137.63523,-5.92663 -10.30103,7.70814 41.75094,0 c -0.8643,-1.51693 -1.44638,-2.91039 -2.71637,-4.60371 -9.08396,-12.04728 -17.67404,-11.48284 -28.73354,-3.10443 m 57.57291,4.51553 13.15851,-9.93062 -8.34313,-11.09478 -13.15852,9.91298 -6.66745,-8.7841 15.96308,-11.99436 -8.04327,-10.68909 -29.61548,22.33067 17.67404,23.44191 21.43109,0 -2.39887,-3.19261 z M 546.63532,405.00806 c -9.06632,-12.04728 -17.67404,-11.42992 -28.73354,-3.10443 l -15.36336,11.57103 6.57926,8.76646 20.65498,0 -7.00258,-9.31326 c 5.11524,-3.86289 7.16133,-3.70414 10.84783,1.19943 2.87512,3.82761 3.06915,6.0501 1.74624,8.11383 l 15.9278,0 c 1.86971,-5.00941 0.56444,-10.26576 -4.65663,-17.23306 m 53.16321,-1.09361 -16.73918,12.61171 -7.56702,-10.08937 13.12323,-9.91298 -8.32549,-11.07714 -13.17615,9.91298 -6.63218,-8.81937 15.9278,-12.012 -8.04327,-10.67145 -29.61548,22.33067 27.19897,36.05362 32.64934,0 9.59548,-7.21425 -8.39605,-11.11242 z m 121.26647,18.32667 11.90616,0 -4.33914,-5.71496 -7.56702,5.71496 z m 200.12935,-104.86241 9.4191,12.4706 0,-19.57902 -9.4191,7.10842 z m -24.20037,-91.4746 33.61947,44.60842 0,-28.41604 -19.9318,-26.51106 -13.68767,10.31868 z m 15.71613,-85.44215 7.26717,9.66604 3.42192,-2.5929 3.86289,5.11524 c 2.34595,3.12206 1.78151,5.43274 -0.35278,7.02023 -2.09901,1.58749 -4.4626,1.48166 -6.80856,-1.62277 l -17.79751,-23.65357 c -2.34595,-3.08678 -1.79915,-5.4151 0.29986,-7.00259 2.11665,-1.60512 4.51552,-1.49929 6.84384,1.60513 l 2.25776,3.05151 13.68768,-10.31868 c -3.1397,-4.16275 -5.34455,-6.57926 -7.61995,-8.04328 -7.23189,-4.70955 -15.89252,-2.50471 -23.19496,3.03387 -13.17615,9.91299 -12.45297,20.67263 2.2754,40.21637 14.34031,19.04986 21.81914,23.97107 33.76058,16.21002 l 0,-44.43203 -0.84666,-1.11124 -17.05668,12.85865 z m 5.23871,-151.093607 c -13.15851,9.94826047 -12.45296,20.7079 2.29304,40.23401 3.88053,5.20343 7.26717,9.31326 10.37159,12.4706 l 0,-28.43368 -4.92121,-6.5439795 c -2.34596,-3.10442 -1.79916,-5.43273 0.31749,-7.02022003 1.44638,-1.09360997 3.03387,-1.30526997 4.60372,-0.37042 l 0,-15.66321047 c -4.30386,0.47624 -8.66063,2.32831 -12.66463,5.3269 m -6.26176,-86.853238 15.9278,-12.011995 -8.06091,-10.68909 -29.54492,22.330665 38.99929,51.752118 1.60513,-1.21708 0,-25.029387 -3.95108,-5.23871 3.95108,-2.98095 0,-17.409461 -12.32949,9.27799 -6.5969,-8.7841 z m 18.92639,209.636635 0,-21.289977 -10.21284,7.72577 10.21284,13.564207 z m -19.70249,-52.334197 -7.61995,-10.08937 13.14088,-9.93062 -8.34313,-11.09478 -13.15852,9.91298 -6.61453,-8.7841 15.91016,-11.99435 -8.04328,-10.6714495 -29.56255,22.2953895 38.99929,51.76975 24.99412,-18.85583 0,-11.20061 -2.99859,-3.98636 -16.7039,12.62935 z m -516.97437,340.480957 9.45437,12.55879 c 4.39205,-3.31608 5.76788,-5.57385 1.4111,-11.30644 -3.6865,-4.92121 -5.73259,-5.0976 -10.86547,-1.25235 M 354.6198,31.436793 l 0,26.24647 12.61171,-9.52493 -12.61171,-16.72154 z m 10.91839,63.25259 -8.02564,-10.67145 -2.89275,2.16956 0,16.721547 10.91839,-8.219657 z m -6.38523,-96.8544195 c -1.51694,-2.02846 -3.01623,-3.54539 -4.53316,-4.88594 l 0,33.0197495 c 12.22366,-9.31326 13.47601,-16.2629295 4.53316,-28.1338095 m 6.42051,253.5395065 -10.95367,8.25494 0,17.40946 19.33208,-14.56962 -8.37841,-11.09478 z m 31.74976,-116.22177 -8.36077,-11.09478 -16.73918,12.61171 -7.60231,-10.05409 13.17616,-9.94826 -8.37841,-11.09479 -13.17616,9.91299 -1.62276,-2.15194 0,28.43369 12.29421,16.31585 30.40922,-22.93038 z m -2.8222,113.22318 c 4.05691,-3.08678 6.26176,-6.56161 7.28481,-11.14769 l 4.02163,1.26999 6.98495,-5.30927 -21.67803,-28.75117 -17.09196,12.89393 7.28481,9.6484 3.42192,-2.57526 3.86289,5.13288 c 2.32831,3.08678 1.78151,5.43274 -0.3175,7.03786 -2.13429,1.58749 -4.51552,1.44638 -6.8262,-1.67568 l -17.83279,-23.63593 c -2.32831,-3.10442 -1.79915,-5.45038 0.3175,-7.03787 2.11665,-1.58749 4.49789,-1.42874 6.84384,1.65805 l 2.2754,2.99858 13.6524,-10.26575 c -3.15734,-4.21567 -5.34455,-6.57926 -7.58467,-8.06091 -7.26717,-4.70955 -15.91016,-2.48707 -23.23024,2.99858 -0.49389,0.38806 -0.81139,0.75847 -1.26999,1.12888 l 0,34.07809 c 1.11124,1.6404 2.20484,3.26317 3.54539,5.0094 15.38099,20.44332 22.754,24.83537 36.33584,14.60489 m 26.21119,-240.5221065 -8.36077,-11.09478 -16.75682,12.62935 -7.58466,-10.10701003 13.15851,-9.94826047 -8.36077,-11.07714 -13.17615,9.91299 -6.63218,-8.80174 15.9278,-11.99436 -8.04327,-10.67145 -26.26411,19.80833 0,6.91439 35.70084,47.34243 30.39158,-22.9127495 z m -43.25023,-77.0813675 -22.84219,-30.321031 0,-33.548915 c 10.65381,-7.77869 19.06749,-8.11383 27.90451,3.61595 9.01341,11.97672 7.76106,18.92639 -4.74482,28.36312 l -2.38124,1.781515 15.22225,20.178741 -13.15851,9.93062 z M 363.3157,325.9335 c -3.1397,-4.21566 -5.3269,-6.61453 -7.6023,-8.07855 -0.35278,-0.24694 -0.74083,-0.24694 -1.0936,-0.45861 l 0,15.08114 8.6959,-6.54398 z m 107.66698,65.36924 -16.7039,12.61171 -7.6023,-10.08937 13.17615,-9.93062 -8.37841,-11.11242 -13.17615,9.94826 -6.64982,-8.76646 15.94544,-12.02963 -8.02563,-10.67145 -29.59784,22.29539 36.67098,48.68297 6.40287,0 26.31702,-19.86124 -8.37841,-11.07714 z m -57.94332,29.43909 -1.97554,1.49929 -21.23706,0 -16.10419,-21.36053 15.36336,-11.58867 c 11.0595,-8.34313 19.64958,-8.90757 28.7159,3.10442 9.04868,11.95908 7.76105,18.89111 -4.76247,28.34549 M 371.11204,375.6748 c 4.07455,-3.06914 6.27939,-6.56162 7.2848,-11.16533 l 4.02164,1.26999 6.96731,-5.25635 -21.6604,-28.75118 -13.10559,9.84243 0,8.29022 3.31608,4.37441 3.40428,-2.55762 3.84525,5.0976 c 2.34596,3.10442 1.79916,5.45037 -0.29986,7.03786 -2.11665,1.56985 -4.49788,1.48166 -6.84384,-1.62276 l -3.42191,-4.5508 0,22.45414 c 5.11523,1.78151 10.12464,0.33513 16.49224,-4.46261 m 549.9412,-86.72977 7.03787,-5.27399 -21.67804,-28.76882 -17.09195,12.85866 7.2848,9.68368 3.42192,-2.61054 3.84525,5.11524 c 2.34596,3.1397 1.8168,5.43274 -0.29986,7.03787 -2.11665,1.58748 -4.49788,1.46401 -6.84383,-1.62277 l -17.83279,-23.65357 c -2.34595,-3.08679 -1.81679,-5.43274 0.3175,-7.02023 2.11665,-1.56985 4.48024,-1.48166 6.84384,1.60513 l 2.25776,3.06914 13.68767,-10.33631 c -3.15733,-4.16275 -5.34454,-6.57926 -7.61994,-8.06091 -7.26717,-4.70955 -15.91016,-2.46943 -23.19497,3.0515 -13.17615,9.94826 -12.45296,20.69026 2.2754,40.25165 15.34572,20.35512 22.71872,24.74717 36.30057,14.51669 4.09219,-3.06914 6.29703,-6.52634 7.28481,-11.13005 l 4.00399,1.28763 z m -31.85559,23.98871 -8.34314,-11.09478 -16.75682,12.61171 -7.58466,-10.10701 13.17615,-9.91298 -8.37841,-11.07714 -13.1938,9.87771 -6.64981,-8.74883 15.96308,-12.01199 -8.02564,-10.68909 -29.59784,22.31303 38.99931,51.75211 30.39158,-22.91274 z m -53.49837,40.28692 -15.16933,-20.1611 2.34596,-1.78151 c 12.52351,-9.4191 13.81114,-16.38641 4.76246,-28.32785 -9.04868,-12.04727 -17.67403,-11.44755 -28.73354,-3.12206 l -15.32808,11.55339 38.9993,51.76975 13.12323,-9.93062 z m -38.25846,28.83937 -38.9993,-51.76975 -13.63476,10.31867 38.9993,51.76975 13.63476,-10.31867 z m -21.60748,16.31585 -21.64276,-28.78645 -17.09195,12.87629 7.2848,9.63076 3.42192,-2.55762 3.84525,5.11524 c 2.34596,3.08679 1.79915,5.43274 -0.29986,7.03787 -2.11665,1.58749 -4.49788,1.44638 -6.84384,-1.62277 l -17.83278,-23.65357 c -2.31068,-3.12206 -1.76388,-5.43274 0.35278,-7.02023 2.08137,-1.56985 4.49788,-1.48165 6.84383,1.60513 l 2.25776,3.0515 13.61713,-10.31867 c -3.1397,-4.16275 -5.30927,-6.57926 -7.58467,-8.06091 -7.21425,-4.70955 -15.87488,-2.48707 -23.21261,3.0515 -13.15851,9.93062 -12.43532,20.67263 2.25777,40.21637 15.41627,20.39041 22.80691,24.78246 36.35348,14.55198 4.07455,-3.06915 6.26175,-6.56162 7.30244,-11.1477 l 3.98636,1.26999 6.98495,-5.23871 z m -45.86077,-75.14111 30.44449,-22.8951 -8.39604,-11.13006 -16.72155,12.64699 -7.61994,-10.12465 13.15851,-9.91298 -8.36077,-11.07714 -13.17615,9.91298 -6.5969,-8.81938 15.9278,-12.01199 -8.06091,-10.67145 -29.59784,22.33067 38.9993,51.75211 z m -23.03622,17.39182 -15.25753,-20.19638 2.38124,-1.76388 c 12.52351,-9.43673 13.79351,-16.3864 4.76246,-28.32784 -9.06632,-12.04727 -17.67403,-11.46519 -28.73354,-3.1397 l -15.38099,11.57103 39.05221,51.76975 13.17615,-9.91298 z m -38.2761,28.85701 -39.03458,-51.76976 -13.6524,10.26576 38.9993,51.76975 13.68768,-10.26575 z m -21.62512,16.26293 -21.69567,-28.78645 -17.03904,12.87629 7.24952,9.6484 3.42192,-2.55762 3.84525,5.13288 c 2.34596,3.06914 1.79916,5.45038 -0.29986,7.02023 -2.11665,1.58748 -4.49788,1.44637 -6.84383,-1.64041 l -17.81515,-23.65357 c -2.32832,-3.08679 -1.78151,-5.39746 0.3175,-6.98495 2.13429,-1.62277 4.51552,-1.49929 6.84384,1.62277 l 2.2754,2.99858 13.68767,-10.26575 c -3.19261,-4.19803 -5.37982,-6.5969 -7.61994,-8.09619 -7.24953,-4.67427 -15.91016,-2.45179 -23.24788,3.03386 -13.12324,9.9659 -12.43533,20.70791 2.2754,40.23401 15.36335,20.3904 22.78927,24.80009 36.35348,14.58725 4.07455,-3.10442 6.26175,-6.59689 7.24953,-11.16533 l 4.03927,1.25235 7.00259,-5.25635 z m -45.84313,-75.14111 30.39158,-22.91274 -8.36078,-11.09478 -16.75682,12.61171 -7.58466,-10.05409 13.14087,-9.9659 -8.32549,-11.11242 -13.17615,9.94826 -6.64981,-8.76646 15.92779,-12.02964 -8.06091,-10.65381 -29.5802,22.27776 39.03458,51.75211 z m -23.08914,17.39182 -15.22225,-20.1611 2.34596,-1.79916 c 12.52352,-9.41909 13.79351,-16.3864 4.81538,-28.32784 -9.11924,-12.02963 -17.67404,-11.44756 -28.73354,-3.12206 l -15.38099,11.6063 38.99929,51.76976 13.17615,-9.9659 z m -38.25846,28.85701 -38.9993,-51.7874 -13.68767,10.31868 38.99929,51.75211 13.68768,-10.28339 z m -21.60748,16.26293 -21.69568,-28.73354 -17.07431,12.85866 7.26717,9.63076 3.42191,-2.57526 3.88053,5.13288 c 2.31068,3.10442 1.76388,5.43274 -0.33514,7.03786 -2.11665,1.58749 -4.49788,1.44638 -6.84383,-1.6404 l -17.79751,-23.65357 c -2.32832,-3.08679 -1.79915,-5.4151 0.3175,-7.00259 2.09901,-1.58749 4.48024,-1.48166 6.8262,1.60513 l 2.2754,3.03386 13.67003,-10.28339 c -3.1397,-4.18039 -5.3269,-6.5969 -7.6023,-8.06092 -7.26717,-4.72718 -15.89252,-2.48706 -23.24788,3.03387 -13.12324,9.91298 -12.40005,20.67262 2.31067,40.19873 15.36336,20.40804 22.73636,24.80009 36.30057,14.56961 4.07455,-3.06914 6.29703,-6.52634 7.30244,-11.13005 l 3.98636,1.25235 7.03787,-5.27399 z m -45.86077,-75.08819 30.37394,-22.93039 -8.36077,-11.07714 -16.75682,12.57644 -7.60231,-10.07173 13.17615,-9.94826 -8.37841,-11.07714 -13.14087,9.93062 -6.64981,-8.80174 15.94543,-12.012 -8.02563,-10.65381 -29.61548,22.27775 39.03458,51.7874 z m -23.08914,17.35654 -15.22225,-20.1611 2.34596,-1.79916 c 12.52352,-9.43673 13.79351,-16.35113 4.76246,-28.32784 -9.06632,-12.02964 -17.65639,-11.4652 -28.71589,-3.10442 l -15.36336,11.55338 39.01693,51.7874 13.17615,-9.94826 z m -38.25846,28.87464 -39.01694,-51.76975 -13.67004,10.26575 38.9993,51.7874 13.68768,-10.2834 z m 9.70131,-117.0508 13.68768,-10.26575 -39.03457,-51.76976 -13.6524,10.30104 38.99929,51.73447 z m -2.85748,-106.18532 c 4.07456,-3.03387 6.29704,-6.52634 7.28481,-11.13007 l 4.03928,1.27 6.98494,-5.27399 -21.67803,-28.768817 -17.09196,12.8763 7.28481,9.66604 3.40428,-2.57526 3.88053,5.132877 c 2.32831,3.08678 1.78151,5.39746 -0.3175,6.98494 -2.11665,1.60513 -4.49788,1.48166 -6.84384,-1.60512 L 387.0222,83.947373 c -2.34596,-3.10442 -1.8168,-5.43274 0.29985,-7.03786 2.09902,-1.56985 4.49789,-1.48166 6.8262,1.67568 l 2.29304,2.99859 13.6524,-10.30104 c -3.1397,-4.16274 -5.36218,-6.57925 -7.6023,-8.04327 -7.23189,-4.70955 -15.91016,-2.5047 -23.23025,3.01623 -13.14087,9.91298 -12.43532,20.69026 2.2754,40.216367 15.381,20.40805 22.754,24.8001 36.33584,14.55198 m -12.73518,-72.883357 38.99929,51.76976 13.63476,-10.2834 -38.99929,-51.78739 -13.63476,10.30103 z m 36.15945,-54.4155695 c 4.02164,-3.06914 6.26176,-6.5616105 7.24953,-11.1476905 l 4.03928,1.25235 6.98495,-5.25635 -21.69567,-28.76881 -17.05668,12.87629 7.24953,9.6484 3.42191,-2.55762 3.88053,5.11524 c 2.34596,3.08678 1.79916,5.43274 -0.3175,7.02023 -2.13429,1.58749 -4.51552,1.44638 -6.86147,-1.64041 l -17.79751,-23.65357 c -2.34595,-3.08678 -1.78151,-5.39746 0.3175,-7.00259 2.11665,-1.58749 4.49788,-1.48165 6.8262,1.62277 l 2.2754,3.03386 13.67003,-10.30103 c -3.13969,-4.18039 -5.34454,-6.57926 -7.58466,-8.04328 -7.26717,-4.727177 -15.91016,-2.504697 -23.23025,3.01623 -13.15851,9.93062 -12.45296,20.69027 2.2754,40.21637 15.36336,20.39040047 22.754,24.7824605 36.35348,14.5696105 m -12.80573,-72.9009775 38.99929,51.769747 13.67004,-10.30103 -38.98166,-51.769758 -13.68767,10.301041 z m 38.76999,-29.209786 38.99929,51.769753 13.17615,-9.948257 -15.22225,-20.161101 2.34596,-1.76388 c 12.52352,-9.43673 13.79351,-16.404035 4.81538,-28.363115 -9.11924,-12.04728 -17.67404,-11.4652 -28.75118,-3.12206 l -15.36335,11.58866 z m 54.36265,99.2180135 -13.17615,9.94825997 -6.61454,-8.80173997 15.91016,-12.0120005 -8.02563,-10.67145 -29.5802,22.2954005 38.99929,51.7697495 30.40922,-22.89511 -8.36077,-11.0947795 -16.75682,12.6293495 -7.6023,-10.08937 13.17615,-9.9482595 -8.37841,-11.13005 z m 12.13546,0.93485 c 15.36336,20.4256795 22.754,24.8000995 36.35348,14.56962 4.02164,-3.06915 6.24412,-6.57926003 7.26717,-11.16534 l 4.02164,1.26999 7.00259,-5.27399 -21.71331,-28.7511705 -17.07432,12.85865 7.26717,9.66604 3.42191,-2.57526 3.89817,5.13288 c 2.34595,3.0867905 1.74624,5.4151005 -0.3175,7.0025905 -2.15193,1.58749 -4.53316,1.48166 -6.87911,-1.6404 L 539.2094,-30.775107 c -2.34595,-3.08678 -1.79915,-5.4151 0.3175,-7.02023 2.11665,-1.58748 4.49788,-1.46401 6.84384,1.64041 l 2.2754,3.01623 13.65239,-10.2834 c -3.13969,-4.18039 -5.3269,-6.5969 -7.58466,-8.06091 -7.26717,-4.70955 -15.9278,-2.46943 -23.21261,3.01623 -13.17615,9.93062 -12.45296,20.7079 2.25776,40.2340005 m 23.54775,-58.3490075 38.99929,51.769757 13.68768,-10.26576 -38.9993,-51.787387 -13.68767,10.28339 z m 38.76999,-29.209781 38.99929,51.787388 13.17615,-9.93062 -15.22225,-20.196377 2.34596,-1.76387 c 12.54116,-9.436741 13.81115,-16.368771 4.7801,-28.345486 -9.08396,-12.04727 -17.63876,-11.44755 -28.7159,-3.12206 l -15.36335,11.571025 z m 36.23,-27.287165 39.05222,51.752126 30.37394,-22.895111 -8.37841,-11.130055 -16.70391,12.629345 -7.63758,-10.089365 13.17615,-9.93062 -8.37841,-11.09478 -13.14087,9.91298 -6.64981,-8.80174 15.94543,-11.99436 -8.02563,-10.68908 -29.63312,22.33066 z m 67.48589,58.825263 -13.6524,10.30103 38.9993,51.7521205 13.67004,-10.2834005 -39.01694,-51.76975 z m 25.11759,-18.908748 38.9993,51.769748 13.17615,-9.94826 -15.22225,-20.1611 2.34596,-1.78151 c 12.52352,-9.436737 13.82878,-16.368767 4.81538,-28.345488 -9.08396,-12.047265 -17.67404,-11.447545 -28.73354,-3.10442 l -15.381,11.57103 z m 36.23001,-27.322435 38.98166,51.769753 30.44449,-22.895107 -8.39604,-11.112421 -16.72155,12.611711 -7.58466,-10.071731 13.12323,-9.930615 -8.30785,-11.11242 -13.17615,9.91299 -6.64982,-8.7841 15.9278,-12.02964 -8.00799,-10.65381 -29.63312,22.29539 z m 67.50353,58.825253 -13.68768,10.30104 39.05221,51.78739 13.63477,-10.31866953 -38.9993,-51.76976047 z m 25.09995,-18.891107 38.99931,51.769757 13.17615,-9.93063 -15.22225,-20.19637 2.34596,-1.78152 c 12.52351,-9.43673 13.7935,-16.368767 4.76246,-28.345477 -9.06632,-12.047271 -17.67404,-11.447561 -28.68062,-3.104421 l -15.38101,11.588661 z m -8.04327,115.727887 -15.36336,11.6063 38.9993,51.752117 13.1938,-9.930617 -15.22225,-20.19638 2.38123,-1.76387 c 12.48824,-9.4191 13.75823,-16.38641 4.74483,-28.32785 -9.08396,-12.04727 -17.67404,-11.44755 -28.73355,-3.1397 m 0.24694,190.657347 13.15853,-9.91298 -15.20462,-20.17874 2.34595,-1.74624 c 12.55881,-9.47201 13.8288,-16.38641 4.79774,-28.36312 -9.06632,-12.04728 -17.67403,-11.4652 -28.75117,-3.12206 l -15.34572,11.55338 38.99929,51.76976 z m -38.76999,29.20978 13.67004,-10.26576 -38.99929,-51.76975 -13.67004,10.26576 38.99929,51.76975 z m -62.56467,6.57926 c 15.38099,20.42568 22.78927,24.80009 36.33584,14.58725 4.05691,-3.06914 6.2794,-6.57926 7.32008,-11.16533 l 3.96872,1.25235 7.02023,-5.22107 -21.71331,-28.78646 -17.05668,12.84102 7.26717,9.68368 3.42192,-2.57526 3.86288,5.13288 c 2.34596,3.06914 1.78152,5.43273 -0.29985,7.00258 -2.11666,1.58749 -4.53317,1.48166 -6.84384,-1.62276 l -17.81515,-23.65358 c -2.34595,-3.08678 -1.79915,-5.39746 0.29986,-7.00258 2.11665,-1.58749 4.49788,-1.48166 6.8262,1.62276 l 2.32832,2.99859 13.63476,-10.26576 c -3.1397,-4.18038 -5.34455,-6.57925 -7.61995,-8.06091 -7.21425,-4.70955 -15.89252,-2.48706 -23.19496,2.99859 -13.17616,9.9659 -12.45297,20.72554 2.25776,40.23401 m 8.76646,-75.72319 30.42686,-22.89511 -8.39605,-11.07714 -16.72154,12.57644 -7.61995,-10.0541 13.19379,-9.94826 -8.39605,-11.09477 -13.17615,9.93062 -6.59689,-8.80174 15.91016,-12.012 -8.04328,-10.67145 -29.58019,22.29539 38.99929,51.75212 z m -36.23001,27.35771 13.17615,-9.94826 -15.20461,-20.17874 2.32832,-1.79915 c 12.52352,-9.40146 13.79351,-16.35113 4.76246,-28.32784 -9.06632,-12.04728 -17.67403,-11.42992 -28.73353,-3.12206 l -15.32808,11.6063 38.99929,51.76975 z m -38.76999,29.17451 13.6524,-10.2834 -39.01693,-51.76975 -13.63476,10.30103 38.99929,51.75212 z m -62.59995,6.59689 c 15.381,20.39041 22.77164,24.76482 36.35348,14.56962 4.07455,-3.06915 6.31467,-6.56162 7.26717,-11.16534 l 4.03927,1.26999 6.98495,-5.29162 -21.66039,-28.73354 -17.05668,12.85866 7.24953,9.66603 3.42192,-2.61053 3.84524,5.16815 c 2.34596,3.08679 1.79916,5.43274 -0.31749,7.02023 -2.11665,1.60513 -4.48025,1.42874 -6.8262,-1.65804 l -17.83279,-23.65358 c -2.34595,-3.08678 -1.76387,-5.4151 0.35278,-7.00258 2.09901,-1.58749 4.49788,-1.44638 6.79092,1.6404 l 2.29304,2.99859 13.68768,-10.2834 c -3.17498,-4.18038 -5.37983,-6.56162 -7.63759,-8.04327 -7.23189,-4.72719 -15.85724,-2.5047 -23.2126,3.01623 -13.14088,9.91298 -12.45297,20.67262 2.25776,40.234 m 8.76646,-75.70555 30.42686,-22.93038 -8.36077,-11.11242 -16.75682,12.64699 -7.61995,-10.08937 13.19379,-9.94826 -8.37841,-11.11242 -13.19379,9.93063 -6.59689,-8.81938 15.91016,-11.97672 -8.04328,-10.67146 -29.58019,22.2954 38.99929,51.78739 z m -36.23001,27.32244 13.17615,-9.9659 -15.22224,-20.14346 2.34595,-1.81679 c 12.54116,-9.43674 13.81115,-16.35113 4.7801,-28.34549 -9.06632,-12.02963 -17.63875,-11.44755 -28.69825,-3.10442 l -15.381,11.60631 38.99929,51.76975 z m -38.76999,29.20978 13.68768,-10.30103 -39.03457,-51.76976 -13.6524,10.2834 38.99929,51.78739 z m -62.56467,6.56162 c 15.39863,20.40804 22.77163,24.78246 36.33584,14.55198 4.05691,-3.06915 6.26176,-6.54398 7.30244,-11.16534 l 3.98636,1.26999 7.00259,-5.25635 -21.67803,-28.75117 -17.09196,12.87629 7.28481,9.63076 3.42192,-2.55762 3.84525,5.11524 c 2.34595,3.08679 1.81679,5.43274 -0.29986,7.02023 -2.11665,1.56985 -4.49789,1.48166 -6.84384,-1.62277 l -17.81515,-23.63593 c -2.31067,-3.10442 -1.76387,-5.45038 0.29986,-7.03787 2.15193,-1.58748 4.53316,-1.48165 6.87912,1.62277 l 2.2754,3.0515 13.63476,-10.30103 c -3.15734,-4.19802 -5.34455,-6.5969 -7.61995,-8.07855 -7.21425,-4.69191 -15.85724,-2.46943 -23.19496,3.0515 -13.17615,9.91299 -12.45297,20.67263 2.2754,40.21637 m 44.3262,-170.566797 c -7.24953,-4.70955 -15.87489,-2.48706 -23.21261,3.03387 -13.17615,9.93062 -12.43532,20.67262 2.2754,40.198737 15.36336,20.42568 22.77164,24.78245 36.35348,14.58725 4.07455,-3.06914 6.24412,-6.57926 7.26717,-11.16533 l 4.02164,1.26999 6.98494,-5.27399 -21.66039,-28.751187 -17.1096,12.841017 7.30245,9.68368 3.42192,-2.5929 3.82761,5.13289 c 2.34595,3.10442 1.81679,5.43274 -0.29986,7.03786 -2.09901,1.58749 -4.48024,1.44638 -6.8262,-1.6404 L 515.82041,96.576723 c -2.34596,-3.08678 -1.79916,-5.43273 0.35277,-7.03786 2.06374,-1.60513 4.46261,-1.46402 6.80856,1.6404 l 2.29304,2.99859 13.63476,-10.26576 c -3.1397,-4.21566 -5.34454,-6.59689 -7.6023,-8.06091 m 16.29821,-25.39981 -13.6524,10.2834 38.99929,51.805027 13.63476,-10.30104 -38.98165,-51.787387 z m 40.44567,-30.47977 -15.36336,11.55338 39.03457,51.7874 13.14088,-9.93062 -15.18697,-20.17874 2.34595,-1.76388 c 12.52352,-9.45437 13.79351,-16.38641 4.78011,-28.36312 -9.08396,-12.04727 -17.67404,-11.44756 -28.75118,-3.10442 m 113.73471,105.162277 13.63476,-10.30103 -38.99929,-51.752127 -13.63476,10.2834 38.99929,51.769757 z m -56.7968,-22.98331 c 2.08138,-1.60513 4.49789,-1.46402 6.79092,1.62277 l 2.31068,3.03386 13.6524,-10.283387 c -3.15734,-4.19803 -5.34454,-6.63218 -7.61994,-8.06092 -7.21426,-4.72718 -15.85725,-2.5047 -23.19497,3.01623 -13.19379,9.912977 -12.45296,20.690257 2.25776,40.198737 15.36336,20.42568 22.754,24.81773 36.3182,14.56962 4.07456,-3.05151 6.29704,-6.52635 7.28481,-11.13006 l 4.05691,1.28763 6.98495,-5.29163 -21.67803,-28.75118 -17.09196,12.85866 7.30245,9.6484 3.42192,-2.57526 3.82761,5.13288 c 2.34595,3.08678 1.81679,5.4151 -0.29986,7.00259 -2.09901,1.60512 -4.49788,1.48165 -6.84384,-1.60513 L 644.6539,109.1708 c -2.3636,-3.08679 -1.8168,-5.43274 0.33513,-7.02023 m 71.87794,-69.567257 -15.34572,11.57102 39.01693,51.76976 13.15852,-9.94826 -15.23989,-20.1611 2.36359,-1.78152 c 12.52352,-9.43673 13.82879,-16.36876 4.78011,-28.34548 -9.04869,-12.04727 -17.63876,-11.44755 -28.73354,-3.10442 M 830.58404,137.72796 844.25408,127.4622 805.23715,75.692433 791.56711,85.958193 830.58404,137.72796 z M 773.7696,114.77993 c 2.11665,-1.60514 4.51553,-1.48166 6.84384,1.60513 l 2.2754,3.01623 13.67004,-10.26577 c -3.1397,-4.19803 -5.34454,-6.5969 -7.60231,-8.07855 -7.26716,-4.691907 -15.91016,-2.469427 -23.19496,3.01622 -13.19379,9.94826 -12.4706,20.70792 2.25776,40.25166 15.36336,20.3904 22.754,24.78246 36.33584,14.56961 4.03928,-3.08678 6.26176,-6.57925 7.26717,-11.18297 l 4.03927,1.26999 6.93204,-5.25635 -21.60748,-28.76881 -17.1096,12.85865 7.32009,9.66604 3.369,-2.57526 3.86289,5.13288 c 2.36359,3.08679 1.81679,5.43274 -0.3175,7.02023 -2.11665,1.58749 -4.48024,1.48165 -6.80856,-1.64041 l -17.83278,-23.65357 c -2.34596,-3.08678 -1.79916,-5.39746 0.29985,-6.98495 m 23.389,-127.351837 c 2.11665,-1.58749 4.51552,-1.46402 6.84384,1.6404 l 2.27539,3.0338705 13.68768,-10.3186705 c -3.15734,-4.16275 -5.34454,-6.56162 -7.61994,-8.04328 -7.24953,-4.72719 -15.91016,-2.48706 -23.19497,2.99859 -13.19379,9.94826 -12.48824,20.7079005 2.25776,40.25165 15.36336,20.40804 22.754,24.78245 36.3182,14.56961 4.05692,-3.06914 6.2794,-6.52634 7.28481,-11.14769 l 4.02164,1.26999 6.98495,-5.27399 -21.67804,-28.78646 -17.03904,12.85866047 7.23189,9.70131953 3.42192,-2.5752595 3.89817,5.1328795 c 2.34595,3.08678 1.74624,5.43273 -0.35278,7.02022 -2.11665,1.56985 -4.49788,1.46402 -6.80856,-1.6404 L 796.8411,-5.5516865 c -2.32832,-3.10442 -1.78152,-5.4150905 0.3175,-7.0202205 m -37.69403,29.79186 15.9278,-12.0119895 -8.04327,-10.68909 -29.5802,22.3130295 38.99929,51.78739 30.40922,-22.91275 -8.34313,-11.11241 -16.80974,12.61171 -7.56702,-10.07173 13.19379,-9.93062 -8.39605,-11.11242 -13.15852,9.91298 -6.63217,-8.7841 z m -91.10418,-42.38594 c 2.09901,-1.58748 4.49788,-1.48165 6.84383,1.60513 l 2.24013,3.03387 13.68767,-10.2834 c -3.1397,-4.16274 -5.34454,-6.59689 -7.61994,-8.04327 -7.23189,-4.70955 -15.87488,-2.5047 -23.21261,3.01623 -13.15851,9.91298 -12.43532,20.69026 2.29304,40.2516405 15.36336,20.3727695 22.754,24.7824595 36.30057,14.5519795 4.07455,-3.08679 6.29703,-6.56162 7.32008,-11.1476995 l 3.98636,1.25235 7.02023,-5.25635 -21.69568,-28.7864505 -17.07431,12.85866 7.26716,9.6660405 3.42192,-2.57526 3.84525,5.11523997 c 2.34596,3.12206003 1.81679,5.46801003 -0.29986,7.05550003 -2.08137,1.58749 -4.49788,1.44638 -6.84383,-1.62277 L 668.04289,-18.163397 c -2.32832,-3.08678 -1.79915,-5.43274 0.3175,-7.00259 m -37.74695,29.7742305 15.94544,-12.02963 -8.00799,-10.6714505 -29.59784,22.3306605 38.98165,51.7521195 30.40922,-22.89511 -8.37841,-11.09478 -16.75682,12.61172 -7.56702,-10.10701 13.15851,-9.91298 -8.34313,-11.1124195 -13.19379,9.9306195 -6.64982,-8.8017395 z m -149.78833,35.9830595 2.38123,-1.79915 c 12.52352,-9.4191 13.79351,-16.36877 4.76247,-28.32784 -9.06632,-12.0649095 -17.67404,-11.4828395 -28.73354,-3.1044295 l -15.381,11.5710295 39.03458,51.78739 13.14087,-9.93062 -15.20461,-20.19638 z m 14.90475,130.121127 30.42686,-22.94802 -8.37841,-11.09478 -16.73918,12.61171 -7.61995,-10.05409 13.17616,-9.94826 -8.37841,-11.09478 -13.17616,9.93062 -6.59689,-8.81938 15.94544,-12.012 -8.07856,-10.653807 -29.58019,22.295397 38.99929,51.78739 z m -38.25846,-2.78692 2.34595,-1.78152 c 12.52352,-9.45437 13.77587,-16.40404 4.74483,-28.38076 -9.06633,-12.01199 -17.67404,-11.44755 -28.68062,-3.10442 l -15.381,11.58867 38.99929,51.78739 13.17615,-9.93062 -15.2046,-20.17874 z m 427.22836,-11.90616 -13.15851,9.93062 -6.66745,-8.81938 15.96308,-11.99436 -8.04328,-10.68908 -29.61548,22.33066 39.01694,51.7874 30.39158,-22.93039 -8.36077,-11.13005 -16.75682,12.66462 -7.56703,-10.12464 13.14088,-9.91299 -8.34314,-11.11241 z"
         inkscape:connector-curvature="0" /><path
         id="path2994"
         style="fill:#000000"
         d="m 918.62086,-107.22324 -5.57385,0 0,-27.18133 -0.17639,0 -9.5602,27.18133 -4.53316,0 -9.1016,-27.18133 -0.15875,0 0,27.18133 -5.59149,0 0,-34.51905 8.8723,0 8.59007,25.66439 0.17639,0 8.37841,-25.66439 8.67827,0 0,34.51905 z m -38.66416,-34.51905 0,4.4626 -9.50729,0 0,30.05645 -5.57385,0 0,-30.05645 -9.48966,0 0,-4.4626 24.5708,0 z"
         inkscape:connector-curvature="0" /></g></g><path
     style="fill:#ffffff"
     inkscape:connector-curvature="0"
     id="path3192"
     d="m 126.872,59.573 h 167.75 c -18.741,96.225 -48.536,196.696 -50.243,305.68 h -68.975 c 4.261,-83.44 22.571,-166.038 42.578,-246.929 h -91.11 V 59.573 z"
     clip-path="url(#SVGID_2_-1)"
     transform="translate(2.1115,6.6245284)" /></g></svg>