<?xml version="1.0" encoding="UTF-8" standalone="no"?>
<!-- Generator: Adobe Illustrator 15.0.0, SVG Export Plug-In . SVG Version: 6.00 Build 0)  -->

<svg
   xmlns:dc="http://purl.org/dc/elements/1.1/"
   xmlns:cc="http://creativecommons.org/ns#"
   xmlns:rdf="http://www.w3.org/1999/02/22-rdf-syntax-ns#"
   xmlns:svg="http://www.w3.org/2000/svg"
   xmlns="http://www.w3.org/2000/svg"
   xmlns:xlink="http://www.w3.org/1999/xlink"
   xmlns:sodipodi="http://sodipodi.sourceforge.net/DTD/sodipodi-0.dtd"
   xmlns:inkscape="http://www.inkscape.org/namespaces/inkscape"
   version="1.1"
   id="Ebene_1"
   x="0px"
   y="0px"
   width="426.086px"
   height="519.378px"
   viewBox="0 0 426.086 519.378"
   enable-background="new 0 0 426.086 519.378"
   xml:space="preserve"
   inkscape:version="0.48.4 r9939"
   sodipodi:docname="PEGI_12[1].svg"><metadata
   id="metadata3687"><rdf:RDF><cc:Work
       rdf:about=""><dc:format>image/svg+xml</dc:format><dc:type
         rdf:resource="http://purl.org/dc/dcmitype/StillImage" /><dc:title></dc:title></cc:Work></rdf:RDF></metadata><defs
   id="defs3685" /><sodipodi:namedview
   pagecolor="#ffffff"
   bordercolor="#666666"
   borderopacity="1"
   objecttolerance="10"
   gridtolerance="10"
   guidetolerance="10"
   inkscape:pageopacity="0"
   inkscape:pageshadow="2"
   inkscape:window-width="1213"
   inkscape:window-height="778"
   id="namedview3683"
   showgrid="false"
   inkscape:zoom="0.90877936"
   inkscape:cx="316.07365"
   inkscape:cy="314.94847"
   inkscape:window-x="59"
   inkscape:window-y="-8"
   inkscape:window-maximized="1"
   inkscape:current-layer="Ebene_1" />

<g
   id="g3749"><g
     id="g3639">
	<defs
   id="defs3641">
		<rect
   height="536.125"
   width="426.086"
   y="-3.624"
   id="SVGID_1_" />
	</defs>
	<clipPath
   id="SVGID_2_">
		<use
   id="use3645"
   overflow="visible"
   xlink:href="#SVGID_1_" />
	</clipPath>
	
	
	
	<path
   id="path3653"
   d="M0.01,519.378h425.712V0H0.01 M417.209,417.194H8.518V8.508h408.691V417.194z"
   clip-path="url(#SVGID_2_)" />
	
	<polygon
   fill="#FFFFFF"
   id="polygon3657"
   points="27.039,487.455 34.268,487.455 40.901,455.167 41.05,455.167    47.981,487.455 54.764,487.455 64.12,447.929 57.64,447.929 51.523,480.245 51.365,480.245 44.808,447.929 37.518,447.929    30.802,480.245 30.653,480.245 24.312,447.929 17.822,447.929  "
   clip-path="url(#SVGID_2_)" />
	<polygon
   fill="#FFFFFF"
   id="polygon3659"
   points="74.838,487.455 82.062,487.455 88.7,455.167 88.858,455.167    95.79,487.455 102.553,487.455 111.929,447.929 105.438,447.929 99.322,480.245 99.164,480.245 92.597,447.929 85.302,447.929    78.601,480.245 78.452,480.245 72.111,447.929 65.621,447.929  "
   clip-path="url(#SVGID_2_)" />
	<polygon
   fill="#FFFFFF"
   id="polygon3661"
   points="122.632,487.455 129.855,487.455 136.494,455.167 136.643,455.167    143.579,487.455 150.356,487.455 159.718,447.929 153.242,447.929 147.116,480.245 146.968,480.245 140.401,447.929    133.105,447.929 126.39,480.245 126.246,480.245 119.905,447.929 113.405,447.929  "
   clip-path="url(#SVGID_2_)" />
	<rect
   fill="#FFFFFF"
   id="rect3663"
   height="7.804"
   width="6.773"
   clip-path="url(#SVGID_2_)"
   y="479.651"
   x="163.212" />
	<path
   fill="#FFFFFF"
   fill-rule="evenodd"
   id="path3665"
   d="M185.328,467.706   c0-9.012,1.107-15.492,7.972-15.492c5.752,0,7.223,6.06,7.223,14.744c0,10.182-1.471,16.221-7.223,16.221   C186.661,483.179,185.328,475.366,185.328,467.706 M179.504,500.435h6.184v-17.467h0.158c1.404,3.385,4.721,5.522,8.259,5.522   c10.248,0,12.908-12.539,12.908-21.532c0-11.715-3.538-20.055-12.908-20.055c-4.28,0-7.736,2.962-8.551,5.905h-0.148v-4.88h-5.901   V500.435z"
   clip-rule="evenodd"
   clip-path="url(#SVGID_2_)" />
	<path
   fill="#FFFFFF"
   fill-rule="evenodd"
   id="path3667"
   d="M219.04,463.564v-1.476   c0-2.34,0.733-10.315,7.223-10.315c5.465,0,6.864,5.225,6.864,9.653v2.138H219.04z M239.607,468.435v-2.502   c0-8.484-1.111-19.029-13.195-19.029c-12.166,0-14.088,11.428-14.088,21.32c0,13.565,4.055,20.267,13.724,20.267   c10.761,0,13.263-9.808,13.263-14.006h-6.184c0,2.942-0.824,9.146-6.715,9.146c-7.588,0-7.588-9.146-7.588-15.195H239.607z"
   clip-rule="evenodd"
   clip-path="url(#SVGID_2_)" />
	<path
   fill="#FFFFFF"
   fill-rule="evenodd"
   id="path3669"
   d="M258.628,452.214   c6.644,0,7.966,7.813,7.966,15.492c0,8.092-1.322,14.447-8.043,14.447c-6.174,0-7.142-8.043-7.142-14.447   C251.409,458.273,252.876,452.214,258.628,452.214 M272.413,447.929h-5.886v5.033h-0.154c-0.805-3.105-4.275-6.059-8.551-6.059   c-10.027,0-12.894,10.104-12.894,20.803c0,5.234,0.729,19.749,12.232,19.749c3.901,0,7.583-1.994,8.925-5.302h0.153v5.167   c0,2.723,0.288,8.839-7.688,8.839c-3.24,0-6.039-1.399-6.327-5.004h-6.193c1.017,9.874,10.546,9.874,12.962,9.874   c7.966,0,13.421-4.275,13.421-16.077V447.929z"
   clip-rule="evenodd"
   clip-path="url(#SVGID_2_)" />
	<path
   fill="#FFFFFF"
   fill-rule="evenodd"
   id="path3671"
   d="M280.926,487.455h6.184v-39.517   h-6.184V487.455z M280.926,441.899h6.184v-7.095h-6.184V441.899z"
   clip-rule="evenodd"
   clip-path="url(#SVGID_2_)" />
	<rect
   fill="#FFFFFF"
   id="rect3673"
   height="7.804"
   width="6.787"
   clip-path="url(#SVGID_2_)"
   y="479.651"
   x="296.974" />
	<path
   fill="#FFFFFF"
   fill-rule="evenodd"
   id="path3675"
   d="M313.654,487.455h6.203v-39.517   h-6.203V487.455z M313.654,441.899h6.203v-7.095h-6.203V441.899z"
   clip-rule="evenodd"
   clip-path="url(#SVGID_2_)" />
	<path
   fill="#FFFFFF"
   id="path3677"
   d="M328.322,487.455h6.174v-27.274c0-5.752,4.515-7.967,7.842-7.967   c5.589,0,5.81,4.947,5.81,7.967v27.274h6.192v-28.022c0-4.63,0-12.529-10.392-12.529c-3.825,0-7.957,2.07-9.577,5.694h-0.163   v-4.669h-5.886V487.455z"
   clip-path="url(#SVGID_2_)" />
	<path
   fill="#FFFFFF"
   id="path3679"
   d="M364.311,487.455h6.212v-34.646h6.768v-4.88h-6.768v-4.63   c0-2.732,1.323-3.758,3.979-3.758h2.866v-5.312h-4.496c-5.973,0-8.561,3.097-8.561,9.069v4.63h-5.743v4.88h5.743V487.455z"
   clip-path="url(#SVGID_2_)" />
	<path
   fill="#FFFFFF"
   fill-rule="evenodd"
   id="path3681"
   d="M379.64,467.706   c0,11.121,2.818,20.784,14.235,20.784c11.36,0,14.227-9.663,14.227-20.784c0-11.149-2.799-20.803-14.227-20.803   C382.534,446.903,379.64,456.557,379.64,467.706 M393.722,483.64c-6.337,0-7.573-7.401-7.573-15.934   c0-8.57,1.323-15.933,7.573-15.933c6.644,0,7.909,7.362,7.909,15.933C401.631,476.238,400.298,483.64,393.722,483.64"
   clip-rule="evenodd"
   clip-path="url(#SVGID_2_)" />
</g><g
     id="g3709"
     transform="matrix(0.71007853,0,0,0.70890295,0.03699893,0.58972989)"><path
       style="fill:#fca100"
       d="m 587.98795,587.98839 -575.993639,0 0,-575.993642 575.993639,0 0,575.993642 z"
       id="path3693"
       inkscape:connector-curvature="0" /><path
       d="m 237.77222,325.2834 c 4.35677,5.76787 2.99859,8.008 -1.4111,11.34172 l -9.45437,-12.55879 c 5.15051,-3.86289 7.17897,-3.72178 10.86547,1.21707 m 234.22507,152.52234 c 4.39205,5.76787 2.98095,8.04327 -1.37583,11.34172 l -9.47201,-12.54116 c 5.16816,-3.86288 7.19661,-3.6865 10.84784,1.19944 M 261.14357,197.96684 c 4.37442,5.76788 2.99859,8.04328 -1.39346,11.34173 l -9.43673,-12.52352 c 5.11524,-3.88053 7.14369,-3.70414 10.83019,1.18179 M 155.71672,58.038578 c 4.33913,5.767873 2.99859,8.025634 -1.37583,11.324082 l -9.45437,-12.523518 c 5.0976,-3.880527 7.1437,-3.704139 10.8302,1.199436 M 85.567377,439.9706 c 4.339135,5.78552 2.998589,8.02564 -1.393462,11.35936 l -9.472013,-12.55879 c 5.132879,-3.86289 7.161336,-3.72178 10.865475,1.19943 M 284.53257,70.632651 c 4.33913,5.767874 2.99859,8.060912 -1.4111,11.35936 l -9.4191,-12.558796 c 5.11524,-3.845249 7.1437,-3.6865 10.8302,1.199436 m 58.68415,394.561379 c 4.33913,5.76787 2.94567,8.04327 -1.42874,11.35936 l -9.45438,-12.5588 c 5.11524,-3.84525 7.16134,-3.70414 10.88312,1.19944 m 23.38899,-127.29892 c 4.32149,5.75024 2.99859,8.02564 -1.42874,11.32408 l -9.43674,-12.54115 c 5.15052,-3.86289 7.1437,-3.70414 10.86548,1.21707 M 518.81055,223.19027 c 4.33914,5.76787 2.98095,8.04327 -1.4111,11.34172 l -9.43673,-12.5588 c 5.13287,-3.84524 7.14369,-3.6865 10.84783,1.21708 M 413.36606,83.262001 c 4.33913,5.767874 2.99858,8.025635 -1.39347,11.324083 l -9.43673,-12.541157 c 5.11524,-3.845249 7.1437,-3.6865 10.8302,1.217074 m -23.389,127.316559 c 4.33914,5.76787 2.99859,8.02563 -1.39346,11.34172 l -9.43673,-12.54116 c 5.07996,-3.86289 7.14369,-3.70414 10.83019,1.19944 M 542.19954,95.873713 c 4.33914,5.750237 2.99859,8.025637 -1.37582,11.324087 l -9.50729,-12.541161 c 5.16816,-3.862888 7.19661,-3.6865 10.88311,1.217074 M 108.95637,312.65405 c 4.33913,5.76787 2.99859,8.02563 -1.37582,11.35936 l -9.454377,-12.57644 c 5.115237,-3.84524 7.143697,-3.66886 10.830197,1.21708 m 105.42686,139.94591 c 4.33913,5.75023 2.99859,7.99035 -1.39346,11.32408 l -9.43674,-12.5588 c 5.11524,-3.84525 7.1437,-3.6865 10.8302,1.23472 M 495.38628,350.48919 c 4.39205,5.76787 3.01623,8.04327 -1.37582,11.35936 l -9.43674,-12.5588 c 5.0976,-3.86289 7.12606,-3.6865 10.81256,1.19944 M 16.053032,44.22743 25.507406,56.768587 C 29.899457,53.4525 31.240003,51.194739 26.900868,45.444504 23.196729,40.523291 21.185911,40.364542 16.053032,44.22743 m 116.274688,141.1277 c 4.37442,5.76788 2.99859,8.04328 -1.39346,11.35936 l -9.45437,-12.55879 c 5.11524,-3.84525 7.1437,-3.72178 10.84783,1.19943 m 451.34054,-173.353711 -15.94543,0 5.78551,7.67286 10.15992,-7.67286 z m -292.90921,1.358185 -1.02305,-1.358185 -21.39581,0 8.73118,11.659219 13.68768,-10.301034 z m 52.58114,29.474364 c 15.39863,20.408043 22.77163,24.782455 36.33584,14.551975 4.05691,-3.051505 6.26176,-6.52634 7.30244,-11.147695 l 3.98636,1.28763 7.00259,-5.25635 -21.67803,-28.786453 -17.09196,12.858654 7.28481,9.683679 3.42192,-2.592898 3.84525,5.132879 c 2.34595,3.104421 1.81679,5.432737 -0.29986,7.020225 -2.11665,1.56985 -4.49789,1.464017 -6.84384,-1.622765 L 348.82584,20.309274 c -2.34595,-3.086782 -1.81679,-5.432737 0.26458,-7.020226 2.11665,-1.587488 4.53316,-1.499294 6.87912,1.622766 l 2.2754,3.033867 7.86688,-5.944262 -32.96684,0 c -3.42191,7.81397 -0.12347,17.162512 10.19521,30.832549 m 76.25235,-16.862653 -10.54798,-13.969896 -21.41345,0 18.27375,24.270931 13.68768,-10.301035 z m 52.59877,29.492004 c 15.34572,20.372765 22.73636,24.782455 36.30057,14.534336 4.07455,-3.069143 6.31467,-6.543979 7.32008,-11.130056 l 3.98636,1.269991 7.00259,-5.273989 -21.67803,-28.751175 -17.05668,12.841015 7.24953,9.683679 3.40428,-2.592898 3.84525,5.11524 c 2.36359,3.12206 1.83443,5.432737 -0.29986,7.037864 -2.11665,1.587489 -4.49789,1.464017 -6.8262,-1.640404 L 477.60641,32.920986 c -2.32831,-3.104421 -1.78151,-5.432737 0.35278,-7.020226 2.11665,-1.605127 4.49788,-1.481655 6.8262,1.605127 l 2.25776,3.033867 13.68767,-10.283396 c -3.17497,-4.162747 -5.34454,-6.596896 -7.65522,-8.043274 -0.14111,-0.105832 -0.29986,-0.105832 -0.44097,-0.211665 l -17.46237,0 c -1.78151,0.899577 -3.5983,1.957902 -5.27398,3.245532 -13.15852,9.895343 -12.47061,20.672624 2.29303,40.216368 m 76.19944,-16.880292 -20.01999,-26.581608 -21.39582,0 27.76341,36.882643 13.6524,-10.301035 z M 71.068318,69.22155 101.4599,46.291165 93.134404,35.231663 76.359946,47.843375 68.757641,37.736367 81.933793,27.805746 73.555383,16.693329 60.39687,26.641588 l -6.632173,-8.784101 7.743414,-5.856068 -22.207196,0 -7.231891,5.468015 38.999294,51.752116 z M 199.90181,81.833262 230.29339,58.920515 221.91498,47.825737 205.1758,60.437449 197.55585,50.348079 210.732,40.417458 202.35359,29.32268 l -13.14087,9.912982 -6.63217,-8.784102 15.92779,-12.011994 -4.81538,-6.438147 -8.85465,0 -23.97107,18.062088 39.03457,51.769755 z m 50.94073,-37.023753 c 4.07455,-3.086783 6.31468,-6.543979 7.30245,-11.165334 l 4.00399,1.269991 6.98495,-5.273989 -13.26434,-17.638758 -23.15969,0 -2.29304,1.763876 7.24953,9.630762 3.42192,-2.55762 3.88052,5.132878 c 2.31068,3.069144 1.76388,5.415099 -0.35277,7.020226 -2.11665,1.587488 -4.49789,1.464017 -6.84384,-1.658043 l -14.53434,-19.332079 -19.19097,0 c 1.65805,5.168156 5.11524,11.112418 10.45979,18.238476 15.39863,20.372765 22.77163,24.782455 36.33584,14.569614 M 122.02669,32.180158 c 4.07455,-3.069144 6.29704,-6.561618 7.30245,-11.130056 l 3.98636,1.234713 6.98494,-5.25635 -3.75705,-5.027046 -21.39582,0 0.98777,1.322907 c 2.31068,3.12206 1.78152,5.450376 -0.33513,7.037864 -2.11665,1.587489 -4.49788,1.481656 -6.84384,-1.622765 l -5.06232,-6.738006 -22.119006,0 c 1.199436,1.816792 2.451788,3.633584 3.933443,5.626764 15.380993,20.390404 22.754003,24.782455 36.318203,14.551975 m 417.77398,480.162272 39.05221,51.76975 9.13688,-6.94967 0,-9.31326 -34.50141,-45.80786 -13.68768,10.30104 z m -35.6832,57.41416 -13.17616,9.93062 -6.61453,-8.81938 15.91016,-11.97672 -8.02564,-10.67145 -29.59783,22.29539 13.19379,17.49765 27.18133,0 9.50729,-7.16134 -8.37841,-11.09477 z m 55.75611,4.32149 4.02164,1.25235 6.98494,-5.23871 -21.64275,-28.76881 -17.09196,12.87629 7.23189,9.6484 3.43956,-2.5929 3.88053,5.13288 c 2.34595,3.08679 1.76387,5.4151 -0.35278,7.02023 -2.09901,1.58749 -4.49788,1.46402 -6.79092,-1.62277 l -17.83278,-23.65357 c -2.34596,-3.10442 -1.8168,-5.43274 0.29986,-7.02023 2.09901,-1.58749 4.49788,-1.46401 6.84383,1.64041 l 2.2754,3.03386 13.6524,-10.30103 c -3.1397,-4.18039 -5.30926,-6.61454 -7.58466,-8.06091 -7.26717,-4.70955 -15.91016,-2.48707 -23.21261,3.03386 -13.19379,9.91299 -12.48824,20.65499 2.25776,40.19873 6.57926,8.73119 11.6945,14.37559 16.45696,17.35654 l 15.57503,0 c 1.4111,-0.7761 2.8222,-1.65804 4.32149,-2.80456 4.02164,-3.03387 6.26176,-6.52634 7.26717,-11.13006 m -118.1444,12.13547 -2.39887,1.79915 29.98589,0 c -8.66063,-10.5127 -17.00377,-9.75423 -27.58702,-1.79915 m -137.63523,-5.92663 -10.30103,7.72578 41.75094,0 c -0.8643,-1.53457 -1.44638,-2.92803 -2.71637,-4.62135 -9.08396,-12.04728 -17.67404,-11.4652 -28.73354,-3.10443 m 57.57291,4.53317 13.15851,-9.94826 -8.34313,-11.09478 -13.15852,9.93062 -6.66745,-8.7841 15.96308,-12.012 -8.04327,-10.68909 -29.61548,22.33067 17.67404,23.45955 21.43109,0 -2.39887,-3.19261 z M 204.01164,570.77963 c -9.06632,-12.04727 -17.67404,-11.44755 -28.73354,-3.12206 l -15.36336,11.58867 6.57926,8.76646 20.65498,0 -7.00258,-9.31326 c 5.11524,-3.88053 7.16133,-3.70414 10.84783,1.19943 2.87512,3.80997 3.06915,6.0501 1.74624,8.11383 l 15.9278,0 c 1.86971,-5.02705 0.56444,-10.2834 -4.65663,-17.23307 m 53.16321,-1.11124 -16.73918,12.61171 -7.56702,-10.07173 13.12323,-9.93062 -8.32549,-11.07714 -13.17615,9.91298 -6.63218,-8.80174 15.9278,-12.02963 -8.04327,-10.65381 -29.61548,22.31303 27.19897,36.07126 32.64934,0 9.59548,-7.23189 -8.39605,-11.11242 z m 121.26647,18.34431 11.90616,0 -4.33914,-5.7326 -7.56702,5.7326 z m 200.12934,-104.88005 9.4191,12.48824 0,-19.59666 -9.4191,7.10842 z m -24.20037,-91.4746 33.61947,44.60842 0,-28.41604 -19.9318,-26.49342 -13.68767,10.30104 z m 15.71613,-85.42451 7.26717,9.6484 3.42192,-2.5929 3.86289,5.13288 c 2.34595,3.10442 1.78151,5.43274 -0.35278,7.02023 -2.09901,1.58749 -4.4626,1.46402 -6.80856,-1.64041 l -17.79751,-23.63593 c -2.34595,-3.10442 -1.79915,-5.4151 0.29986,-7.02023 2.11665,-1.58749 4.51552,-1.48165 6.84384,1.60513 l 2.25776,3.06914 13.68768,-10.31867 c -3.1397,-4.16275 -5.34455,-6.57926 -7.61995,-8.04327 -7.23189,-4.70955 -15.89252,-2.50471 -23.19496,3.03386 -13.17615,9.91299 -12.45297,20.67263 2.2754,40.19873 14.34031,19.04986 21.81914,23.97107 33.76058,16.21002 l 0,-44.43203 -0.84666,-1.11124 -17.05668,12.87629 z m 5.23871,-151.0936 c -13.15851,9.94826 -12.45296,20.7079 2.29304,40.23401 3.88053,5.20343 7.26717,9.31326 10.37159,12.4706 l 0,-28.43368 -4.92121,-6.54398 c -2.34596,-3.10442 -1.79916,-5.43274 0.31749,-7.02022 1.44638,-1.09361 3.03387,-1.30527 4.60372,-0.37042 l 0,-15.66321 c -4.30386,0.47624 -8.66063,2.32831 -12.66463,5.3269 m -6.26176,-86.853244 15.9278,-12.011994 -8.06091,-10.689088 -29.54492,22.313029 38.99929,51.752117 1.60513,-1.21708 0,-25.011754 -3.95108,-5.238711 3.95108,-2.98095 0,-17.409454 -12.32949,9.277986 -6.5969,-8.784101 z m 18.92639,209.636634 0,-21.28998 -10.21284,7.70814 10.21284,13.58184 z m -19.70249,-52.33419 -7.61995,-10.08937 13.14088,-9.93062 -8.34313,-11.09478 -13.15852,9.91298 -6.61453,-8.7841 15.91016,-11.99435 -8.04328,-10.67145 -29.56255,22.29539 38.99929,51.75211 24.99412,-18.85583 0,-11.18297 -2.99859,-3.98636 -16.7039,12.62935 z m -516.974361,340.48095 9.454374,12.55879 c 4.392051,-3.33372 5.767874,-5.57385 1.411101,-11.32408 -3.6865,-4.92121 -5.732596,-5.07996 -10.865475,-1.23471 m -39.316791,-368.86171 0,26.24647 12.611712,-9.52493 -12.611712,-16.72154 z m 10.918391,63.25258 -8.025635,-10.67144 -2.892756,2.16956 0,16.70391 10.918391,-8.20203 z m -6.385231,-96.85442 c -1.516933,-2.02845 -3.016227,-3.54539 -4.53316,-4.88593 l 0,33.01975 c 12.223659,-9.31326 13.476011,-16.26293 4.53316,-28.13382 m 6.420508,253.53951 -10.953668,8.25494 0,17.39182 19.332078,-14.56962 -8.37841,-11.07714 z m 31.749765,-116.22177 -8.360772,-11.09478 -16.739181,12.61171 -7.602305,-10.07173 13.176153,-9.94826 -8.37841,-11.09478 -13.176153,9.93062 -1.622765,-2.15193 0,28.41604 12.294214,16.33349 30.409219,-22.93038 z m -2.822202,113.20554 c 4.056915,-3.06914 6.26176,-6.56161 7.284807,-11.14769 l 4.021637,1.26999 6.984948,-5.29163 -21.678033,-28.75117 -17.091957,12.87629 7.284807,9.6484 3.42192,-2.57526 3.862888,5.13288 c 2.328316,3.08678 1.781514,5.43274 -0.317498,7.03786 -2.13429,1.58749 -4.515522,1.44638 -6.826199,-1.65804 L 20.991884,377.01788 c -2.328316,-3.08679 -1.799153,-5.43274 0.317498,-7.02023 2.116651,-1.60513 4.497883,-1.44638 6.843838,1.64041 l 2.2754,3.01622 13.652398,-10.26575 c -3.157337,-4.21567 -5.344543,-6.5969 -7.584666,-8.07855 -7.267168,-4.69191 -15.910159,-2.48707 -23.230244,3.01622 -0.493885,0.37042 -0.811383,0.75847 -1.26999,1.11124 l 0,34.09572 c 1.111241,1.62277 2.204844,3.24554 3.54539,5.00941 15.380997,20.44332 22.753998,24.81773 36.335841,14.58725 m 26.211195,-240.50446 -8.360771,-11.09478 -16.756821,12.62935 -7.584666,-10.10701 13.158514,-9.94826 -8.360771,-11.07714 -13.176153,9.91298 -6.632173,-8.80174 15.927799,-12.01199 -8.043274,-10.65381 -26.26411,19.80833 0,6.91439 35.700846,47.34243 30.39158,-22.91275 z M 34.838309,96.526347 11.996118,66.222961 l 0,-33.548917 c 10.653809,-7.778693 19.067497,-8.113829 27.904515,3.615945 9.013405,11.976717 7.761053,18.926387 -4.744826,28.363123 l -2.381232,1.781514 15.222248,20.17874 -13.158514,9.912981 z M 20.692025,491.68744 c -3.139699,-4.19802 -5.326905,-6.61453 -7.602304,-8.07855 -0.352776,-0.2293 -0.740828,-0.24694 -1.093603,-0.44097 l 0,15.0635 8.695907,-6.54398 z m 107.666975,65.38688 -16.7039,12.59407 -7.6023,-10.07173 13.17615,-9.93062 -8.37841,-11.11242 -13.176154,9.93062 -6.649812,-8.76646 15.945436,-12.02963 -8.025634,-10.67145 -29.597836,22.29539 36.67098,48.70061 6.40287,0 26.31702,-19.86124 -8.37841,-11.07714 z m -57.943316,29.42145 -1.975541,1.51693 -21.237064,0 -16.104186,-21.37817 15.363358,-11.58867 c 11.059501,-8.34313 19.649576,-8.90757 28.715898,3.10442 9.048683,11.97672 7.761053,18.90875 -4.762465,28.34549 M 28.488356,541.42874 c 4.074553,-3.06914 6.279398,-6.56162 7.284807,-11.14769 l 4.021637,1.26999 6.96731,-5.27399 -21.660395,-28.75118 -13.105597,9.86007 0,8.27258 3.316086,4.37441 3.40428,-2.55762 3.84525,5.11524 c 2.345954,3.08678 1.799153,5.43273 -0.299859,7.02022 -2.116651,1.58749 -4.497884,1.48166 -6.843838,-1.62276 l -3.421919,-4.53316 0,22.4365 c 5.115239,1.78151 10.124647,0.33513 16.492238,-4.46261 m 549.941194,-86.71213 7.03787,-5.29163 -21.67804,-28.76882 -17.09195,12.85866 7.2848,9.70132 3.42192,-2.61054 3.84525,5.11524 c 2.34596,3.1397 1.8168,5.43274 -0.29986,7.02023 -2.11665,1.58748 -4.49788,1.48165 -6.84383,-1.62277 l -17.83279,-23.65357 c -2.34595,-3.08679 -1.81679,-5.4151 0.3175,-7.02023 2.11665,-1.56985 4.48024,-1.46402 6.84384,1.62277 l 2.25776,3.0515 13.68767,-10.31867 c -3.15733,-4.16275 -5.34454,-6.57926 -7.61994,-8.06092 -7.26717,-4.70954 -15.91016,-2.48706 -23.19497,3.03387 -13.17615,9.94826 -12.45296,20.69026 2.2754,40.25165 15.34572,20.37276 22.71872,24.74717 36.30057,14.53433 4.09219,-3.06914 6.29703,-6.54398 7.28481,-11.14769 l 4.00399,1.30527 z m -31.85559,23.97107 -8.34314,-11.09478 -16.75682,12.61171 -7.58466,-10.08937 13.17615,-9.93062 -8.37841,-11.07714 -13.19379,9.89534 -6.64981,-8.76646 15.96307,-12.01199 -8.02563,-10.68909 -29.59784,22.31303 38.9993,51.76975 30.39158,-22.93038 z m -53.49836,40.28692 -15.16933,-20.1611 2.34596,-1.78151 c 12.52351,-9.4191 13.81114,-16.36877 4.76246,-28.32785 -9.04868,-12.04727 -17.67403,-11.44755 -28.73354,-3.12206 l -15.32808,11.55339 38.9993,51.78739 13.12323,-9.94826 z m -38.25846,28.85701 -38.9993,-51.76976 -13.63476,10.30104 38.9993,51.76975 13.63476,-10.30103 z m -21.60748,16.29821 -21.64276,-28.78645 -17.09195,12.87629 7.2848,9.6484 3.42192,-2.55762 3.84525,5.11524 c 2.34596,3.06915 1.79915,5.43274 -0.29986,7.02023 -2.11665,1.60513 -4.49788,1.46402 -6.84384,-1.62277 l -17.83278,-23.65357 c -2.31068,-3.10442 -1.76388,-5.4151 0.35278,-7.02023 2.08137,-1.56985 4.49788,-1.46401 6.84383,1.62277 l 2.25776,3.03386 13.61713,-10.30103 c -3.1397,-4.18039 -5.30927,-6.57926 -7.58467,-8.06091 -7.21425,-4.70955 -15.87488,-2.48707 -23.21261,3.03386 -13.15851,9.93062 -12.43532,20.69027 2.25777,40.23401 15.41627,20.39041 22.80691,24.76482 36.35348,14.55198 4.07455,-3.06915 6.26175,-6.57926 7.30244,-11.16534 l 3.98636,1.26999 6.98495,-5.23871 z m -45.86077,-75.14111 30.44449,-22.8951 -8.39604,-11.11242 -16.72155,12.62935 -7.61994,-10.10701 13.15851,-9.93062 -8.36077,-11.0595 -13.17615,9.89534 -6.5969,-8.80174 15.9278,-12.02963 -8.06091,-10.65381 -29.59784,22.31303 38.9993,51.75211 z m -23.03622,17.39182 -15.25753,-20.19638 2.38124,-1.76388 c 12.52351,-9.43673 13.79351,-16.3864 4.76246,-28.32784 -9.06632,-12.04727 -17.67403,-11.46519 -28.73354,-3.1397 l -15.38099,11.58866 39.05221,51.76976 13.17615,-9.93062 z m -38.2761,28.85701 -39.03458,-51.76976 -13.6524,10.26576 38.9993,51.78739 13.68768,-10.28339 z m -21.62512,16.28057 -21.69567,-28.78645 -17.03904,12.85865 7.24952,9.66604 3.42192,-2.55762 3.84525,5.11524 c 2.34596,3.08678 1.79916,5.45038 -0.29986,7.02023 -2.11665,1.60512 -4.49788,1.44637 -6.84383,-1.64041 l -17.81515,-23.63593 c -2.32832,-3.10443 -1.78151,-5.4151 0.3175,-7.00259 2.13429,-1.60513 4.51552,-1.48166 6.84384,1.62277 l 2.2754,2.99858 13.68767,-10.26575 c -3.19261,-4.18039 -5.37982,-6.5969 -7.61994,-8.07855 -7.24953,-4.69191 -15.91016,-2.46943 -23.24788,3.01622 -13.12324,9.9659 -12.43533,20.70791 2.2754,40.25165 15.36335,20.37276 22.78927,24.78245 36.33584,14.56961 4.09219,-3.08678 6.27939,-6.57925 7.26717,-11.14769 l 4.03927,1.23471 7.00259,-5.23871 z m -45.84313,-75.14111 30.39158,-22.93038 -8.36078,-11.07714 -16.75682,12.61171 -7.58466,-10.07173 13.14087,-9.94826 -8.32549,-11.11242 -13.17615,9.93062 -6.64981,-8.76646 15.92779,-12.02964 -8.06091,-10.65381 -29.5802,22.2954 39.03458,51.75211 z m -23.08914,17.39182 -15.22225,-20.17874 2.34596,-1.78152 c 12.52352,-9.43673 13.79351,-16.3864 4.81538,-28.34548 -9.11924,-12.02963 -17.67404,-11.44756 -28.73354,-3.12206 l -15.38099,11.6063 38.99929,51.76976 13.17615,-9.94826 z m -38.25846,28.83937 -38.9993,-51.76976 -13.68767,10.30104 38.99929,51.76975 13.68768,-10.30103 z m -21.60748,16.28057 -21.69568,-28.75118 -17.07431,12.85866 7.26717,9.63076 3.42191,-2.55762 3.88053,5.13288 c 2.31068,3.08678 1.76388,5.43274 -0.33514,7.02022 -2.11665,1.58749 -4.49788,1.46402 -6.84383,-1.6404 l -17.79751,-23.63594 c -2.32832,-3.10442 -1.79915,-5.41509 0.3175,-7.02022 2.09901,-1.58749 4.48024,-1.48166 6.8262,1.62276 l 2.2754,3.03387 13.67003,-10.30103 c -3.1397,-4.18039 -5.3269,-6.57926 -7.6023,-8.06092 -7.26717,-4.70954 -15.89252,-2.48706 -23.24788,3.03387 -13.12324,9.93062 -12.40005,20.69026 2.31067,40.21637 15.36336,20.40804 22.73636,24.80009 36.30057,14.56961 4.07455,-3.08678 6.29703,-6.54398 7.30244,-11.14769 l 3.98636,1.25235 7.03787,-5.25635 z m -45.86077,-75.10583 30.37394,-22.93039 -8.36077,-11.07714 -16.75682,12.59408 -7.60231,-10.08937 13.17615,-9.93062 -8.37841,-11.09478 -13.14087,9.93062 -6.64981,-8.80174 15.94543,-11.99436 -8.02563,-10.67145 -29.615475,22.27775 39.034575,51.7874 z m -23.08914,17.37417 -15.222246,-20.1611 2.345954,-1.79915 c 12.523522,-9.45437 13.793512,-16.36877 4.762465,-28.34548 -9.066322,-12.02964 -17.656397,-11.44756 -28.715898,-3.10442 l -15.363358,11.57102 39.016933,51.76976 13.17615,-9.93063 z m -38.258464,28.85701 -39.016933,-51.76975 -13.670037,10.28339 38.999293,51.76976 13.687677,-10.2834 z M 78.106183,392.98095 91.793859,382.69756 52.759287,330.9278 39.106889,341.22884 78.106183,392.98095 z M 75.248704,286.79563 c 4.074553,-3.05151 6.297036,-6.52634 7.284807,-11.13006 l 4.039275,1.26999 6.984949,-5.27398 -21.678034,-28.76882 -17.091956,12.87629 7.284807,9.64841 3.40428,-2.55762 3.880527,5.11524 c 2.328316,3.10442 1.781514,5.41509 -0.317498,7.00258 -2.116651,1.58749 -4.497883,1.48166 -6.843838,-1.62276 L 44.398516,249.70132 c -2.345955,-3.10442 -1.816792,-5.4151 0.299859,-7.02022 2.099012,-1.58749 4.497883,-1.48166 6.826199,1.65804 l 2.293039,3.01623 13.652399,-10.30104 c -3.139699,-4.16274 -5.362183,-6.57925 -7.602305,-8.04327 -7.231891,-4.70955 -15.91016,-2.5047 -23.230244,3.01623 -13.140875,9.91298 -12.435325,20.69026 2.275399,40.21636 15.380997,20.40805 22.753998,24.8001 36.335842,14.55198 m -12.735183,-72.88335 38.999289,51.76976 13.63476,-10.2834 -38.99929,-51.78739 -13.634759,10.30103 z m 36.159453,-54.43321 c 4.021636,-3.0515 6.261756,-6.54397 7.249526,-11.13005 l 4.03928,1.25235 6.98495,-5.25635 -21.695675,-28.78645 -17.056679,12.89393 7.24953,9.63076 3.421919,-2.55762 3.880527,5.13288 c 2.345955,3.08678 1.799153,5.43274 -0.317498,7.02023 -2.13429,1.58748 -4.515522,1.44637 -6.861477,-1.64041 L 67.76987,122.38477 c -2.345954,-3.08679 -1.781514,-5.4151 0.317498,-7.00259 2.116651,-1.60513 4.497883,-1.48166 6.826199,1.60513 l 2.2754,3.0515 13.670038,-10.30103 c -3.139699,-4.19803 -5.344544,-6.5969 -7.584666,-8.06092 -7.267169,-4.727182 -15.91016,-2.48706 -23.230245,3.03387 -13.158513,9.91298 -12.452963,20.67263 2.2754,40.21637 15.363358,20.3904 22.753998,24.80009 36.35348,14.55197 M 85.867236,86.578088 124.86653,138.36548 138.53657,128.06445 99.554912,76.277053 85.867236,86.578088 z m 38.769994,-29.192145 38.99929,51.769757 13.17615,-9.948261 -15.22225,-20.161101 2.34596,-1.781514 C 176.4599,67.828088 177.72989,60.878418 168.75176,48.91934 159.63252,36.854429 151.07772,37.454147 140.00058,45.797279 l -15.36335,11.588664 z m 54.36265,99.218017 -13.17615,9.94826 -6.61454,-8.80174 15.91016,-12.012 -8.02563,-10.67145 -29.5802,22.29539 38.99929,51.76976 30.40922,-22.89511 -8.36077,-11.09478 -16.75682,12.62935 -7.6023,-10.08937 13.17615,-9.94826 -8.37841,-11.13005 z m 12.13546,0.93485 c 15.36336,20.42568 22.754,24.8001 36.35348,14.56962 4.02164,-3.06915 6.24412,-6.57926 7.26717,-11.16534 l 4.02164,1.26999 7.00259,-5.27399 -21.71331,-28.76881 -17.07432,12.87629 7.26717,9.66604 3.42191,-2.57526 3.89817,5.13288 c 2.34595,3.08678 1.74624,5.4151 -0.3175,7.00259 -2.15193,1.58749 -4.53316,1.48165 -6.87911,-1.64041 l -17.79751,-23.63593 c -2.34595,-3.08678 -1.79915,-5.4151 0.3175,-7.02023 2.11665,-1.58749 4.49788,-1.48165 6.84384,1.64041 l 2.2754,3.01623 13.65239,-10.2834 c -3.13969,-4.18039 -5.3269,-6.61454 -7.58466,-8.06091 -7.26717,-4.70955 -15.9278,-2.48707 -23.21261,3.01622 -13.17615,9.93063 -12.45296,20.70791 2.25776,40.23401 m 23.54775,-58.34901 38.99929,51.76975 13.68768,-10.28339 -38.9993,-51.769756 -13.68767,10.283396 z m 38.76999,-29.209783 38.99929,51.769753 13.17615,-9.93062 -15.22225,-20.178738 2.34596,-1.781515 C 305.29339,80.4398 306.56338,73.49013 297.53233,61.531052 288.44837,49.48378 279.89357,50.083498 268.81643,58.408991 l -15.36335,11.571026 z m 36.23,-27.287159 39.05222,51.752116 30.37394,-22.912747 -8.37841,-11.112417 -16.70391,12.611712 -7.63758,-10.071731 13.17615,-9.930621 -8.37841,-11.094779 -13.14087,9.912982 -6.64981,-8.80174 15.94543,-11.994355 -8.02563,-10.689088 -29.63312,22.330668 z m 67.48589,58.807622 -13.6524,10.30103 38.9993,51.76976 13.67004,-10.2834 -39.01694,-51.78739 z m 25.11759,-18.891113 38.9993,51.769753 13.17615,-9.94826 -15.22225,-20.17874 2.34596,-1.76387 C 434.10924,93.051512 435.4145,86.101842 426.4011,74.125125 417.31714,62.095492 408.72706,62.69521 397.66756,71.020703 l -15.381,11.588664 z m 36.23001,-27.322436 38.98166,51.769759 30.44449,-22.912751 -8.39604,-11.112417 -16.72155,12.629351 -7.58466,-10.071731 13.12323,-9.94826 -8.30785,-11.094779 -13.17615,9.895344 -6.64982,-8.766463 15.9278,-12.029633 -8.00799,-10.65381 -29.63312,22.29539 z m 67.50353,58.825259 -13.68768,10.2834 39.05221,51.80503 13.63476,-10.31868 -38.99929,-51.76975 z m 25.09995,-18.908749 38.9993,51.787389 13.17615,-9.94826 -15.22225,-20.17873 2.34596,-1.78152 c 12.52351,-9.43673 13.7935,-16.386405 4.76246,-28.345483 -9.06632,-12.047272 -17.67404,-11.447554 -28.68062,-3.104422 l -15.381,11.571026 z m -8.04327,115.745529 -15.36336,11.58866 38.99929,51.76976 13.1938,-9.93062 -15.22225,-20.19638 2.38123,-1.76388 c 12.48824,-9.43673 13.75823,-16.3864 4.74483,-28.32784 -9.08396,-12.04727 -17.67404,-11.44755 -28.73354,-3.1397 m 0.24694,190.65734 13.15852,-9.93062 -15.20461,-20.16111 2.34595,-1.76387 c 12.5588,-9.47201 13.82879,-16.38641 4.79774,-28.36312 -9.06632,-12.04728 -17.67403,-11.44756 -28.75117,-3.12206 l -15.34572,11.57102 38.99929,51.76976 z m -38.76999,29.20978 13.67004,-10.2834 -38.99929,-51.76975 -13.67004,10.26576 38.99929,51.78739 z m -62.56467,6.57926 c 15.38099,20.40804 22.78927,24.78245 36.33584,14.56961 4.05691,-3.06914 6.2794,-6.57926 7.32008,-11.1477 l 3.96872,1.23472 7.02023,-5.22107 -21.71331,-28.78646 -17.05668,12.85866 7.26717,9.66604 3.42192,-2.57526 3.86288,5.13288 c 2.34596,3.06914 1.78152,5.43273 -0.29985,7.00258 -2.11666,1.60513 -4.53317,1.48166 -6.84384,-1.62276 l -17.81515,-23.65358 c -2.34595,-3.08678 -1.79915,-5.39746 0.29986,-7.00258 2.11665,-1.58749 4.49788,-1.48166 6.8262,1.62276 l 2.32832,3.01623 13.63476,-10.2834 c -3.1397,-4.18038 -5.34455,-6.57925 -7.61995,-8.06091 -7.21425,-4.70955 -15.89252,-2.48706 -23.19496,3.01623 -13.17616,9.94826 -12.45297,20.7079 2.25776,40.23401 m 8.76646,-75.72319 30.42686,-22.89511 -8.39605,-11.09478 -16.72154,12.59407 -7.61995,-10.07173 13.19379,-9.93062 -8.39605,-11.09478 -13.17615,9.91299 -6.59689,-8.80174 15.91016,-11.99436 -8.04328,-10.67145 -29.58019,22.31303 38.99929,51.73448 z m -36.23001,27.34007 13.17615,-9.94826 -15.20461,-20.17874 2.32832,-1.78151 c 12.52352,-9.4191 13.79351,-16.36877 4.76246,-28.34548 -9.06632,-12.02964 -17.67403,-11.41228 -28.73353,-3.10443 l -15.32808,11.58867 38.99929,51.76975 z m -38.76999,29.19215 13.6524,-10.30104 -39.01693,-51.76975 -13.63476,10.30103 38.99929,51.76976 z m -62.59995,6.57925 c 15.381,20.39041 22.77164,24.78246 36.35348,14.56962 4.07455,-3.06915 6.31467,-6.56162 7.26717,-11.16534 l 4.03927,1.26999 6.98495,-5.27398 -21.66039,-28.75118 -17.05668,12.85866 7.24953,9.66603 3.42192,-2.59289 3.84524,5.15051 c 2.34596,3.08679 1.79916,5.43274 -0.31749,7.02023 -2.11665,1.60513 -4.48025,1.44638 -6.8262,-1.6404 L 278.62358,402.2413 c -2.34595,-3.08678 -1.76387,-5.4151 0.35278,-7.00259 2.09901,-1.60512 4.49788,-1.46401 6.79092,1.62277 l 2.29304,3.01623 13.68768,-10.30104 c -3.17498,-4.18038 -5.37983,-6.56162 -7.63759,-8.04327 -7.23189,-4.72719 -15.85724,-2.5047 -23.2126,3.01623 -13.14088,9.93062 -12.45297,20.69026 2.25776,40.234 m 8.76646,-75.70555 30.42686,-22.93038 -8.36077,-11.07714 -16.75682,12.61171 -7.61995,-10.07173 13.19379,-9.94826 -8.37841,-11.11242 -13.19379,9.93062 -6.59689,-8.81938 15.91016,-11.99435 -8.04328,-10.65381 -29.58019,22.27775 38.99929,51.78739 z m -36.23001,27.34008 13.17615,-9.9659 -15.22224,-20.1611 2.34595,-1.79915 c 12.54116,-9.45438 13.81115,-16.36877 4.7801,-28.34549 -9.06632,-12.02963 -17.63875,-11.44755 -28.69825,-3.10442 l -15.381,11.58867 38.99929,51.78739 z m -38.76999,29.19214 13.68768,-10.30103 -39.03457,-51.76976 -13.6524,10.2834 38.99929,51.78739 z m -62.56467,6.56162 c 15.39863,20.40804 22.77163,24.78246 36.33584,14.55198 4.05691,-3.06915 6.26176,-6.54398 7.30244,-11.1477 l 3.98636,1.26999 7.00259,-5.27399 -21.67803,-28.75117 -17.09196,12.87629 7.28481,9.63076 3.42192,-2.55762 3.84525,5.11524 c 2.34595,3.10443 1.81679,5.43274 -0.29986,7.02023 -2.11665,1.58749 -4.49789,1.48166 -6.84384,-1.62277 l -17.81515,-23.63593 c -2.31067,-3.10442 -1.76387,-5.45038 0.29986,-7.03787 2.15193,-1.58748 4.53316,-1.46401 6.87912,1.62277 l 2.2754,3.0515 13.63476,-10.30103 c -3.15734,-4.19802 -5.34455,-6.5969 -7.61995,-8.07855 -7.21425,-4.69191 -15.85724,-2.46943 -23.19496,3.0515 -13.17615,9.91299 -12.45297,20.67263 2.2754,40.21637 m 44.3262,-170.56679 c -7.24953,-4.70955 -15.87489,-2.46942 -23.21261,3.03387 -13.17615,9.93062 -12.43532,20.69026 2.2754,40.21637 15.36336,20.40804 22.77164,24.80009 36.35348,14.56961 4.07455,-3.06914 6.24412,-6.56162 7.26717,-11.16533 l 4.02164,1.28763 6.98494,-5.27399 -21.66039,-28.76882 -17.1096,12.85866 7.30245,9.66604 3.42192,-2.57526 3.82761,5.13288 c 2.34595,3.08678 1.81679,5.43273 -0.29986,7.03786 -2.09901,1.56985 -4.48024,1.44638 -6.8262,-1.6404 l -17.83278,-23.63594 c -2.34596,-3.10442 -1.79916,-5.45037 0.35277,-7.0555 2.06374,-1.58749 4.46261,-1.44638 6.80856,1.6404 l 2.29304,3.01623 13.63476,-10.26576 c -3.1397,-4.21566 -5.34454,-6.59689 -7.6023,-8.07855 m 16.29821,-25.38217 -13.6524,10.2834 38.99929,51.80503 13.63476,-10.30104 -38.98165,-51.78739 z m 40.44567,-30.47977 -15.36336,11.55338 39.03457,51.7874 13.14088,-9.93063 -15.18697,-20.17873 2.34595,-1.76388 c 12.52352,-9.45437 13.79351,-16.38641 4.78011,-28.36312 -9.08396,-12.04727 -17.67404,-11.44756 -28.75118,-3.10442 m 113.73471,105.16227 13.63476,-10.30103 -38.99929,-51.76976 -13.63476,10.30104 38.99929,51.76975 z m -56.7968,-23.00094 c 2.08138,-1.58749 4.49789,-1.46402 6.79092,1.6404 l 2.31068,3.03387 13.6524,-10.30103 c -3.15734,-4.19803 -5.34454,-6.61454 -7.61994,-8.04328 -7.21426,-4.72718 -15.85725,-2.5047 -23.19497,3.01623 -13.19379,9.91298 -12.45296,20.69026 2.25776,40.19873 15.36336,20.42568 22.754,24.81773 36.3182,14.55198 4.07456,-3.03387 6.29704,-6.52635 7.28481,-11.11242 l 4.05691,1.26999 6.98495,-5.27399 -21.67803,-28.76881 -17.09196,12.87629 7.30245,9.63076 3.42192,-2.57526 3.82761,5.13288 c 2.34595,3.10442 1.81679,5.4151 -0.29986,7.02023 -2.09901,1.60512 -4.49788,1.48165 -6.84384,-1.60513 l -17.81514,-23.65358 c -2.3636,-3.10442 -1.8168,-5.43273 0.33513,-7.03786 m 71.87794,-69.54962 -15.34572,11.57102 39.01693,51.76976 13.15852,-9.94826 -15.23989,-20.1611 2.36359,-1.78152 c 12.52352,-9.43673 13.82879,-16.36876 4.78011,-28.34548 -9.04869,-12.04727 -17.63876,-11.44756 -28.73354,-3.10442 m 113.71707,105.14463 13.67004,-10.28339 -39.01693,-51.75212 -13.67004,10.26576 39.01693,51.76975 z m -56.81444,-22.94802 c 2.11665,-1.60513 4.51553,-1.48166 6.84384,1.60513 l 2.2754,3.01622 13.67004,-10.26575 c -3.1397,-4.19803 -5.34454,-6.5969 -7.60231,-8.07855 -7.26716,-4.69191 -15.91016,-2.48707 -23.19496,3.01622 -13.19379,9.94826 -12.4706,20.70791 2.25776,40.23401 15.36336,20.3904 22.754,24.80009 36.33584,14.56961 4.03928,-3.06914 6.26176,-6.56161 7.26717,-11.14769 l 4.03927,1.25235 6.93204,-5.23871 -21.60748,-28.80409 -17.1096,12.87629 7.32009,9.66604 3.369,-2.57526 3.86289,5.13288 c 2.36359,3.08678 1.81679,5.43274 -0.3175,7.02023 -2.11665,1.60512 -4.48024,1.48165 -6.80856,-1.64041 l -17.83278,-23.65357 c -2.34596,-3.08678 -1.79916,-5.39746 0.29985,-6.98495 m 23.389,-127.35183 c 2.11665,-1.58749 4.51552,-1.46402 6.84384,1.6404 l 2.27539,3.03387 13.68768,-10.31868 c -3.15734,-4.16274 -5.34454,-6.57925 -7.61994,-8.04327 -7.24953,-4.74483 -15.91016,-2.5047 -23.19497,2.99859 -13.19379,9.94826 -12.48824,20.7079 2.25776,40.25165 15.36336,20.40804 22.754,24.78245 36.3182,14.56961 4.05692,-3.06914 6.2794,-6.52634 7.28481,-11.1477 l 4.02164,1.26999 6.98495,-5.27398 -21.67804,-28.78646 -17.03904,12.85866 7.23189,9.70131 3.42192,-2.57525 3.89817,5.13287 c 2.34595,3.08679 1.74624,5.43274 -0.35278,7.02023 -2.11665,1.56985 -4.49788,1.46402 -6.80856,-1.6404 L 454.21742,160.2199 c -2.32832,-3.10442 -1.78152,-5.4151 0.3175,-7.02022 m -37.69403,29.79186 15.9278,-12.01199 -8.04327,-10.68909 -29.5802,22.31303 38.99929,51.78739 30.40922,-22.91275 -8.34313,-11.11241 -16.80974,12.61171 -7.56702,-10.07173 13.19379,-9.93062 -8.39605,-11.11242 -13.15852,9.91298 -6.63217,-8.7841 z M 325.73671,140.6056 c 2.09901,-1.60512 4.49788,-1.48165 6.84383,1.60513 l 2.24013,3.03387 13.68767,-10.2834 c -3.1397,-4.18038 -5.34454,-6.59689 -7.61994,-8.04327 -7.23189,-4.72719 -15.87488,-2.52234 -23.21261,2.99859 -13.15851,9.93062 -12.43532,20.7079 2.29304,40.26928 15.36336,20.37277 22.754,24.78246 36.30057,14.55198 4.07455,-3.08679 6.29703,-6.56162 7.32008,-11.1477 l 3.98636,1.25235 7.02023,-5.25635 -21.69568,-28.78645 -17.07431,12.85865 7.26716,9.66604 3.42192,-2.57525 3.84525,5.11524 c 2.34596,3.12206 1.81679,5.46801 -0.29986,7.0555 -2.08137,1.58749 -4.49788,1.44638 -6.84383,-1.62277 l -17.79751,-23.68885 c -2.32832,-3.08678 -1.79915,-5.43274 0.3175,-7.00259 m -37.74695,29.77423 15.94544,-12.02964 -8.00799,-10.67144 -29.59784,22.33066 38.98165,51.75212 30.40922,-22.89511 -8.37841,-11.09478 -16.75682,12.61171 -7.56702,-10.107 13.15851,-9.91299 -8.34313,-11.11241 -13.19379,9.93062 -6.64982,-8.80174 z m -149.78833,35.98306 2.38123,-1.79915 c 12.52352,-9.43674 13.79351,-16.36877 4.76247,-28.32785 -9.06632,-12.06491 -17.67404,-11.48283 -28.73354,-3.10442 l -15.381,11.57103 39.03458,51.76975 13.14087,-9.91298 -15.20461,-20.19638 z m 14.90475,130.10348 30.42686,-22.93038 -8.37841,-11.09478 -16.73918,12.62935 -7.61995,-10.08937 13.17616,-9.93062 -8.37841,-11.09478 -13.17616,9.93062 -6.59689,-8.81938 15.94544,-12.01199 -8.07856,-10.67145 -29.58019,22.31303 38.99929,51.76975 z m -38.25846,-2.78692 2.34595,-1.78152 c 12.52352,-9.45437 13.77587,-16.3864 4.74483,-28.38076 -9.06633,-12.01199 -17.67404,-11.42991 -28.680624,-3.08678 l -15.380997,11.57103 38.999291,51.78739 13.17615,-9.93062 -15.2046,-20.17874 z m 427.22835,-11.88852 -13.15851,9.91298 -6.66745,-8.80174 15.96308,-11.99436 -8.04328,-10.68909 -29.61547,22.33067 39.01693,51.76976 30.39158,-22.93039 -8.36077,-11.11242 -16.75682,12.64699 -7.56703,-10.12464 13.14088,-9.91299 -8.34314,-11.09477 z"
       style="fill:#febf4a"
       id="path3695"
       inkscape:connector-curvature="0" /><path
       d="m 575.99716,58.530686 -5.57385,0 0,-27.181326 -0.17639,0 -9.5602,27.181326 -4.53316,0 -9.1016,-27.181326 -0.15875,0 0,27.181326 -5.59149,0 0,-34.519049 8.8723,0 8.59007,25.664392 0.17639,0 8.37841,-25.664392 8.67827,0 0,34.519049 z M 537.333,24.011637 l 0,4.462605 -9.50729,0 0,30.056444 -5.57385,0 0,-30.056444 -9.48965,0 0,-4.462605 24.57079,0 z"
       style="fill:#000000"
       id="path3697"
       inkscape:connector-curvature="0" /><path
       d="m 211.21883,514.79774 -93.60889,0 0,-325.22342 -61.18885,0 0,-55.19167 c 41.997883,0.59971 69.60254,-16.80974 84.59548,-57.608187 l 70.20226,0 0,438.023277 z"
       style="fill:#ffffff"
       id="path3701"
       inkscape:connector-curvature="0" /><path
       d="m 530.41157,425.99189 0,88.81115 -229.21566,0 0,-93.02681 C 405.59972,279.5902 439.20155,255.58385 439.20155,200.97425 c 0,-22.20719 -8.39605,-35.40098 -24.58843,-35.40098 -22.20719,0 -27.00493,17.40945 -27.00493,37.20014 l 0,25.8055 -87.61172,0 0,-28.80409 c 0,-67.80339 33.00212,-123.0127 114.61665,-123.0127 77.99859,0 120.59619,49.21214 120.59619,127.81044 0,93.60889 -79.19802,154.81538 -133.19026,221.41933 l 128.39252,0 z"
       style="fill:#ffffff"
       id="path3703"
       inkscape:connector-curvature="0" /></g></g></svg>