<?xml version="1.0" encoding="utf-8"?>
<svg version="1.1" id="Layer_1_copy" xmlns="http://www.w3.org/2000/svg" xmlns:xlink="http://www.w3.org/1999/xlink" x="0px"
	 y="0px" viewBox="0 0 424 424" style="enable-background:new 0 0 424 424;" xml:space="preserve">
<style type="text/css">
	.st0{fill:#231F20;}
	.st1{clip-path:url(#SVGID_2_);}
	.st2{fill:#4F4C4C;}
	.st3{fill:#FFFFFF;}
</style>
<rect x="5" y="3.6" class="st0" width="417.1" height="418.5"/>
<g>
	<defs>
		<rect id="SVGID_1_" x="3.9" y="2.5" width="417.1" height="357"/>
	</defs>
	<clipPath id="SVGID_2_">
		<use xlink:href="#SVGID_1_"  style="overflow:visible;"/>
	</clipPath>
	<g class="st1">
		<path id="path8291" inkscape:connector-curvature="0" class="st2" d="M-11.4,84.6l-28.3-37.5l9.9-7.5l28.3,37.5L-11.4,84.6"/>
		<path id="path8293" inkscape:connector-curvature="0" class="st2" d="M9.9,34.6c3.2-2.4,4.2-4,1-8.2c-2.7-3.6-4.2-3.7-7.9-0.9
			L9.9,34.6z M16.7,63.5l-28.3-37.5l11.1-8.4c8-6,14.2-6.5,20.8,2.3c6.5,8.7,5.6,13.7-3.5,20.5l-1.7,1.3l11,14.6L16.7,63.5"/>
		<path id="path8295" inkscape:connector-curvature="0" class="st2" d="M42.9,43.7L14.7,6.1L36.1-10l5.8,7.7L30.4,6.4l4.8,6.4
			l9.5-7.2l6.1,8l-9.5,7.2l5.5,7.3L58.9,19l6.1,8L42.9,43.7"/>
		<path id="path8297" inkscape:connector-curvature="0" class="st2" d="M70.4,7.1c1.7,2.3,3.4,2.3,5,1.2c1.5-1.2,1.9-2.8,0.2-5.1
			l-2.8-3.7l-2.5,1.9l-5.3-7L77.4-15L93.1,5.8l-5.1,3.8l-2.9-0.9c-0.7,3.3-2.3,5.9-5.3,8.1C70,24.2,64.7,21,53.5,6.3
			c-10.7-14.2-11.2-22-1.6-29.2c5.3-4,11.6-5.6,16.8-2.2c1.6,1.1,3.2,2.8,5.5,5.8l-9.9,7.5L62.7-14c-1.7-2.2-3.4-2.3-5-1.2
			c-1.5,1.2-1.9,2.8-0.2,5.1L70.4,7.1"/>
		<path id="path8299" inkscape:connector-curvature="0" class="st2" d="M98.9,1.5L70.6-36l9.9-7.5L108.8-6L98.9,1.5"/>
		<path id="path8301" inkscape:connector-curvature="0" class="st2" d="M-7,126.9c3.2-2.4,4.2-4,1-8.2c-2.7-3.6-4.2-3.7-7.9-0.9
			C-13.9,117.8-7,126.9-7,126.9z M-0.3,155.7l-28.3-37.5l11.1-8.4c8-6,14.2-6.5,20.8,2.3c6.5,8.7,5.6,13.7-3.5,20.5l-1.7,1.3
			l11,14.6L-0.3,155.7"/>
		<path id="path8303" inkscape:connector-curvature="0" class="st2" d="M26,135.9L-2.3,98.4l21.4-16.2L25,90l-11.5,8.7l4.8,6.4
			l9.5-7.2l6.1,8l-9.5,7.2l5.5,7.3l12.1-9.1l6.1,8L26,135.9"/>
		<path id="path8305" inkscape:connector-curvature="0" class="st2" d="M53.5,99.3c1.7,2.2,3.4,2.3,5,1.2c1.5-1.2,1.9-2.9,0.2-5.1
			l-2.8-3.7l-2.5,1.9l-5.3-7l12.4-9.3l15.7,20.9l-5.1,3.8l-2.9-0.9c-0.7,3.3-2.3,5.9-5.3,8.1c-9.8,7.4-15.2,4.2-26.3-10.6
			c-10.7-14.2-11.2-22-1.6-29.2c5.3-4,11.6-5.6,16.8-2.2c1.6,1.1,3.2,2.8,5.5,5.8l-9.9,7.5l-1.7-2.2c-1.7-2.2-3.4-2.3-5-1.2
			c-1.5,1.2-1.9,2.8-0.2,5.1L53.5,99.3"/>
		<path id="path8307" inkscape:connector-curvature="0" class="st2" d="M81.9,93.8L53.7,56.2l9.9-7.5l28.3,37.5L81.9,93.8"/>
		<path id="path8309" inkscape:connector-curvature="0" class="st2" d="M103.3,43.8c3.2-2.4,4.2-4,1-8.2c-2.7-3.6-4.1-3.7-7.9-0.9
			C96.4,34.7,103.3,43.8,103.3,43.8z M110,72.6L81.8,35.1l11.1-8.4c8-6,14.2-6.5,20.8,2.3c6.5,8.7,5.6,13.7-3.5,20.5l-1.7,1.3
			l11,14.6L110,72.6"/>
		<path id="path8311" inkscape:connector-curvature="0" class="st2" d="M136.3,52.8L108,15.3l21.4-16.2l5.8,7.7l-11.6,8.7l4.8,6.4
			l9.5-7.2l6.1,8l-9.5,7.2l5.5,7.3l12.1-9.1l6.1,8.1L136.3,52.8"/>
		<path id="path8313" inkscape:connector-curvature="0" class="st2" d="M163.8,16.2c1.7,2.3,3.4,2.3,4.9,1.2
			c1.5-1.2,1.9-2.8,0.2-5.1l-2.8-3.7l-2.5,1.9l-5.3-7l12.4-9.3L186.5,15l-5.1,3.8l-2.9-0.9c-0.7,3.3-2.3,5.9-5.3,8.1
			c-9.8,7.4-15.2,4.2-26.3-10.5c-10.7-14.2-11.2-22-1.6-29.2c5.3-4,11.6-5.6,16.8-2.2c1.6,1.1,3.2,2.8,5.5,5.8l-9.9,7.5l-1.7-2.2
			c-1.7-2.2-3.4-2.3-4.9-1.2c-1.5,1.1-1.9,2.8-0.2,5.1L163.8,16.2"/>
		<path id="path8315" inkscape:connector-curvature="0" class="st2" d="M192.3,10.6L164-26.9l9.9-7.5l28.3,37.5L192.3,10.6"/>
		<path id="path8317" inkscape:connector-curvature="0" class="st2" d="M-24,219.2c3.2-2.4,4.2-4,1-8.2c-2.7-3.6-4.2-3.7-7.9-0.9
			L-24,219.2z M-17.2,248l-28.3-37.5l11.1-8.4c8-6,14.2-6.5,20.8,2.3c6.5,8.7,5.6,13.7-3.5,20.5l-1.7,1.3l11,14.6L-17.2,248"/>
		<path id="path8319" inkscape:connector-curvature="0" class="st2" d="M9,228.2l-28.3-37.5l21.4-16.2l5.8,7.7L-3.5,191l4.8,6.4
			l9.5-7.2l6.1,8.1l-9.5,7.2l5.5,7.3l12.1-9.1l6.1,8L9,228.2"/>
		<path id="path8321" inkscape:connector-curvature="0" class="st2" d="M36.5,191.6c1.7,2.2,3.4,2.3,5,1.2c1.5-1.2,1.9-2.8,0.2-5.1
			l-2.8-3.7l-2.5,1.9l-5.3-7l12.4-9.3l15.7,20.9l-5.1,3.8l-2.9-0.9c-0.7,3.3-2.3,5.9-5.3,8.1c-9.8,7.4-15.2,4.2-26.3-10.5
			C9,176.7,8.4,168.8,18,161.7c5.3-4,11.6-5.6,16.8-2.2c1.6,1.1,3.2,2.8,5.5,5.8l-9.9,7.5l-1.7-2.2c-1.7-2.2-3.4-2.3-5-1.2
			c-1.5,1.2-1.9,2.8-0.2,5.1L36.5,191.6"/>
		<path id="path8323" inkscape:connector-curvature="0" class="st2" d="M65,186l-28.3-37.5l9.9-7.5l28.3,37.5L65,186"/>
		<path id="path8325" inkscape:connector-curvature="0" class="st2" d="M86.3,136.1c3.2-2.4,4.2-4,1-8.2c-2.7-3.6-4.2-3.7-7.9-0.9
			L86.3,136.1z M93.1,164.9l-28.3-37.5l11.1-8.4c8-6,14.2-6.5,20.8,2.3c6.5,8.7,5.6,13.7-3.5,20.5l-1.7,1.3l11,14.6L93.1,164.9"/>
		<path id="path8327" inkscape:connector-curvature="0" class="st2" d="M119.4,145.1l-28.3-37.5l21.5-16.2l5.8,7.7l-11.6,8.7
			l4.8,6.4l9.6-7.2l6.1,8.1l-9.6,7.2l5.5,7.3l12.1-9.1l6.1,8.1L119.4,145.1"/>
		<path id="path8329" inkscape:connector-curvature="0" class="st2" d="M146.8,108.5c1.7,2.2,3.4,2.3,5,1.2c1.5-1.2,1.9-2.8,0.2-5.1
			l-2.8-3.7l-2.5,1.9l-5.3-7l12.4-9.3l15.7,20.9l-5.1,3.8l-2.9-0.9c-0.7,3.3-2.3,5.9-5.3,8.1c-9.8,7.4-15.2,4.2-26.3-10.5
			c-10.7-14.2-11.2-22-1.6-29.2c5.3-4,11.6-5.6,16.8-2.2c1.6,1.1,3.2,2.8,5.5,5.8l-9.9,7.5l-1.6-2.2c-1.7-2.2-3.4-2.3-5-1.2
			c-1.5,1.2-1.9,2.8-0.2,5.1L146.8,108.5"/>
		<path id="path8331" inkscape:connector-curvature="0" class="st2" d="M175.3,102.9L147,65.4l9.9-7.5l28.3,37.5L175.3,102.9"/>
		<path id="path8333" inkscape:connector-curvature="0" class="st2" d="M196.6,52.9c3.2-2.4,4.2-4,1-8.2c-2.7-3.6-4.1-3.7-7.9-0.9
			C189.8,43.8,196.6,52.9,196.6,52.9z M203.4,81.7l-28.3-37.5l11.1-8.4c8-6,14.2-6.5,20.8,2.3c6.5,8.7,5.6,13.7-3.5,20.5l-1.7,1.3
			l11,14.6L203.4,81.7"/>
		<path id="path8335" inkscape:connector-curvature="0" class="st2" d="M229.7,61.9l-28.3-37.5l21.5-16.2l5.8,7.7l-11.5,8.7l4.8,6.4
			l9.6-7.2l6.1,8.1l-9.5,7.2l5.5,7.3l12.1-9.1l6.1,8.1L229.7,61.9"/>
		<path id="path8337" inkscape:connector-curvature="0" class="st2" d="M257.2,25.3c1.7,2.3,3.4,2.3,4.9,1.2
			c1.5-1.2,1.9-2.8,0.2-5.1l-2.8-3.7l-2.5,1.9l-5.3-7l12.4-9.3l15.7,20.9l-5.1,3.8l-2.9-0.9c-0.7,3.3-2.3,5.9-5.3,8.1
			c-9.8,7.4-15.2,4.2-26.3-10.5c-10.7-14.2-11.2-22-1.6-29.2c5.3-4,11.6-5.6,16.8-2.2c1.7,1.1,3.2,2.8,5.5,5.8l-9.9,7.5l-1.6-2.2
			c-1.7-2.2-3.4-2.3-5-1.2c-1.5,1.1-1.9,2.8-0.2,5.1L257.2,25.3"/>
		<path id="path8339" inkscape:connector-curvature="0" class="st2" d="M285.6,19.8l-28.3-37.5l9.9-7.5l28.3,37.5L285.6,19.8"/>
		<path id="path8341" inkscape:connector-curvature="0" class="st2" d="M307-30.2c3.2-2.4,4.2-4,1-8.2c-2.7-3.6-4.2-3.7-7.9-0.9
			L307-30.2L307-30.2z M313.7-1.4l-28.3-37.5l11.1-8.4c8-6,14.2-6.5,20.8,2.3c6.5,8.7,5.6,13.7-3.5,20.5l-1.7,1.3l11,14.6L313.7-1.4
			"/>
		<path id="path8343" inkscape:connector-curvature="0" class="st2" d="M-7.9,320.5L-36.2,283l21.4-16.2l5.8,7.7l-11.6,8.7l4.8,6.4
			l9.5-7.2l6.1,8l-9.5,7.2l5.5,7.3l12.1-9.2l6.1,8L-7.9,320.5"/>
		<path id="path8345" inkscape:connector-curvature="0" class="st2" d="M19.6,283.9c1.7,2.2,3.4,2.3,5,1.2c1.5-1.2,1.9-2.9,0.2-5.1
			l-2.8-3.7l-2.5,1.9l-5.3-7l12.4-9.3l15.7,20.9l-5.1,3.8l-2.9-0.9c-0.7,3.3-2.3,5.9-5.3,8.1c-9.8,7.4-15.2,4.2-26.3-10.6
			C-8,268.9-8.5,261.1,1,253.9c5.3-4,11.6-5.6,16.8-2.2c1.6,1.1,3.2,2.8,5.5,5.8l-9.9,7.5l-1.6-2.2c-1.7-2.2-3.4-2.3-5-1.2
			c-1.5,1.2-1.9,2.8-0.2,5.1L19.6,283.9"/>
		<path id="path8347" inkscape:connector-curvature="0" class="st2" d="M48,278.3l-28.3-37.5l9.9-7.5l28.3,37.5L48,278.3"/>
		<path id="path8349" inkscape:connector-curvature="0" class="st2" d="M69.4,228.3c3.2-2.4,4.2-4,1-8.2c-2.7-3.6-4.2-3.7-7.9-0.9
			L69.4,228.3z M76.1,257.2l-28.3-37.5l11.1-8.4c8-6,14.2-6.5,20.8,2.2c6.5,8.7,5.6,13.7-3.5,20.5l-1.7,1.3l11,14.6L76.1,257.2"/>
		<path id="path8351" inkscape:connector-curvature="0" class="st2" d="M102.4,237.4l-28.3-37.5l21.4-16.2l5.8,7.7l-11.5,8.7
			l4.8,6.4l9.6-7.2l6.1,8l-9.5,7.2l5.5,7.3l12.1-9.2l6.1,8L102.4,237.4"/>
		<path id="path8353" inkscape:connector-curvature="0" class="st2" d="M129.9,200.8c1.7,2.2,3.4,2.3,5,1.2c1.5-1.2,1.9-2.9,0.2-5.1
			l-2.8-3.7l-2.5,1.9l-5.3-7l12.4-9.3l15.7,20.9l-5.1,3.8l-2.9-0.9c-0.7,3.3-2.3,5.9-5.3,8.1c-9.8,7.4-15.2,4.2-26.3-10.6
			c-10.7-14.2-11.2-22-1.7-29.2c5.3-4,11.6-5.6,16.8-2.2c1.6,1.1,3.2,2.8,5.5,5.8l-9.9,7.5l-1.6-2.2c-1.7-2.2-3.4-2.3-5-1.2
			c-1.5,1.2-1.9,2.8-0.2,5.1L129.9,200.8"/>
		<path id="path8355" inkscape:connector-curvature="0" class="st2" d="M158.4,195.2l-28.3-37.5l9.9-7.5l28.3,37.5L158.4,195.2"/>
		<path id="path8357" inkscape:connector-curvature="0" class="st2" d="M179.7,145.2c3.2-2.4,4.2-4,1-8.2c-2.7-3.6-4.2-3.7-7.9-0.9
			L179.7,145.2z M186.5,174l-28.3-37.5l11.1-8.4c8-6,14.2-6.5,20.8,2.3c6.5,8.7,5.6,13.7-3.5,20.5l-1.7,1.3l11,14.6L186.5,174"/>
		<path id="path8359" inkscape:connector-curvature="0" class="st2" d="M212.7,154.2l-28.3-37.5l21.4-16.2l5.8,7.7l-11.5,8.7
			l4.8,6.4l9.6-7.2l6.1,8l-9.5,7.2l5.5,7.3l12.1-9.2l6.1,8.1L212.7,154.2"/>
		<path id="path8361" inkscape:connector-curvature="0" class="st2" d="M240.2,117.6c1.7,2.3,3.4,2.3,5,1.2c1.5-1.2,1.9-2.8,0.2-5.1
			l-2.8-3.7l-2.5,1.9l-5.3-7l12.4-9.3l15.7,20.9l-5.1,3.8l-2.9-0.9c-0.7,3.3-2.3,5.9-5.3,8.1c-9.8,7.4-15.2,4.2-26.3-10.5
			c-10.7-14.2-11.2-22-1.7-29.2c5.3-4,11.6-5.6,16.8-2.2c1.6,1.1,3.2,2.8,5.5,5.8l-9.9,7.5l-1.6-2.2c-1.7-2.2-3.4-2.3-5-1.2
			c-1.5,1.1-1.9,2.8-0.2,5.1L240.2,117.6"/>
		<path id="path8363" inkscape:connector-curvature="0" class="st2" d="M268.7,112.1l-28.3-37.5l9.9-7.5l28.3,37.5L268.7,112.1"/>
		<path id="path8365" inkscape:connector-curvature="0" class="st2" d="M290,62.1c3.2-2.4,4.2-4,1-8.2c-2.7-3.6-4.2-3.7-7.9-0.9
			L290,62.1z M296.8,90.9l-28.3-37.5l11.1-8.4c8-6,14.3-6.5,20.8,2.3c6.5,8.7,5.6,13.7-3.5,20.5l-1.7,1.3l11,14.6L296.8,90.9"/>
		<path id="path8367" inkscape:connector-curvature="0" class="st2" d="M323.1,71.1l-28.3-37.5l21.5-16.2l5.8,7.7l-11.6,8.7l4.8,6.4
			l9.5-7.2l6.1,8l-9.6,7.2l5.5,7.3l12.1-9.2l6.1,8.1L323.1,71.1"/>
		<path id="path8369" inkscape:connector-curvature="0" class="st2" d="M350.5,34.5c1.7,2.3,3.4,2.3,4.9,1.2
			c1.5-1.2,1.9-2.8,0.2-5.1l-2.8-3.7l-2.5,1.9l-5.3-7l12.4-9.3l15.7,20.9l-5.1,3.8l-2.9-0.9c-0.7,3.3-2.3,5.9-5.3,8.1
			c-9.8,7.4-15.2,4.2-26.3-10.5c-10.7-14.2-11.2-22-1.6-29.2c5.3-4,11.6-5.6,16.8-2.2c1.6,1.1,3.2,2.8,5.5,5.8l-9.9,7.5l-1.7-2.2
			c-1.7-2.2-3.4-2.3-5-1.2c-1.5,1.1-1.9,2.8-0.2,5.1L350.5,34.5"/>
		<path id="path8371" inkscape:connector-curvature="0" class="st2" d="M379,28.9L350.7-8.6l9.9-7.5l28.3,37.5L379,28.9"/>
		<path id="path8373" inkscape:connector-curvature="0" class="st2" d="M400.3-21.1c3.2-2.4,4.2-4,1-8.2c-2.7-3.6-4.1-3.7-7.9-0.9
			L400.3-21.1z M407.1,7.7l-28.3-37.5l11.1-8.4c8-6,14.3-6.5,20.8,2.3c6.5,8.7,5.6,13.7-3.5,20.5l-1.7,1.3l11,14.6L407.1,7.7"/>
		<path id="path8375" inkscape:connector-curvature="0" class="st2" d="M-24.9,412.8l-28.3-37.5l21.4-16.2l5.8,7.7l-11.6,8.7
			l4.8,6.4l9.5-7.2l6.1,8l-9.5,7.2l5.5,7.3l12.1-9.1l6.1,8L-24.9,412.8"/>
		<path id="path8377" inkscape:connector-curvature="0" class="st2" d="M2.6,376.2c1.7,2.2,3.4,2.3,5,1.2c1.5-1.2,1.9-2.8,0.2-5.1
			L5,368.6l-2.5,1.9l-5.3-7l12.4-9.3l15.7,20.9l-5.1,3.8l-2.9-0.9c-0.7,3.3-2.3,5.9-5.3,8.1c-9.8,7.4-15.2,4.2-26.3-10.5
			c-10.7-14.2-11.2-22-1.6-29.2c5.3-4,11.6-5.6,16.8-2.2c1.6,1.1,3.2,2.8,5.5,5.8l-9.9,7.5l-1.6-2.2c-1.7-2.2-3.4-2.3-5-1.2
			c-1.5,1.2-1.9,2.8-0.2,5.1L2.6,376.2"/>
		<path id="path8379" inkscape:connector-curvature="0" class="st2" d="M31.1,370.6L2.8,333.1l9.9-7.5L41,363.1L31.1,370.6"/>
		<path id="path8381" inkscape:connector-curvature="0" class="st2" d="M52.4,320.6c3.2-2.4,4.2-4,1-8.2c-2.7-3.6-4.2-3.7-7.9-0.9
			C45.6,311.5,52.4,320.6,52.4,320.6z M59.2,349.4l-28.3-37.5l11.1-8.4c8-6,14.2-6.5,20.8,2.2c6.5,8.7,5.6,13.7-3.5,20.5l-1.7,1.3
			l11,14.6L59.2,349.4"/>
		<path id="path8383" inkscape:connector-curvature="0" class="st2" d="M85.5,329.6l-28.3-37.5l21.4-16.2l5.8,7.7l-11.6,8.7l4.8,6.4
			l9.5-7.2l6.1,8l-9.5,7.2l5.5,7.3l12.1-9.2l6.1,8L85.5,329.6"/>
		<path id="path8385" inkscape:connector-curvature="0" class="st2" d="M112.9,293c1.7,2.2,3.4,2.3,5,1.2c1.5-1.2,1.9-2.8,0.2-5.1
			l-2.8-3.7l-2.5,1.9l-5.3-7l12.4-9.3l15.7,20.9l-5.1,3.8l-2.9-0.9c-0.7,3.3-2.3,5.9-5.3,8.1c-9.8,7.4-15.2,4.2-26.3-10.5
			c-10.7-14.2-11.2-22-1.7-29.2c5.3-4,11.6-5.6,16.8-2.2c1.6,1.1,3.2,2.8,5.5,5.8l-9.9,7.5l-1.6-2.2c-1.7-2.2-3.4-2.3-5-1.2
			c-1.5,1.2-1.9,2.8-0.2,5.1L112.9,293"/>
		<path id="path8387" inkscape:connector-curvature="0" class="st2" d="M141.4,287.5l-28.3-37.5l9.9-7.5l28.3,37.5L141.4,287.5"/>
		<path id="path8389" inkscape:connector-curvature="0" class="st2" d="M162.8,237.5c3.2-2.4,4.2-4,1-8.2c-2.7-3.6-4.1-3.7-7.9-0.9
			L162.8,237.5z M169.5,266.3l-28.3-37.5l11.1-8.4c8-6,14.2-6.5,20.8,2.2c6.5,8.7,5.6,13.7-3.5,20.5l-1.7,1.3l11,14.6L169.5,266.3"
			/>
		<path id="path8391" inkscape:connector-curvature="0" class="st2" d="M195.8,246.5L167.5,209l21.4-16.2l5.8,7.7l-11.6,8.7l4.8,6.4
			l9.5-7.2l6.1,8l-9.5,7.2l5.5,7.3l12.1-9.2l6.1,8L195.8,246.5"/>
		<path id="path8393" inkscape:connector-curvature="0" class="st2" d="M223.2,209.9c1.7,2.2,3.4,2.3,5,1.2c1.5-1.2,1.9-2.8,0.2-5.1
			l-2.8-3.7l-2.5,1.9l-5.3-7l12.4-9.3l15.7,20.9l-5.1,3.8l-2.9-0.9c-0.7,3.3-2.3,5.9-5.3,8.1c-9.8,7.4-15.2,4.2-26.3-10.5
			c-10.7-14.2-11.2-22-1.7-29.2c5.3-4,11.6-5.6,16.8-2.2c1.6,1.1,3.2,2.8,5.5,5.8l-9.9,7.5l-1.7-2.2c-1.7-2.2-3.4-2.3-4.9-1.2
			c-1.5,1.2-1.9,2.8-0.2,5.1L223.2,209.9"/>
		<path id="path8395" inkscape:connector-curvature="0" class="st2" d="M251.7,204.3l-28.3-37.5l9.9-7.5l28.3,37.5L251.7,204.3"/>
		<path id="path8397" inkscape:connector-curvature="0" class="st2" d="M273.1,154.3c3.2-2.4,4.2-4,1-8.2c-2.7-3.6-4.2-3.7-7.9-0.9
			L273.1,154.3z M279.8,183.2l-28.3-37.5l11.1-8.4c8-6,14.2-6.5,20.8,2.3c6.5,8.7,5.6,13.7-3.5,20.5l-1.7,1.3l11,14.6L279.8,183.2"
			/>
		<path id="path8399" inkscape:connector-curvature="0" class="st2" d="M306.1,163.4l-28.3-37.5l21.5-16.2l5.8,7.7l-11.6,8.7
			l4.8,6.4l9.6-7.2l6.1,8l-9.6,7.2l5.5,7.3l12.1-9.2l6.1,8.1L306.1,163.4"/>
		<path id="path8401" inkscape:connector-curvature="0" class="st2" d="M333.6,126.8c1.7,2.3,3.4,2.3,4.9,1.2
			c1.5-1.2,1.9-2.8,0.2-5.1l-2.8-3.7l-2.5,1.9l-5.3-7l12.4-9.3l15.7,20.9l-5.1,3.8l-2.9-0.9c-0.7,3.3-2.3,5.9-5.3,8.1
			c-9.8,7.4-15.2,4.2-26.3-10.5c-10.7-14.2-11.2-22-1.6-29.2c5.3-4,11.6-5.6,16.8-2.2c1.6,1.1,3.2,2.8,5.5,5.8l-9.9,7.5l-1.6-2.2
			c-1.7-2.2-3.4-2.3-5-1.2c-1.5,1.1-1.9,2.8-0.2,5.1L333.6,126.8"/>
		<path id="path8403" inkscape:connector-curvature="0" class="st2" d="M362.1,121.2l-28.3-37.5l9.9-7.5l28.3,37.5L362.1,121.2"/>
		<path id="path8405" inkscape:connector-curvature="0" class="st2" d="M383.4,71.2c3.2-2.4,4.2-4,1-8.2c-2.7-3.6-4.1-3.7-7.9-0.9
			L383.4,71.2z M390.2,100l-28.3-37.5l11.1-8.4c8-6,14.2-6.5,20.8,2.3c6.5,8.7,5.6,13.7-3.5,20.5l-1.7,1.3l11,14.6L390.2,100"/>
		<path id="path8407" inkscape:connector-curvature="0" class="st2" d="M416.4,80.2l-28.3-37.5l21.4-16.2l5.8,7.7L403.9,43l4.8,6.4
			l9.6-7.2l6.1,8l-9.5,7.2l5.5,7.3l12.1-9.2l6.1,8.1L416.4,80.2"/>
		<path id="path8409" inkscape:connector-curvature="0" class="st2" d="M443.9,43.6c1.7,2.3,3.4,2.3,5,1.2c1.5-1.2,1.9-2.8,0.2-5.1
			l-2.8-3.7l-2.5,1.9l-5.3-7l12.4-9.3l15.7,20.9l-5.1,3.8l-2.9-0.9c-0.7,3.3-2.3,5.9-5.3,8.1c-9.8,7.4-15.2,4.2-26.3-10.6
			c-10.7-14.2-11.2-22-1.6-29.2c5.3-4,11.6-5.6,16.8-2.2c1.6,1.1,3.2,2.8,5.5,5.8l-9.9,7.5l-1.6-2.2c-1.7-2.2-3.4-2.3-5-1.2
			c-1.5,1.1-1.9,2.8-0.2,5.1L443.9,43.6"/>
		<path id="path8411" inkscape:connector-curvature="0" class="st2" d="M14.1,462.9l-28.3-37.5l9.9-7.5L24,455.4L14.1,462.9"/>
		<path id="path8413" inkscape:connector-curvature="0" class="st2" d="M35.5,412.9c3.2-2.4,4.2-4,1-8.2c-2.7-3.6-4.2-3.7-7.9-0.9
			C28.6,403.8,35.5,412.9,35.5,412.9z M42.2,441.7L14,404.2l11.1-8.4c8-6,14.2-6.5,20.8,2.3c6.5,8.7,5.6,13.7-3.5,20.5l-1.7,1.3
			l11,14.6L42.2,441.7"/>
		<path id="path8415" inkscape:connector-curvature="0" class="st2" d="M68.5,421.9l-28.3-37.5l21.4-16.2l5.8,7.7L56,384.7l4.8,6.4
			l9.5-7.2l6.1,8l-9.5,7.2l5.5,7.3l12.1-9.1l6.1,8L68.5,421.9"/>
		<path id="path8417" inkscape:connector-curvature="0" class="st2" d="M96,385.3c1.7,2.2,3.4,2.3,5,1.2c1.5-1.2,1.9-2.8,0.2-5.1
			l-2.8-3.7l-2.5,1.9l-5.3-7l12.4-9.3l15.7,20.9l-5.1,3.8l-2.9-0.9c-0.7,3.3-2.3,5.9-5.3,8.1c-9.8,7.4-15.2,4.2-26.3-10.6
			c-10.7-14.2-11.2-22-1.7-29.2c5.3-4,11.6-5.6,16.8-2.2c1.6,1.1,3.2,2.8,5.5,5.8l-9.9,7.5l-1.7-2.2c-1.7-2.2-3.4-2.3-4.9-1.2
			c-1.5,1.2-1.9,2.8-0.2,5.1L96,385.3"/>
		<path id="path8419" inkscape:connector-curvature="0" class="st2" d="M124.5,379.7l-28.3-37.5l9.9-7.5l28.3,37.5L124.5,379.7"/>
		<path id="path8421" inkscape:connector-curvature="0" class="st2" d="M145.8,329.8c3.2-2.4,4.2-4,1-8.2c-2.7-3.6-4.2-3.7-7.9-0.9
			L145.8,329.8z M152.6,358.6l-28.3-37.5l11.1-8.4c8-6,14.2-6.5,20.8,2.2c6.5,8.7,5.6,13.7-3.5,20.5l-1.7,1.3l11,14.6L152.6,358.6"
			/>
		<path id="path8423" inkscape:connector-curvature="0" class="st2" d="M178.8,338.8l-28.3-37.5l21.4-16.2l5.8,7.7l-11.5,8.7
			l4.8,6.4l9.6-7.2l6.1,8l-9.5,7.2l5.5,7.3l12.1-9.1l6.1,8L178.8,338.8"/>
		<path id="path8425" inkscape:connector-curvature="0" class="st2" d="M206.3,302.2c1.7,2.2,3.4,2.3,5,1.2c1.5-1.2,1.9-2.8,0.2-5.1
			l-2.8-3.7l-2.5,1.9l-5.3-7l12.4-9.3l15.7,20.9l-5.1,3.8l-2.9-0.9c-0.7,3.3-2.3,5.9-5.3,8.1c-9.9,7.4-15.2,4.2-26.3-10.6
			c-10.7-14.2-11.2-22-1.6-29.2c5.3-4,11.6-5.6,16.8-2.2c1.6,1.1,3.2,2.8,5.5,5.8l-9.9,7.5l-1.7-2.2c-1.7-2.2-3.4-2.3-4.9-1.2
			c-1.5,1.2-1.9,2.8-0.2,5.1L206.3,302.2"/>
		<path id="path8427" inkscape:connector-curvature="0" class="st2" d="M234.8,296.6l-28.3-37.5l9.9-7.5l28.3,37.5L234.8,296.6"/>
		<path id="path8429" inkscape:connector-curvature="0" class="st2" d="M256.1,246.6c3.2-2.4,4.2-4,1-8.2c-2.7-3.6-4.1-3.7-7.9-0.9
			L256.1,246.6z M262.9,275.4l-28.3-37.5l11.1-8.4c8-6,14.2-6.5,20.8,2.3c6.5,8.7,5.6,13.7-3.5,20.5l-1.7,1.3l11,14.6L262.9,275.4"
			/>
		<path id="path8431" inkscape:connector-curvature="0" class="st2" d="M289.1,255.6l-28.3-37.5l21.5-16.2l5.8,7.7l-11.5,8.7
			l4.8,6.4l9.6-7.2l6.1,8l-9.5,7.2l5.5,7.3l12.1-9.1l6.1,8.1L289.1,255.6"/>
		<path id="path8433" inkscape:connector-curvature="0" class="st2" d="M316.6,219c1.7,2.3,3.4,2.3,4.9,1.2c1.5-1.2,1.9-2.8,0.2-5.1
			l-2.8-3.7l-2.5,1.9l-5.3-7l12.4-9.3l15.7,20.9l-5.1,3.8l-2.9-0.9c-0.7,3.3-2.3,5.9-5.3,8.1c-9.8,7.4-15.2,4.2-26.3-10.5
			c-10.7-14.2-11.2-22-1.7-29.2c5.3-4,11.6-5.6,16.8-2.2c1.7,1.1,3.2,2.8,5.5,5.8l-9.9,7.5l-1.6-2.2c-1.7-2.3-3.4-2.3-5-1.2
			c-1.5,1.2-1.9,2.8-0.2,5.1L316.6,219"/>
		<path id="path8435" inkscape:connector-curvature="0" class="st2" d="M345.1,213.5l-28.3-37.5l9.9-7.5L355,206L345.1,213.5"/>
		<path id="path8437" inkscape:connector-curvature="0" class="st2" d="M366.5,163.5c3.2-2.4,4.2-4,1-8.2c-2.7-3.6-4.1-3.7-7.8-0.9
			L366.5,163.5z M373.2,192.3l-28.3-37.5l11.1-8.4c8-6,14.2-6.5,20.8,2.3c6.5,8.7,5.6,13.7-3.5,20.5l-1.7,1.3l11,14.6L373.2,192.3"
			/>
		<path id="path8439" inkscape:connector-curvature="0" class="st2" d="M399.5,172.5L371.2,135l21.4-16.2l5.8,7.7l-11.5,8.7l4.8,6.4
			l9.5-7.2l6.1,8l-9.5,7.2l5.5,7.3l12.1-9.1l6.1,8.1L399.5,172.5"/>
		<path id="path8441" inkscape:connector-curvature="0" class="st2" d="M427,135.9c1.7,2.3,3.4,2.3,5,1.2c1.5-1.2,1.9-2.8,0.2-5.1
			l-2.8-3.7l-2.5,1.9l-5.3-7l12.4-9.3l15.7,20.9l-5.1,3.8l-2.9-0.9c-0.7,3.3-2.3,5.9-5.3,8.1c-9.9,7.4-15.2,4.2-26.3-10.5
			c-10.7-14.2-11.2-22-1.7-29.2c5.3-4,11.6-5.6,16.8-2.2c1.6,1.1,3.2,2.8,5.5,5.8l-9.9,7.5l-1.7-2.2c-1.7-2.3-3.4-2.3-4.9-1.2
			c-1.5,1.2-1.9,2.8-0.2,5.1L427,135.9"/>
		<path id="path8443" inkscape:connector-curvature="0" class="st2" d="M128.8,422c3.2-2.4,4.2-4,1-8.2c-2.7-3.6-4.2-3.7-7.9-0.9
			C122,412.9,128.8,422,128.8,422z M135.6,450.9l-28.3-37.5l11.1-8.4c8-6,14.2-6.5,20.8,2.3c6.5,8.7,5.6,13.7-3.5,20.5l-1.7,1.3
			l11,14.6L135.6,450.9"/>
		<path id="path8445" inkscape:connector-curvature="0" class="st2" d="M161.9,431.1l-28.3-37.5l21.5-16.2l5.8,7.7l-11.6,8.7
			l4.8,6.4l9.5-7.2l6.1,8l-9.5,7.2l5.5,7.3l12.1-9.1l6.1,8.1L161.9,431.1"/>
		<path id="path8447" inkscape:connector-curvature="0" class="st2" d="M189.4,394.5c1.7,2.2,3.4,2.3,5,1.2c1.5-1.2,1.9-2.8,0.2-5.1
			l-2.8-3.7l-2.5,1.9l-5.3-7l12.4-9.3l15.7,20.9L207,397l-2.9-0.9c-0.7,3.3-2.3,5.8-5.3,8.1c-9.8,7.4-15.2,4.2-26.3-10.5
			c-10.7-14.2-11.2-22-1.6-29.2c5.3-4,11.6-5.6,16.8-2.2c1.6,1.1,3.2,2.8,5.5,5.8l-9.9,7.5l-1.6-2.2c-1.7-2.2-3.4-2.3-5-1.2
			c-1.5,1.2-1.9,2.8-0.2,5.1L189.4,394.5"/>
		<path id="path8449" inkscape:connector-curvature="0" class="st2" d="M217.8,388.9l-28.3-37.5l9.9-7.5l28.3,37.5L217.8,388.9"/>
		<path id="path8451" inkscape:connector-curvature="0" class="st2" d="M239.2,338.9c3.2-2.4,4.2-4,1-8.2c-2.7-3.6-4.2-3.7-7.9-0.9
			C232.3,329.8,239.2,338.9,239.2,338.9z M245.9,367.7l-28.3-37.5l11.1-8.4c8-6,14.3-6.5,20.8,2.3c6.5,8.7,5.6,13.7-3.5,20.5
			l-1.7,1.3l11,14.6L245.9,367.7"/>
		<path id="path8453" inkscape:connector-curvature="0" class="st2" d="M272.2,347.9l-28.3-37.5l21.5-16.2l5.8,7.7l-11.6,8.7
			l4.8,6.4l9.6-7.2l6.1,8l-9.5,7.2l5.5,7.3l12.1-9.2l6.1,8.1L272.2,347.9"/>
		<path id="path8455" inkscape:connector-curvature="0" class="st2" d="M299.7,311.3c1.7,2.2,3.4,2.3,4.9,1.2
			c1.5-1.2,1.9-2.8,0.2-5.1l-2.8-3.7l-2.5,1.9l-5.3-7l12.4-9.3l15.7,20.9l-5.1,3.8l-2.9-0.9c-0.7,3.3-2.3,5.8-5.3,8.1
			c-9.8,7.4-15.2,4.2-26.3-10.5c-10.7-14.2-11.2-22-1.7-29.2c5.3-4,11.6-5.6,16.8-2.2c1.7,1.1,3.2,2.8,5.5,5.8l-9.9,7.5l-1.6-2.2
			c-1.7-2.2-3.4-2.3-5-1.2c-1.5,1.2-1.9,2.8-0.2,5.1L299.7,311.3"/>
		<path id="path8457" inkscape:connector-curvature="0" class="st2" d="M328.2,305.8l-28.3-37.5l9.9-7.5l28.3,37.5L328.2,305.8"/>
		<path id="path8459" inkscape:connector-curvature="0" class="st2" d="M349.5,255.7c3.2-2.4,4.2-4,1-8.2c-2.7-3.6-4.1-3.7-7.9-0.9
			L349.5,255.7z M356.2,284.6L328,247.1l11.1-8.4c8-6,14.3-6.5,20.8,2.3c6.5,8.7,5.6,13.7-3.5,20.6l-1.7,1.3l11,14.6L356.2,284.6"/>
		<path id="path8461" inkscape:connector-curvature="0" class="st2" d="M382.5,264.8l-28.3-37.5l21.5-16.2l5.8,7.7l-11.6,8.7
			l4.8,6.4l9.5-7.2l6.1,8.1l-9.5,7.2l5.5,7.3l12.1-9.2l6.1,8.1L382.5,264.8"/>
		<path id="path8463" inkscape:connector-curvature="0" class="st2" d="M410,228.2c1.7,2.2,3.4,2.3,4.9,1.2c1.5-1.2,1.9-2.8,0.2-5.1
			l-2.8-3.7l-2.5,1.9l-5.3-7l12.4-9.3l15.7,20.8l-5.1,3.8l-2.9-0.9c-0.7,3.3-2.3,5.9-5.3,8.1c-9.8,7.4-15.2,4.2-26.3-10.5
			c-10.7-14.2-11.2-22-1.7-29.2c5.3-4,11.6-5.6,16.8-2.2c1.6,1.1,3.2,2.8,5.5,5.8l-9.9,7.5l-1.6-2.2c-1.7-2.3-3.4-2.3-5-1.2
			c-1.5,1.2-1.9,2.8-0.2,5.1L410,228.2"/>
		<path id="path8465" inkscape:connector-curvature="0" class="st2" d="M438.5,222.6l-28.3-37.5l9.9-7.5l28.3,37.5L438.5,222.6"/>
		<path id="path8467" inkscape:connector-curvature="0" class="st2" d="M222.2,431.2c3.2-2.4,4.2-4,1-8.2c-2.7-3.6-4.2-3.7-7.9-0.9
			C215.4,422.1,222.2,431.2,222.2,431.2z M229,460l-28.3-37.5l11.1-8.4c8-6,14.3-6.5,20.8,2.3c6.5,8.7,5.6,13.7-3.5,20.5l-1.7,1.3
			l11,14.6L229,460"/>
		<path id="path8469" inkscape:connector-curvature="0" class="st2" d="M255.2,440.2L227,402.7l21.5-16.2l5.8,7.7l-11.6,8.7l4.8,6.4
			l9.5-7.2l6.1,8.1l-9.5,7.2l5.5,7.3l12.1-9.1l6.1,8.1L255.2,440.2"/>
		<path id="path8471" inkscape:connector-curvature="0" class="st2" d="M282.7,403.6c1.7,2.3,3.4,2.3,4.9,1.2
			c1.5-1.2,1.9-2.8,0.2-5.1l-2.8-3.7l-2.5,1.9l-5.3-7l12.4-9.3l15.7,20.9l-5.1,3.8l-2.9-0.9c-0.7,3.3-2.3,5.9-5.3,8.1
			c-9.8,7.4-15.2,4.2-26.3-10.5c-10.7-14.2-11.2-22-1.7-29.2c5.3-4,11.6-5.6,16.8-2.2c1.6,1.1,3.2,2.8,5.5,5.9l-9.9,7.5l-1.7-2.2
			c-1.7-2.2-3.4-2.3-5-1.2c-1.5,1.2-1.9,2.8-0.2,5.1L282.7,403.6"/>
		<path id="path8473" inkscape:connector-curvature="0" class="st2" d="M311.2,398l-28.3-37.5l9.9-7.5l28.3,37.5L311.2,398"/>
		<path id="path8475" inkscape:connector-curvature="0" class="st2" d="M332.5,348c3.2-2.4,4.2-4,1-8.2c-2.7-3.6-4.1-3.7-7.9-0.9
			L332.5,348z M339.3,376.9L311,339.3l11.1-8.4c8-6,14.3-6.5,20.8,2.3c6.5,8.7,5.6,13.7-3.4,20.5l-1.7,1.3l11,14.6L339.3,376.9"/>
		<path id="path8477" inkscape:connector-curvature="0" class="st2" d="M365.6,357.1l-28.3-37.5l21.5-16.2l5.8,7.7l-11.6,8.7
			l4.8,6.4l9.5-7.2l6.1,8.1l-9.6,7.2l5.5,7.3l12.1-9.1l6.1,8.1L365.6,357.1"/>
		<path id="path8479" inkscape:connector-curvature="0" class="st2" d="M393,320.5c1.7,2.3,3.4,2.3,5,1.2c1.5-1.2,1.9-2.8,0.2-5.1
			l-2.8-3.7l-2.5,1.9l-5.3-7l12.4-9.3l15.7,20.9l-5.1,3.8l-2.9-0.9c-0.7,3.3-2.3,5.9-5.3,8.1c-9.8,7.4-15.2,4.2-26.3-10.5
			c-10.7-14.2-11.2-22-1.6-29.2c5.3-4,11.6-5.6,16.8-2.2c1.6,1.1,3.2,2.8,5.5,5.8l-9.9,7.5l-1.7-2.2c-1.7-2.3-3.4-2.3-5-1.2
			c-1.5,1.2-1.9,2.8-0.2,5.1L393,320.5"/>
		<path id="path8481" inkscape:connector-curvature="0" class="st2" d="M421.5,314.9l-28.3-37.5l9.9-7.5l28.3,37.5L421.5,314.9"/>
		<path id="path8483" inkscape:connector-curvature="0" class="st2" d="M442.9,264.9c3.2-2.4,4.2-4,1-8.2c-2.7-3.6-4.2-3.7-7.9-0.9
			L442.9,264.9z M449.6,293.7l-28.3-37.5l11.1-8.4c8-6,14.2-6.5,20.8,2.3c6.5,8.7,5.6,13.7-3.5,20.5l-1.7,1.3l11,14.6L449.6,293.7"
			/>
		<path id="path8485" inkscape:connector-curvature="0" class="st2" d="M322,435.5c3.2-2.4,4.2-4,1-8.2c-2.7-3.6-4.2-3.7-7.9-0.9
			C315.1,426.4,322,435.5,322,435.5z M328.7,464.3l-28.3-37.5l11.1-8.4c8-6,14.3-6.5,20.8,2.3c6.5,8.7,5.6,13.7-3.5,20.6l-1.7,1.3
			l11,14.6L328.7,464.3"/>
		<path id="path8487" inkscape:connector-curvature="0" class="st2" d="M355,444.5L326.7,407l21.5-16.2l5.8,7.7l-11.6,8.7l4.8,6.4
			l9.5-7.2l6.1,8l-9.5,7.2l5.5,7.3l12.1-9.1l6.1,8L355,444.5"/>
		<path id="path8489" inkscape:connector-curvature="0" class="st2" d="M382.5,407.9c1.7,2.2,3.4,2.3,4.9,1.2
			c1.5-1.2,1.9-2.8,0.2-5.1l-2.8-3.7l-2.5,1.9l-5.3-7l12.4-9.3l15.7,20.8l-5.1,3.8l-2.9-0.9c-0.7,3.3-2.3,5.9-5.3,8.1
			c-9.8,7.4-15.2,4.2-26.3-10.6c-10.7-14.2-11.2-22-1.7-29.2c5.3-4,11.6-5.6,16.8-2.2c1.6,1.1,3.2,2.8,5.5,5.8l-9.9,7.5l-1.7-2.2
			c-1.7-2.3-3.4-2.3-5-1.2c-1.5,1.2-1.9,2.8-0.2,5.1L382.5,407.9"/>
		<path id="path8491" inkscape:connector-curvature="0" class="st2" d="M411,402.4l-28.3-37.5l9.9-7.5l28.3,37.5L411,402.4"/>
		<path id="path8493" inkscape:connector-curvature="0" class="st2" d="M432.3,352.4c3.2-2.4,4.2-4,1-8.2c-2.7-3.6-4.1-3.7-7.9-0.9
			L432.3,352.4z M439.1,381.2l-28.3-37.5l11.1-8.4c8-6,14.2-6.5,20.8,2.3c6.5,8.7,5.6,13.7-3.4,20.6l-1.7,1.3l11,14.6L439.1,381.2"
			/>
	</g>
</g>
<path id="path8707" inkscape:connector-curvature="0" class="st0" d="M416.7,417.2H7.2V7.6h409.6V417.2z M-1.4-0.9v426.6h426.6V-0.9
	H-1.4"/>
<g>
	<path class="st3" d="M388.2,199.4c4.1-1.4,8-3.5,11.1-6.5c6.8-6.6,9.6-17,7-26.1c-1-3.4-33.3-100.4-36.4-109.3
		c-1.4-5-3.6-10-7.5-13.7c-6.5-6.9-16.8-9.5-25.8-7.1c-1.5,0.4-182.8,62.7-187.5,64.9c-1.1,0.6-2.2,1.2-3.2,1.9
		c-3.5,2.7-6.5,6.1-8.4,10.2c-1.3,2.8-2.3,5.9-2.5,9c0,2.3,0,4.7,0.1,7c-6.8,0.9-13.4,2.7-19.6,5.5c-6.5,2.9-12.5,7-17.8,11.8
		c-2.8,2.6-5.3,5.4-7.7,8.4c-4.9,6.6-8.5,14-12.7,21c-0.6,1.1-1.3,2.2-1.9,3.3c-11.6,20.4-23.4,40.6-34.9,61c-2.3,4-4.7,8-6.9,12
		c-1.9,3.5-4,6.8-6,10.2c-2,3.7-4.1,7.4-6.3,11c-0.7,1.1-1.3,2.3-1.9,3.4c-0.9,2.9-0.5,6.3,1.7,8.5c3.1,3.5,9.3,3.5,12.2-0.3
		c2.7-3.7,4.7-7.9,7-11.8c1.3-2.3,2.7-4.6,4-6.9c2.2-3.8,4.3-7.5,6.5-11.3c4.3-7.5,8.6-15.1,13-22.5c1.8-3.4,3.8-6.7,5.8-10.1
		c1.1-1.9,2.1-3.7,3.2-5.6c1.9-3.4,3.8-6.7,5.7-10c0.8-1.3,1.6-2.7,2.3-4c2.5-4.4,5-8.9,7.7-13.3c4-7.1,8-14.2,12.2-21.3
		c8.5-13.5,23.7-21.8,39.4-23.2c0.5,1.2,19.4,57.9,23.5,70.2c-6.7,4.1-13.9,7.6-21.6,9.6c-5.8,1.9-7.2,10.5-2.2,14
		c3.8,3.4,9.1,1.1,13.3-0.3c9-3.2,17.6-7.6,25-13.5c1.2-0.9,2.3-1.8,3.5-2.7c6.3-4.9,12.7-9.7,19-14.6c1.7-1.3,3.3-2.6,5-3.9
		c3.5-2.6,7-5.3,10.4-8c3.3-3,7.9-4.2,12.3-3.6c8.1,1.1,13.9,10.1,11.4,18c-1.2,4.7-5.3,7.8-9,10.5c-8.3,6.5-16.6,13.1-24.9,19.7
		c-10.1,7.7-18.2,18-23.2,29.7c-2.2,4.9-3.5,10.2-6,15c-4.2,8.2-10.3,15.4-17.6,20.9c-1,0.7-2,1.4-3,2.1c-8.5,6-18.9,7.7-28.6,11
		c-6.3,2.5-12.3,5.7-17.7,9.7c-2,1.5-4.2,3.3-4.6,6c-0.2,2.5,0,5.3,1.9,7.1c2.5,3.1,7.3,3.5,10.7,1.4c6.1-4.9,13.2-8.5,20.7-10.7
		c8.7-2.1,17.3-5.2,24.9-10c1.8-1.1,3.6-2.3,5.4-3.6c6.7-4.8,12.2-11,16.6-17.9c1.4-2,2.8-4,4.2-6c0.8-1.3,1.6-2.6,2.3-3.9
		c4.3,2.2,8.9,3.9,13.8,4.2c2.6-0.2,5.1-0.5,7.6-1.2c3.6-1.4,7-3.5,9.8-6.3c1.4-1.5,2.5-3.2,3.7-4.8c1.2,0.5,2.4,1,3.6,1.4
		c4.8,1.4,10,1.4,14.8-0.2c7.1-2.2,12.9-7.8,15.6-14.7c6.1,1.6,12.6,0.1,18.2-2.4c7.7-4.1,8.7-14,7.6-21.8c-0.5-3.3-1.2-6.5-2-9.6
		 M213.1,274.1c-1.4,3.6-5.2,5.6-8.8,6.1c-2.6-0.6-5.3-1.3-7.1-3.4c1.9-3.7,4.1-7.2,6.8-10.2c1.6-2.7,3.6-5.6,7-6
		C212.2,264.9,215.2,269.5,213.1,274.1z M244.6,265.6c-2.5,4.4-9.4,5.5-13,1.8c-3.3-3.2-3.6-8-5-12.1c5.5-1.6,11-3.5,16.4-5.4
		C243.8,255,247.7,260.6,244.6,265.6z M272.6,253.7c-1.5,2-4.2,2.3-6.5,2.8c-2-0.5-4.2-1.1-5.5-2.9c-1.3-2.6-2-5.5-3.2-8.2
		c5-1.9,9.9-3.9,15.2-4.8l-0.5,1.2C273.6,245.4,275,250.1,272.6,253.7z M368.1,102.8c0.8,2.1,20.5,59.1,22.9,65.3
		c1.7,3.9,1.9,8.7-0.7,12.2c-1.7,2.6-4.6,4.3-7.6,5.2c0,0-135.4,46.9-143.9,50.1c3.5-3.1,7.5-5.7,10.4-9.5l0.4-0.2
		c4.9-6.9,7.4-15.7,5.7-24.1c-1.9-10.9-10.2-20-20.6-23.7c-3.7-1.2-7.6-1-11.4-1.6c-3.4,0.7-6.9,1.2-10.1,2.7
		c-4.9,2.1-8.9,5.8-13.2,8.9c-2.3,1.9-4.7,3.7-7.1,5.4l0.1,0.1c-4.1,3.2-8.7,5.5-13,8.4c-1.8,1.2-4.8,3.1-4.8,3.1
		c-2.2-5.7-9.6-28.1-11.4-32.2C170,170.8,367.4,103,368.1,102.8z M343.4,50.6c4,0.3,8,2.2,10.1,5.7c1.6,3.1,2.3,6.6,3.7,9.8
		c-16.5,5.9-199.3,68.6-204,70.2c-1.8-4.8-4.5-10-2.6-15.3c0.3-4.9,12.3-8.7,12.3-8.7C181,106.1,334.2,52.7,343.4,50.6z"/>
</g>
<g>
	<polygon class="st3" points="381.4,402.5 381.4,394.8 391.6,394.8 391.6,384.8 381.4,384.8 381.3,378 392.2,378 392.2,367.6 
		372,367.6 372,413 392.8,413 392.8,402.5 	"/>
	<path class="st3" d="M407.2,383.8c-3-1.6-4.5-6-1.9-8.7c3.2-1,3,3.4,3.1,5.5c2.9,0,5.9,0.2,8.8,0c0-3.1-0.1-6.4-1.5-9.2
		c-3.9-7-16.2-6.3-19.4,1c-1.8,4.2-1.6,9-1.1,13.5c1.5,6.9,10.5,7.2,12.8,12.3c1,2.1,1.1,6.5-2,7c-2.9-0.5-2-4.1-2.4-6.2
		c-3.1,0-6.1,0-9.2,0c0.1,4.7,0.2,10.9,5.1,13.4c5.5,2.4,14,1.9,16.9-4.1c2-4.7,2-10.1,0.9-15C416.1,388.4,411.3,386.1,407.2,383.8z
		"/>
	<path class="st3" d="M325.3,367.6l-7.9,45.3h9.7l1-7l6.1,0l1.1,7h9.8l-8-45.3H325.3z M329,396l2.6-18.3l1.8,18.3L329,396z"/>
	<path class="st3" d="M280.9,394c0.1,3.7,0.8,7.5-0.9,11.1c-1.1,2.2-2.7,0.6-2.9-0.1c-2.2-7.7-0.8-16.8-0.8-25.2
		c0.2-1.8,0.6-6.2,3.3-4.6c1.5,2.8,0.9,6,1,9c3.1,0,6.2,0,9.3-0.1c-0.2-5,0.2-10.8-3.3-14.8c-3.5-3.3-9-3.2-13.4-1.9
		c-4,1.3-5.9,5.6-6.3,9.5c-0.9,8-0.8,16-0.3,24c0.3,4.2,1.2,9.1,5.1,11.4c4.7,2.5,11.6,2.4,15.1-2.1c3.3-4.6,3.2-10.6,3.1-16.1
		C287,394.1,283.9,394.1,280.9,394z"/>
	<polygon class="st3" points="306.5,367.6 306.5,384 302,384 302,367.6 292.6,367.6 292.6,413 302,413 302,394.7 306.5,394.6 
		306.5,413 316,413 316,367.6 	"/>
	<path class="st3" d="M363.4,386.7c-2.9-1.9-7.1-3-8.1-6.8c-0.7-1.9,0.2-5.1,2.6-5c1.8,1.4,1.5,3.8,1.8,5.8c3,0,5.9,0,8.9,0
		c-0.2-4.7-0.6-10.6-5.4-12.9c-4.7-1.9-11.2-1.7-14.5,2.7c-3,4.2-3,9.7-2.5,14.6c0.6,4.5,4.4,7.5,8,9.6c2.3,1.5,5.5,2.9,5.3,6.2
		c-0.1,1.5-0.2,4.8-2.4,4.2c-2.8-0.2-2.1-4-2.1-5.8c-4,0-7.1,0-9.3,0c0.1,4,0,7.9,2.6,11.2c2.5,2.9,6.6,3.4,10.2,3.2
		c4.2-0.1,8.4-2.5,9.6-6.7c1.5-5.1,1.5-10.8-0.3-15.8C366.6,389.6,365.3,387.8,363.4,386.7z"/>
	<path class="st3" d="M263.3,397.1c-0.1-2.8-1.6-6.2-4.8-6.3c5.4-2.9,5.8-9.9,5-15.3c-0.5-3.5-2.7-7.2-6.5-7.7
		c-5.6-0.7-11.2-0.2-16.8-0.3c0.1,15.2,0.1,30.3,0,45.5c3.2,0,6.5,0,9.7,0c0-6,0-12,0-18.1c0.8,0,2.5-0.4,3.1,0.1
		c2.9,2.9,1.1,12.1,2.8,18c3.4,0,5.9,0,9.3,0C262.2,408.2,264.2,402.3,263.3,397.1z M249.8,386.8c0-3.4,0-6.8-0.1-10.2
		c1.5,0.2,3.4-0.1,4.1,1.7C254.7,381.7,254.6,387.1,249.8,386.8z"/>
	<path class="st3" d="M227.5,367.5c0,0,0,27.7,0,37.3c0,2.5-4.5,2.1-4.5,0.3c0-2,0-37.6,0-37.6h-9.3c0,0-0.6,25.4,0.6,37.9
		c1,8.7,13,10.9,18.8,5.6c3-3.2,3.7-7.9,3.8-12.1c0-10.5,0-31.5,0-31.5H227.5z"/>
	<path class="st3" d="M204,368c-5.3-0.9-10.7-0.3-16-0.5c0,15.2,0,30.4,0,45.5c3.1,0,6.2,0,9.4,0c0.1-5.7,0-11.4,0-17.1
		c3.4,0,7.4,0,10-2.6c4.2-3.8,4.2-10.1,3.8-15.3C210.9,373.7,208.5,368.9,204,368z M201,386c-1.2,0.3-2.4,0.7-3.6,1
		c-0.1-3.5-0.1-6.9,0-10.4c1.3,0.4,2.8,0.3,3.6,1.6C202,380.6,201.4,383.4,201,386z"/>
	<polygon class="st3" points="172.9,402.5 161.5,402.5 161.5,394.8 171.7,394.8 171.8,384.8 161.5,384.9 161.5,378 172.4,378 
		172.4,367.6 152,367.6 152,413 173,413 	"/>
	<polygon class="st3" points="148.5,367.6 135.1,367.6 131.8,394.9 129,367.6 115.4,367.6 115.4,413 124.3,413 124.4,380 128.5,413 
		135.4,413 139.6,380.9 139.6,413 148.6,413 	"/>
	<path class="st3" d="M105.4,367.6H94.2l-8,45.3h9.7l1.1-7h6.1l1.1,7h9.9l-7.4-45.3H105.4z M97.9,396l2.4-18.1l1.9,18.1L97.9,396z"
		/>
	<path class="st3" d="M73.8,388c0,2.8-0.1,5.5,0,8.3c0.7,0.1,2.6,0,2.6,0s0.9,7.9-2,8.9c-2.2,0.7-2.8-2-2.9-3.6
		c-0.2-6.9,0-13.7-0.1-20.6c0-2.1-0.4-5,1.7-6c1.3-0.7,3,0.6,3,1.8c0,1.6,0,3.5-0.1,5.2c3,0,6,0,9,0c0.1-4.4-0.3-9.3-3.4-12.7
		c-3.3-3.1-8.4-3.1-12.5-2c-4.7,1.7-6.5,7-7.1,11.5c-0.6,8.1-0.7,16.2,0.1,24.3c0.5,4.4,2.6,9.8,7.6,10.5c3.8,1.1,7.2-1.2,9-4.4
		c0,1.2-0.1,2.5-0.1,3.7c2.1,0,4.3,0,6.5,0c0.2-8.3,0.1-16.6,0.1-24.9C81.4,388.1,77.6,388.1,73.8,388z"/>
	<polygon class="st3" points="44,389.2 44,399.7 59.3,399.7 59.3,389.2 	"/>
	<polygon class="st3" points="32,367.6 32,396.1 27.3,367.6 17.1,367.6 17,413 25.7,413 25.5,385.5 31,413 41,413 41,367.6 	"/>
	<polygon class="st3" points="4.1,367.6 4.2,413 13.8,413 13.8,367.6 	"/>
</g>
<g>
	<polygon class="st3" points="384.3,35.9 388.2,35.9 388.2,16.7 395.1,35.9 397.8,35.9 405.4,16.5 405.4,35.9 409.4,35.9 
		409.4,11.1 403.2,11.1 396.8,29.2 390.7,11.1 384.3,11.1 	"/>
	<polygon class="st3" points="370.5,35.9 374.8,35.9 374.8,14.6 381.7,14.6 381.7,11.1 363.9,11.1 364,14.6 370.5,14.6 	"/>
</g>
</svg>
