<?xml version="1.0" encoding="UTF-8" standalone="no"?>
<!-- Generator: Adobe Illustrator 15.0.0, SVG Export Plug-In . SVG Version: 6.00 Build 0)  -->

<svg
   xmlns:dc="http://purl.org/dc/elements/1.1/"
   xmlns:cc="http://creativecommons.org/ns#"
   xmlns:rdf="http://www.w3.org/1999/02/22-rdf-syntax-ns#"
   xmlns:svg="http://www.w3.org/2000/svg"
   xmlns="http://www.w3.org/2000/svg"
   xmlns:xlink="http://www.w3.org/1999/xlink"
   xmlns:sodipodi="http://sodipodi.sourceforge.net/DTD/sodipodi-0.dtd"
   xmlns:inkscape="http://www.inkscape.org/namespaces/inkscape"
   version="1.1"
   id="Ebene_1"
   x="0px"
   y="0px"
   width="426.082px"
   height="519.378px"
   viewBox="0 0 426.082 519.378"
   enable-background="new 0 0 426.082 519.378"
   xml:space="preserve"
   inkscape:version="0.48.4 r9939"
   sodipodi:docname="PEGI_16[1].svg"><metadata
   id="metadata3325"><rdf:RDF><cc:Work
       rdf:about=""><dc:format>image/svg+xml</dc:format><dc:type
         rdf:resource="http://purl.org/dc/dcmitype/StillImage" /><dc:title></dc:title></cc:Work></rdf:RDF></metadata><defs
   id="defs3323" /><sodipodi:namedview
   pagecolor="#ffffff"
   bordercolor="#666666"
   borderopacity="1"
   objecttolerance="10"
   gridtolerance="10"
   guidetolerance="10"
   inkscape:pageopacity="0"
   inkscape:pageshadow="2"
   inkscape:window-width="1213"
   inkscape:window-height="778"
   id="namedview3321"
   showgrid="false"
   inkscape:zoom="0.90877936"
   inkscape:cx="141.77091"
   inkscape:cy="283.95617"
   inkscape:window-x="59"
   inkscape:window-y="-8"
   inkscape:window-maximized="1"
   inkscape:current-layer="Ebene_1" />

<g
   id="g3472"><g
     id="g3277">
	<defs
   id="defs3279">
		<rect
   height="536.125"
   width="426.082"
   y="-3.624"
   id="SVGID_1_" />
	</defs>
	<clipPath
   id="SVGID_2_">
		<use
   id="use3283"
   overflow="visible"
   xlink:href="#SVGID_1_" />
	</clipPath>
	
	
	
	<path
   id="path3291"
   d="M0,519.378h425.727V0H0 M417.195,417.194H8.513V8.508h408.682V417.194z"
   clip-path="url(#SVGID_2_)" />
	
	<polygon
   id="polygon3295"
   points="27.034,487.455 34.258,487.455 40.896,455.167 41.045,455.167    47.976,487.455 54.759,487.455 64.11,447.929 57.635,447.929 51.519,480.245 51.36,480.245 44.803,447.929 37.508,447.929    30.797,480.245 30.648,480.245 24.307,447.929 17.817,447.929  "
   fill="#FFFFFF"
   clip-path="url(#SVGID_2_)" />
	<polygon
   id="polygon3297"
   points="74.833,487.455 82.057,487.455 88.695,455.167 88.854,455.167    95.785,487.455 102.548,487.455 111.919,447.929 105.434,447.929 99.317,480.245 99.159,480.245 92.592,447.929 85.297,447.929    78.591,480.245 78.447,480.245 72.106,447.929 65.616,447.929  "
   fill="#FFFFFF"
   clip-path="url(#SVGID_2_)" />
	<polygon
   id="polygon3299"
   points="122.627,487.455 129.851,487.455 136.489,455.167 136.633,455.167    143.574,487.455 150.347,487.455 159.713,447.929 153.232,447.929 147.106,480.245 146.963,480.245 140.396,447.929    133.101,447.929 126.385,480.245 126.236,480.245 119.895,447.929 113.4,447.929  "
   fill="#FFFFFF"
   clip-path="url(#SVGID_2_)" />
	<rect
   id="rect3301"
   height="7.804"
   width="6.773"
   fill="#FFFFFF"
   clip-path="url(#SVGID_2_)"
   y="479.651"
   x="163.212" />
	<path
   id="path3303"
   d="M185.324,467.706   c0-9.012,1.107-15.492,7.966-15.492c5.757,0,7.228,6.06,7.228,14.744c0,10.182-1.471,16.221-7.228,16.221   C186.656,483.179,185.324,475.366,185.324,467.706 M179.5,500.435h6.184v-17.467h0.158c1.404,3.385,4.721,5.522,8.254,5.522   c10.248,0,12.913-12.539,12.913-21.532c0-11.715-3.547-20.055-12.913-20.055c-4.275,0-7.731,2.962-8.546,5.905H185.4v-4.88H179.5   V500.435z"
   fill="#FFFFFF"
   clip-rule="evenodd"
   fill-rule="evenodd"
   clip-path="url(#SVGID_2_)" />
	<path
   id="path3305"
   d="M219.035,463.564v-1.476   c0-2.34,0.733-10.315,7.224-10.315c5.455,0,6.854,5.225,6.854,9.653v2.138H219.035z M239.593,468.435v-2.502   c0-8.484-1.103-19.029-13.191-19.029c-12.16,0-14.083,11.428-14.083,21.32c0,13.565,4.055,20.267,13.723,20.267   c10.752,0,13.264-9.808,13.264-14.006h-6.193c0,2.942-0.824,9.146-6.711,9.146c-7.583,0-7.583-9.146-7.583-15.195H239.593z"
   fill="#FFFFFF"
   clip-rule="evenodd"
   fill-rule="evenodd"
   clip-path="url(#SVGID_2_)" />
	<path
   id="path3307"
   d="M258.632,452.214   c6.634,0,7.957,7.813,7.957,15.492c0,8.092-1.323,14.447-8.043,14.447c-6.174,0-7.143-8.043-7.143-14.447   C251.404,458.273,252.88,452.214,258.632,452.214 M272.408,447.929h-5.896v5.033h-0.153c-0.805-3.105-4.266-6.059-8.551-6.059   c-10.019,0-12.885,10.104-12.885,20.803c0,5.234,0.729,19.749,12.232,19.749c3.911,0,7.593-1.994,8.916-5.302h0.163v5.167   c0,2.723,0.277,8.839-7.688,8.839c-3.231,0-6.05-1.399-6.337-5.004h-6.193c1.026,9.874,10.546,9.874,12.961,9.874   c7.977,0,13.431-4.275,13.431-16.077V447.929z"
   fill="#FFFFFF"
   clip-rule="evenodd"
   fill-rule="evenodd"
   clip-path="url(#SVGID_2_)" />
	<path
   id="path3309"
   d="M280.912,487.455h6.192v-39.517   h-6.192V487.455z M280.912,441.899h6.192v-7.095h-6.192V441.899z"
   fill="#FFFFFF"
   clip-rule="evenodd"
   fill-rule="evenodd"
   clip-path="url(#SVGID_2_)" />
	<rect
   id="rect3311"
   height="7.804"
   width="6.777"
   fill="#FFFFFF"
   clip-path="url(#SVGID_2_)"
   y="479.651"
   x="296.979" />
	<path
   id="path3313"
   d="M313.64,487.455h6.212v-39.517h-6.212   V487.455z M313.64,441.899h6.212v-7.095h-6.212V441.899z"
   fill="#FFFFFF"
   clip-rule="evenodd"
   fill-rule="evenodd"
   clip-path="url(#SVGID_2_)" />
	<path
   id="path3315"
   d="M328.317,487.455h6.174v-27.274c0-5.752,4.516-7.967,7.833-7.967   c5.598,0,5.828,4.947,5.828,7.967v27.274h6.193v-28.022c0-4.63,0-12.529-10.411-12.529c-3.815,0-7.957,2.07-9.567,5.694h-0.153   v-4.669h-5.896V487.455z"
   fill="#FFFFFF"
   clip-path="url(#SVGID_2_)" />
	<path
   id="path3317"
   d="M364.305,487.455h6.212v-34.646h6.759v-4.88h-6.759v-4.63   c0-2.732,1.313-3.758,3.979-3.758h2.867v-5.312h-4.497c-5.981,0-8.561,3.097-8.561,9.069v4.63h-5.742v4.88h5.742V487.455z"
   fill="#FFFFFF"
   clip-path="url(#SVGID_2_)" />
	<path
   id="path3319"
   d="M379.634,467.706   c0,11.121,2.818,20.784,14.236,20.784c11.36,0,14.217-9.663,14.217-20.784c0-11.149-2.79-20.803-14.217-20.803   C382.53,446.903,379.634,456.557,379.634,467.706 M393.727,483.64c-6.347,0-7.583-7.401-7.583-15.934   c0-8.57,1.322-15.933,7.583-15.933c6.634,0,7.899,7.362,7.899,15.933C401.626,476.238,400.284,483.64,393.727,483.64"
   fill="#FFFFFF"
   clip-rule="evenodd"
   fill-rule="evenodd"
   clip-path="url(#SVGID_2_)" />
</g><g
     id="g3428"
     transform="matrix(0.71048411,0,0,0.72629927,-0.47306505,-1.1687917)"><path
       style="fill:#fca100"
       d="m 588.0059,587.98784 -575.99367,0 0,-575.99368 575.99367,0 0,575.99368 z"
       id="path3331"
       inkscape:connector-curvature="0" /><path
       d="m 237.78104,325.27105 c 4.35677,5.76787 2.99859,8.008 -1.4111,11.34172 l -9.45437,-12.55879 c 5.15051,-3.84525 7.17897,-3.70414 10.86547,1.21707 m 234.22507,152.52234 c 4.39205,5.76787 2.98095,8.04327 -1.37583,11.35936 l -9.47201,-12.54116 c 5.16816,-3.88052 7.19661,-3.6865 10.84784,1.1818 M 261.15239,197.95449 c 4.37442,5.76788 2.99859,8.04328 -1.39346,11.35936 L 250.3222,196.7727 c 5.11524,-3.86289 7.14369,-3.6865 10.83019,1.18179 M 155.72554,58.026228 c 4.33913,5.767873 2.99859,8.025634 -1.37583,11.341721 l -9.45437,-12.541157 c 5.0976,-3.862888 7.1437,-3.6865 10.8302,1.199436 M 85.576197,439.97589 c 4.339135,5.76788 2.998589,8.008 -1.393462,11.34172 l -9.472013,-12.55879 c 5.132879,-3.84525 7.161336,-3.70414 10.865475,1.21707 M 284.54139,70.63794 c 4.33913,5.750235 2.99859,8.043273 -1.4111,11.341721 l -9.4191,-12.558796 c 5.11524,-3.845249 7.1437,-3.6865 10.8302,1.217075 m 58.68415,394.56138 c 4.33913,5.75023 2.94567,8.02563 -1.42874,11.34172 l -9.45438,-12.54116 c 5.11524,-3.86289 7.16134,-3.70414 10.88312,1.19944 m 23.38899,-127.31656 c 4.32149,5.76788 2.99859,8.04328 -1.42874,11.34172 l -9.43674,-12.55879 c 5.15052,-3.84525 7.1437,-3.6865 10.86548,1.21707 M 518.81937,223.17792 c 4.33914,5.76787 2.98095,8.04327 -1.4111,11.34172 l -9.43673,-12.5588 c 5.13287,-3.84524 7.14369,-3.66886 10.84783,1.21708 M 413.37488,83.249651 c 4.33913,5.767874 2.99858,8.025635 -1.39347,11.341722 l -9.43673,-12.541157 c 5.11524,-3.862888 7.1437,-3.704139 10.8302,1.199435 m -23.389,127.316559 c 4.33914,5.76787 2.99859,8.04327 -1.39346,11.34172 l -9.43673,-12.54116 c 5.07996,-3.86289 7.14369,-3.6865 10.83019,1.19944 M 542.20836,95.861363 c 4.33914,5.767877 2.99859,8.025637 -1.37582,11.324087 l -9.50729,-12.541161 c 5.16816,-3.862888 7.19661,-3.6865 10.88311,1.217074 M 108.96519,312.65934 c 4.33913,5.76787 2.99859,8.02563 -1.37582,11.34172 l -9.454377,-12.57644 c 5.115237,-3.82761 7.143697,-3.66886 10.830197,1.23472 m 105.42686,139.92827 c 4.33913,5.76787 2.99859,8.00799 -1.39346,11.34172 l -9.43674,-12.5588 c 5.11524,-3.84525 7.1437,-3.6865 10.8302,1.21708 M 495.3951,350.49447 c 4.39205,5.76788 3.01623,8.02564 -1.37582,11.34173 l -9.43674,-12.54116 c 5.0976,-3.86289 7.12606,-3.70414 10.81256,1.19943 M 16.061852,44.21508 25.516226,56.773876 C 29.908277,53.44015 31.248823,51.182389 26.909688,45.432154 23.205549,40.52858 21.194731,40.352192 16.061852,44.21508 M 132.33654,185.36042 c 4.37442,5.76788 2.99859,8.02564 -1.39346,11.35936 l -9.45437,-12.57643 c 5.11524,-3.84525 7.1437,-3.70414 10.84783,1.21707 m 451.34054,-173.353712 -15.94543,0 5.78551,7.655221 10.15992,-7.655221 z m -292.90921,1.358184 -1.02305,-1.358184 -21.39581,0 8.73118,11.64158 13.68768,-10.283396 z m 52.58114,29.474365 c 15.39863,20.390404 22.77163,24.782455 36.33584,14.534336 4.05691,-3.051505 6.26176,-6.52634 7.30244,-11.147695 l 3.98636,1.28763 7.00259,-5.25635 -21.67803,-28.786453 -17.09196,12.858654 7.28481,9.683679 3.42192,-2.592898 3.84525,5.132879 c 2.34595,3.104421 1.81679,5.432737 -0.29986,7.037864 -2.11665,1.56985 -4.49789,1.446378 -6.84384,-1.640404 L 348.83466,20.314563 c -2.34595,-3.104421 -1.81679,-5.450376 0.26458,-7.020226 2.11665,-1.605127 4.53316,-1.499294 6.87912,1.605127 l 2.2754,3.051505 7.86688,-5.944261 -32.96684,0 c -3.42191,7.796331 -0.12347,17.144873 10.19521,30.832549 m 76.25235,-16.862653 -10.54798,-13.969896 -21.41345,0 18.27375,24.270931 13.68768,-10.301035 z m 52.59877,29.474365 c 15.34572,20.390404 22.73636,24.782455 36.30057,14.551975 4.07455,-3.069144 6.31467,-6.561618 7.32008,-11.147695 l 3.98636,1.269991 7.00259,-5.273989 -21.67803,-28.733537 -17.05668,12.841016 7.24953,9.66604 3.40428,-2.575259 3.84525,5.097601 c 2.36359,3.12206 1.83443,5.450376 -0.29986,7.037864 -2.11665,1.587489 -4.49789,1.481656 -6.8262,-1.622765 L 477.61523,32.908636 c -2.32831,-3.086782 -1.78151,-5.432737 0.35278,-7.002587 2.11665,-1.605127 4.49788,-1.499294 6.8262,1.605127 l 2.25776,3.033867 13.68767,-10.301035 c -3.17497,-4.162747 -5.34454,-6.596896 -7.65522,-8.043274 -0.14111,-0.105832 -0.29986,-0.105832 -0.44097,-0.194026 l -17.46237,0 c -1.78151,0.881938 -3.5983,1.940263 -5.27398,3.227893 -13.15852,9.895343 -12.47061,20.672624 2.29303,40.216368 m 76.19944,-16.880292 -20.01999,-26.563969 -21.39582,0 27.76341,36.865004 13.6524,-10.301035 z M 71.077138,69.2092 101.46872,46.296453 93.143224,35.219313 76.368766,47.831025 68.766461,37.724017 81.942613,27.793396 73.564203,16.680979 60.40569,26.629238 l -6.632173,-8.784101 7.743414,-5.838429 -22.207196,0 -7.231891,5.450376 38.999294,51.752116 z m 128.833492,12.629351 30.39158,-22.930386 -8.37841,-11.094778 -16.73918,12.62935 -7.61995,-10.089369 13.17615,-9.930621 -8.37841,-11.112417 -13.14087,9.912982 -6.63217,-8.784102 15.92779,-12.011994 -4.81538,-6.420508 -8.85465,0 -23.97107,18.044449 39.03457,51.787394 z m 50.94073,-37.041392 c 4.07455,-3.069144 6.31468,-6.543979 7.30245,-11.165334 l 4.00399,1.269991 6.98495,-5.25635 -13.26434,-17.638758 -23.15969,0 -2.29304,1.746237 7.24953,9.630762 3.42192,-2.55762 3.88052,5.132878 c 2.31068,3.086783 1.76388,5.432738 -0.35277,7.020226 -2.11665,1.587488 -4.49789,1.464017 -6.84384,-1.658043 l -14.53434,-19.31444 -19.19097,0 c 1.65805,5.168156 5.11524,11.112417 10.45979,18.220837 15.39863,20.390404 22.77163,24.782455 36.33584,14.569614 M 122.03551,32.185447 c 4.07455,-3.086783 6.29704,-6.561618 7.30245,-11.147695 l 3.98636,1.234713 6.98494,-5.25635 -3.75705,-5.009407 -21.39582,0 0.98777,1.322907 c 2.31068,3.12206 1.78152,5.432737 -0.33513,7.020225 -2.11665,1.605127 -4.49788,1.481656 -6.84384,-1.622765 l -5.06232,-6.720367 -22.119006,0 c 1.199436,1.816792 2.451788,3.633584 3.933443,5.609125 15.380993,20.408043 22.754003,24.782455 36.318203,14.569614 m 417.77398,480.144633 39.05221,51.76975 9.13688,-6.93203 0,-9.31326 -34.50141,-45.8255 -13.68768,10.30104 z m -35.6832,57.41416 -13.17616,9.93062 -6.61453,-8.80174 15.91016,-11.99436 -8.02564,-10.67145 -29.59783,22.29539 13.19379,17.49765 27.18133,0 9.50729,-7.1437 -8.37841,-11.11241 z m 55.75611,4.32149 4.02164,1.25235 6.98494,-5.23871 -21.64275,-28.76881 -17.09196,12.87629 7.24953,9.6484 3.42192,-2.57526 3.88053,5.13288 c 2.34595,3.06915 1.76387,5.4151 -0.35278,7.00259 -2.09901,1.60513 -4.49788,1.48165 -6.79092,-1.60513 l -17.83278,-23.65357 c -2.34596,-3.12206 -1.8168,-5.43274 0.29986,-7.03787 2.09901,-1.58749 4.49788,-1.46401 6.84383,1.64041 l 2.2754,3.03386 13.6524,-10.30103 c -3.1397,-4.18039 -5.30926,-6.5969 -7.58466,-8.06091 -7.26717,-4.70955 -15.91016,-2.48707 -23.21261,3.03386 -13.19379,9.91299 -12.48824,20.67263 2.25776,40.21637 6.57926,8.71355 11.6945,14.35795 16.45696,17.3389 l 15.57503,0 c 1.4111,-0.7761 2.8222,-1.65804 4.32149,-2.78692 4.02164,-3.05151 6.26176,-6.54398 7.26717,-11.1477 m -118.1444,12.13547 -2.39887,1.79915 29.98589,0 c -8.66063,-10.5127 -17.00377,-9.75423 -27.58702,-1.79915 m -137.63523,-5.92663 -10.30103,7.72578 41.75094,0 c -0.8643,-1.51693 -1.44638,-2.92803 -2.71637,-4.62135 -9.08396,-12.04728 -17.67404,-11.44756 -28.73354,-3.10443 m 57.57291,4.53317 13.15851,-9.93063 -8.34313,-11.11241 -13.15852,9.94826 -6.66745,-8.80174 15.96308,-12.012 -8.04327,-10.67145 -29.61548,22.31303 17.67404,23.45955 21.43109,0 -2.39887,-3.19261 z M 204.02046,570.78492 c -9.06632,-12.04727 -17.67404,-11.46519 -28.73354,-3.12206 l -15.36336,11.57103 6.57926,8.76646 20.65498,0 -7.00258,-9.29563 c 5.11524,-3.89816 7.16133,-3.70413 10.84783,1.1818 2.87512,3.80997 3.06915,6.0501 1.74624,8.11383 l 15.9278,0 c 1.86971,-5.04468 0.56444,-10.2834 -4.65663,-17.21543 m 53.16321,-1.12888 -16.73918,12.62935 -7.56702,-10.07173 13.12323,-9.94826 -8.32549,-11.07714 -13.17615,9.91298 -6.63218,-8.80174 15.9278,-12.01199 -8.04327,-10.67145 -29.61548,22.31303 27.19897,36.07126 32.64934,0 9.59548,-7.23189 -8.39605,-11.11242 z m 121.26647,18.34431 11.90616,0 -4.33914,-5.71496 -7.56702,5.71496 z m 200.12934,-104.88005 9.4191,12.48824 0,-19.59666 -9.4191,7.10842 z m -24.20037,-91.4746 33.61947,44.60842 0,-28.41604 -19.9318,-26.47578 -13.68767,10.2834 z m 15.71613,-85.42451 7.26717,9.6484 3.42192,-2.57526 3.86289,5.11524 c 2.34595,3.10442 1.78151,5.43274 -0.35278,7.02023 -2.09901,1.60513 -4.4626,1.48165 -6.80856,-1.64041 l -17.79751,-23.63593 c -2.34595,-3.10442 -1.79915,-5.4151 0.29986,-7.02023 2.11665,-1.58749 4.51552,-1.46401 6.84384,1.62277 l 2.25776,3.0515 13.68768,-10.31867 c -3.1397,-4.16275 -5.34455,-6.57926 -7.61995,-8.04327 -7.23189,-4.70955 -15.89252,-2.50471 -23.19496,3.03386 -13.17615,9.91299 -12.45297,20.67263 2.2754,40.21637 14.34031,19.04986 21.81914,23.97107 33.76058,16.19238 l 0,-44.41439 -0.84666,-1.12888 -17.05668,12.87629 z m 5.23871,-151.0936 c -13.15851,9.94826 -12.45296,20.7079 2.29304,40.25165 3.88053,5.18579 7.26717,9.29562 10.37159,12.45296 l 0,-28.43368 -4.92121,-6.54398 c -2.34596,-3.10442 -1.79916,-5.43274 0.31749,-7.00258 1.44638,-1.11125 3.03387,-1.32291 4.60372,-0.38806 l 0,-15.64558 c -4.30386,0.45861 -8.66063,2.31068 -12.66463,5.30927 m -6.26176,-86.853244 15.9278,-12.011994 -8.06091,-10.671449 -29.54492,22.313029 38.99929,51.752118 1.60513,-1.21708 0,-25.029394 -3.95108,-5.238711 3.95108,-2.98095 0,-17.409454 -12.32949,9.277986 -6.5969,-8.784101 z m 18.92639,209.636634 0,-21.28998 -10.21284,7.70814 10.21284,13.58184 z m -19.70249,-52.33419 -7.61995,-10.08937 13.14088,-9.93062 -8.34313,-11.07714 -13.15852,9.91298 -6.61453,-8.80174 15.91016,-11.97672 -8.04328,-10.68908 -29.56255,22.29539 38.99929,51.76975 24.99412,-18.87347 0,-11.18297 -2.99859,-3.98636 -16.7039,12.62935 z m -516.974361,340.48095 9.454374,12.57643 c 4.392051,-3.33373 5.767874,-5.59149 1.411101,-11.34172 -3.6865,-4.90358 -5.732596,-5.06233 -10.865475,-1.23471 m -39.316791,-368.86171 0,26.26411 12.611712,-9.54257 -12.611712,-16.72154 z m 10.918391,63.25258 -8.025635,-10.67144 -2.892756,2.1872 0,16.70391 10.918391,-8.21967 z m -6.385231,-96.85442 c -1.516933,-2.02845 -3.016227,-3.54539 -4.53316,-4.88593 l 0,33.01975 c 12.223659,-9.31326 13.476011,-16.26293 4.53316,-28.13382 m 6.420508,253.55715 -10.953668,8.2373 0,17.39182 19.332078,-14.55198 -8.37841,-11.07714 z m 31.749765,-116.23941 -8.360772,-11.09478 -16.739181,12.62935 -7.602305,-10.08937 13.176153,-9.93062 -8.37841,-11.11242 -13.176153,9.94826 -1.622765,-2.16957 0,28.43368 12.294214,16.31585 30.409219,-22.93038 z m -2.822202,113.20554 c 4.056915,-3.06914 6.26176,-6.56161 7.284807,-11.14769 l 4.021637,1.25235 6.984948,-5.25635 -21.678033,-28.76881 -17.091957,12.87629 7.284807,9.6484 3.42192,-2.57526 3.862888,5.13288 c 2.328316,3.08678 1.781514,5.43274 -0.317498,7.03786 -2.13429,1.58749 -4.515522,1.44638 -6.826199,-1.6404 L 21.000704,377.02317 c -2.328316,-3.10443 -1.799153,-5.43274 0.317498,-7.03787 2.116651,-1.58749 4.497883,-1.44638 6.843838,1.64041 l 2.2754,3.03386 13.652398,-10.26575 c -3.157337,-4.21567 -5.344543,-6.61454 -7.584666,-8.09619 -7.267168,-4.69191 -15.910159,-2.48707 -23.230244,3.03386 -0.493885,0.35278 -0.811383,0.74083 -1.26999,1.0936 l 0,34.09572 c 1.111241,1.62277 2.204844,3.26317 3.54539,5.02705 15.380997,20.42568 22.753998,24.81773 36.335841,14.56961 m 26.211195,-240.50446 -8.360771,-11.09478 -16.756821,12.64699 -7.584666,-10.12465 13.158514,-9.94826 -8.360771,-11.07714 -13.176153,9.91298 -6.632173,-8.80174 15.927799,-11.99435 -8.043274,-10.67145 -26.26411,19.80833 0,6.91439 35.700846,47.36006 30.39158,-22.93038 z M 34.847129,96.531636 12.004938,66.210611 l 0,-33.548917 c 10.653809,-7.778693 19.067497,-8.113829 27.904515,3.615945 9.013405,11.976717 7.761053,18.926387 -4.744826,28.363123 l -2.381232,1.781514 15.222248,20.17874 -13.158514,9.93062 z M 20.700845,491.67509 c -3.139699,-4.19802 -5.326905,-6.61453 -7.602304,-8.06091 -0.352776,-0.2293 -0.740828,-0.26458 -1.093603,-0.44097 l 0,15.0635 8.695907,-6.56162 z m 107.666975,65.38688 -16.7039,12.59407 -7.6023,-10.05409 13.17615,-9.94826 -8.37841,-11.11242 -13.176154,9.94826 -6.649812,-8.7841 15.945436,-12.02963 -8.025634,-10.67145 -29.597836,22.29539 36.67098,48.70061 6.40287,0 26.31702,-19.8436 -8.37841,-11.09478 z m -57.943316,29.43909 -1.975541,1.49929 -21.237064,0 -16.104186,-21.37817 15.363358,-11.57103 c 11.059501,-8.34313 19.649576,-8.92521 28.715898,3.08678 9.048683,11.97672 7.761053,18.92639 -4.762465,28.36313 M 28.497176,541.41639 c 4.074553,-3.0515 6.279398,-6.54398 7.284807,-11.14769 l 4.021637,1.26999 6.96731,-5.27399 -21.660395,-28.75118 -13.105597,9.86007 0,8.27258 3.316086,4.39205 3.40428,-2.57526 3.84525,5.13288 c 2.345954,3.08678 1.799153,5.41509 -0.299859,7.00258 -2.116651,1.58749 -4.497884,1.48166 -6.843838,-1.62276 l -3.421919,-4.51553 0,22.41887 c 5.115239,1.78151 10.124647,0.33513 16.492238,-4.46261 m 549.941194,-86.6945 7.03787,-5.30926 -21.67804,-28.76882 -17.09195,12.85866 7.2848,9.70132 3.42192,-2.5929 3.84525,5.0976 c 2.34596,3.1397 1.8168,5.45038 -0.29986,7.03786 -2.11665,1.56985 -4.49788,1.48166 -6.84383,-1.6404 l -17.83279,-23.65357 c -2.34595,-3.08679 -1.81679,-5.4151 0.3175,-7.00259 2.11665,-1.58749 4.48024,-1.48166 6.84384,1.62276 l 2.25776,3.03387 13.68767,-10.30103 c -3.15733,-4.18039 -5.34454,-6.5969 -7.61994,-8.06092 -7.26717,-4.70955 -15.91016,-2.48706 -23.19497,3.01623 -13.17615,9.93062 -12.45296,20.69026 2.2754,40.25165 15.34572,20.3904 22.71872,24.76481 36.30057,14.55197 4.09219,-3.06914 6.29703,-6.56162 7.28481,-11.16533 l 4.00399,1.3229 z m -31.85559,23.97108 -8.34314,-11.11242 -16.75682,12.61171 -7.58466,-10.07173 13.17615,-9.94826 -8.37841,-11.07714 -13.19379,9.91298 -6.64981,-8.7841 15.96307,-12.01199 -8.02563,-10.68909 -29.59784,22.31303 38.9993,51.76975 30.39158,-22.91274 z m -53.49836,40.28692 -15.16933,-20.17874 2.34596,-1.78151 c 12.52351,-9.4191 13.81114,-16.35113 4.76246,-28.32785 -9.04868,-12.04727 -17.67403,-11.44755 -28.73354,-3.12206 l -15.32808,11.55339 38.9993,51.78739 13.12323,-9.93062 z m -38.25846,28.85701 -38.9993,-51.76976 -13.63476,10.2834 38.9993,51.76975 13.63476,-10.28339 z m -21.60748,16.28057 -21.64276,-28.78645 -17.09195,12.87629 7.2848,9.6484 3.42192,-2.53998 3.84525,5.0976 c 2.34596,3.06915 1.79915,5.43274 -0.29986,7.03787 -2.11665,1.58749 -4.49788,1.44638 -6.84384,-1.64041 l -17.83278,-23.65357 c -2.31068,-3.08678 -1.76388,-5.4151 0.35278,-7.00259 2.08137,-1.58749 4.49788,-1.48165 6.84383,1.62277 l 2.25776,3.01622 13.61713,-10.28339 c -3.1397,-4.18039 -5.30927,-6.5969 -7.58467,-8.06091 -7.21425,-4.72719 -15.87488,-2.48707 -23.21261,3.01622 -13.15851,9.93062 -12.43532,20.69027 2.25777,40.23401 15.41627,20.39041 22.80691,24.78246 36.35348,14.56962 4.07455,-3.08679 6.26175,-6.5969 7.30244,-11.18298 l 3.98636,1.25235 6.98495,-5.22107 z m -45.86077,-75.14111 30.44449,-22.8951 -8.39604,-11.11242 -16.72155,12.62935 -7.61994,-10.08937 13.15851,-9.94826 -8.36077,-11.0595 -13.17615,9.89534 -6.5969,-8.7841 15.9278,-12.02963 -8.06091,-10.67145 -29.59784,22.31303 38.9993,51.75211 z m -23.03622,17.39182 -15.25753,-20.17874 2.38124,-1.78152 c 12.52351,-9.41909 13.79351,-16.3864 4.76246,-28.32784 -9.06632,-12.02963 -17.67403,-11.46519 -28.73354,-3.12206 l -15.38099,11.57102 39.05221,51.7874 13.17615,-9.94826 z m -38.2761,28.85701 -39.03458,-51.76976 -13.6524,10.2834 38.9993,51.76975 13.68768,-10.28339 z m -21.62512,16.28057 -21.69567,-28.76881 -17.03904,12.85865 7.24952,9.66604 3.42192,-2.55762 3.84525,5.0976 c 2.34596,3.10442 1.79916,5.45038 -0.29986,7.03787 -2.11665,1.58748 -4.49788,1.42873 -6.84383,-1.64041 l -17.81515,-23.65357 c -2.32832,-3.10443 -1.78151,-5.4151 0.3175,-7.00259 2.13429,-1.58749 4.51552,-1.48166 6.84384,1.62277 l 2.2754,2.99858 13.68767,-10.26575 c -3.19261,-4.18039 -5.37982,-6.5969 -7.61994,-8.06092 -7.24953,-4.70954 -15.91016,-2.48706 -23.24788,3.01623 -13.12324,9.93062 -12.43533,20.69027 2.2754,40.25165 15.36335,20.35512 22.78927,24.76481 36.35348,14.55197 4.07455,-3.06914 6.26175,-6.56161 7.24953,-11.13005 l 4.03927,1.23471 7.00259,-5.25635 z m -45.84313,-75.14111 30.39158,-22.91275 -8.36078,-11.09477 -16.75682,12.61171 -7.58466,-10.07173 13.14087,-9.94826 -8.32549,-11.09478 -13.17615,9.93062 -6.64981,-8.7841 15.92779,-12.02964 -8.06091,-10.65381 -29.5802,22.31303 39.03458,51.73448 z m -23.08914,17.39182 -15.22225,-20.17874 2.34596,-1.78152 c 12.52352,-9.43673 13.79351,-16.36876 4.81538,-28.36312 -9.11924,-12.01199 -17.67404,-11.42992 -28.73354,-3.08678 l -15.38099,11.58866 38.99929,51.76976 13.17615,-9.94826 z m -38.25846,28.857 -38.9993,-51.76975 -13.68767,10.2834 38.99929,51.76975 13.68768,-10.2834 z m -21.60748,16.26294 -21.69568,-28.75118 -17.07431,12.85866 7.26717,9.63076 3.42191,-2.53998 3.88053,5.13288 c 2.31068,3.06914 1.76388,5.43274 -0.33514,7.02022 -2.11665,1.56985 -4.49788,1.44638 -6.84383,-1.6404 L 126.4452,516.93379 c -2.32832,-3.08678 -1.79915,-5.39746 0.3175,-7.00258 2.09901,-1.62277 4.48024,-1.4993 6.8262,1.62276 l 2.2754,3.01623 13.67003,-10.2834 c -3.1397,-4.19802 -5.3269,-6.57925 -7.6023,-8.09618 -7.26717,-4.67428 -15.89252,-2.45179 -23.24788,3.0515 -13.12324,9.94826 -12.40005,20.69026 2.31067,40.21637 15.36336,20.42568 22.73636,24.80009 36.30057,14.58725 4.07455,-3.10442 6.29703,-6.56162 7.30244,-11.16533 l 3.98636,1.25235 7.03787,-5.25635 z m -45.86077,-75.10583 30.37394,-22.93039 -8.36077,-11.07714 -16.75682,12.59408 -7.60231,-10.07174 13.17615,-9.93062 -8.37841,-11.11241 -13.14087,9.93062 -6.64981,-8.80174 15.94543,-11.97672 -8.02563,-10.67145 -29.615475,22.26011 39.034575,51.7874 z m -23.08914,17.37417 -15.222246,-20.14346 2.345954,-1.81679 c 12.523522,-9.43673 13.793512,-16.36877 4.762465,-28.32784 -9.066322,-12.04728 -17.656397,-11.4652 -28.715898,-3.12206 L 54.479067,439.32326 93.496,491.09301 106.67215,481.14475 z M 68.413686,510.00176 29.396753,458.23201 15.726716,468.5154 54.726009,520.28516 68.413686,510.00176 z M 78.115003,392.98624 91.802679,382.68521 52.768107,330.91545 39.115709,341.21649 78.115003,392.98624 z M 75.257524,286.78328 c 4.074553,-3.05151 6.297036,-6.54398 7.284807,-11.13006 l 4.039275,1.26999 6.984949,-5.27398 -21.678034,-28.76882 -17.091956,12.87629 7.284807,9.64841 3.40428,-2.53999 3.880527,5.09761 c 2.328316,3.10442 1.781514,5.41509 -0.317498,7.02022 -2.116651,1.58749 -4.497883,1.46402 -6.843838,-1.62276 L 44.407336,249.70661 c -2.345955,-3.12206 -1.816792,-5.43274 0.299859,-7.02022 2.099012,-1.60513 4.497883,-1.48166 6.826199,1.65804 l 2.293039,2.99859 13.652399,-10.2834 c -3.139699,-4.18038 -5.362183,-6.59689 -7.602305,-8.06091 -7.231891,-4.70955 -15.91016,-2.5047 -23.230244,3.01623 -13.140875,9.91298 -12.435325,20.69026 2.275399,40.21636 15.380997,20.40805 22.753998,24.8001 36.335842,14.55198 M 62.522341,213.89993 101.52163,265.66969 115.15639,255.38629 76.1571,203.5989 62.522341,213.89993 z m 36.159453,-54.41557 c 4.021636,-3.06914 6.261756,-6.56161 7.249526,-11.14769 l 4.03928,1.26999 6.98495,-5.27399 -21.695675,-28.76881 -17.056679,12.87629 7.24953,9.6484 3.421919,-2.55762 3.880527,5.11524 c 2.345955,3.10442 1.799153,5.43274 -0.317498,7.03786 -2.13429,1.56985 -4.515522,1.44638 -6.861477,-1.65804 L 67.77869,122.37242 c -2.345954,-3.08679 -1.781514,-5.4151 0.317498,-7.00259 2.116651,-1.58749 4.497883,-1.48166 6.826199,1.62277 l 2.2754,3.03386 13.670038,-10.30103 c -3.139699,-4.18039 -5.344544,-6.57926 -7.584666,-8.06092 -7.267169,-4.709544 -15.91016,-2.48706 -23.230245,3.03387 -13.158513,9.93062 -12.452963,20.69026 2.2754,40.21637 15.363358,20.40804 22.753998,24.80009 36.35348,14.56961 M 85.876056,86.583377 124.87535,138.35313 138.54539,128.0521 99.563732,76.282342 85.876056,86.583377 z m 38.769994,-29.209784 38.99929,51.769757 13.17615,-9.948261 -15.22225,-20.161101 2.34596,-1.763875 C 176.46872,67.833377 177.73871,60.866068 168.76058,48.90699 159.64134,36.859718 151.08654,37.459436 140.0094,45.802568 l -15.36335,11.571025 z m 54.36265,99.218017 -13.17615,9.94826 -6.61454,-8.80174 15.91016,-12.012 -8.02563,-10.67145 -29.5802,22.31303 38.99929,51.76976 30.40922,-22.89511 -8.36077,-11.11242 -16.75682,12.62935 -7.6023,-10.08937 13.17615,-9.94826 -8.37841,-11.13005 z m 12.13546,0.95249 c 15.36336,20.42568 22.754,24.78246 36.35348,14.55198 4.02164,-3.06915 6.24412,-6.56162 7.26717,-11.16534 l 4.02164,1.28763 7.00259,-5.27399 -21.71331,-28.76881 -17.07432,12.85865 7.26717,9.66604 3.42191,-2.57526 3.89817,5.13288 c 2.34595,3.08678 1.74624,5.4151 -0.3175,7.00259 -2.15193,1.60513 -4.53316,1.48165 -6.87911,-1.64041 l -17.79751,-23.63593 c -2.34595,-3.08678 -1.79915,-5.4151 0.3175,-7.02023 2.11665,-1.58749 4.49788,-1.46401 6.84384,1.64041 l 2.2754,3.01623 13.65239,-10.2834 c -3.13969,-4.18039 -5.3269,-6.5969 -7.58466,-8.06091 -7.26717,-4.70955 -15.9278,-2.48707 -23.21261,3.01622 -13.17615,9.93063 -12.45296,20.70791 2.25776,40.25165 m 23.54775,-58.36665 38.99929,51.76975 13.68768,-10.26575 -38.9993,-51.787396 -13.68767,10.283396 z m 38.76999,-29.209783 38.99929,51.787393 13.17615,-9.93062 -15.22225,-20.196378 2.34596,-1.763876 C 305.30221,80.42745 306.5722,73.495418 297.54115,61.518702 288.45719,49.47143 279.90239,50.071148 268.82525,58.396641 L 253.4619,69.967667 z m 36.23,-27.287159 39.05222,51.752116 30.37394,-22.895108 -8.37841,-11.130056 -16.70391,12.629351 -7.63758,-10.08937 13.17615,-9.930621 -8.37841,-11.094779 -13.14087,9.930621 -6.64981,-8.80174 15.94543,-12.011994 -8.02563,-10.689088 -29.63312,22.330668 z m 67.48589,58.807622 -13.6524,10.30103 38.9993,51.7874 13.67004,-10.30104 -39.01694,-51.78739 z m 25.11759,-18.891113 38.9993,51.769753 13.17615,-9.94826 -15.22225,-20.1611 2.34596,-1.78151 c 12.52352,-9.419099 13.82878,-16.36877 4.81538,-28.345486 -9.08396,-12.047272 -17.67404,-11.447554 -28.73354,-3.122061 l -15.381,11.588664 z m 36.23001,-27.322436 38.98166,51.769759 30.44449,-22.895112 -8.39604,-11.112417 -16.72155,12.611712 -7.58466,-10.071731 13.12323,-9.930621 -8.30785,-11.112418 -13.17615,9.912982 -6.64982,-8.784101 15.9278,-12.011994 -8.00799,-10.671449 -29.63312,22.29539 z m 67.50353,58.825259 -13.68768,10.30103 39.05221,51.7874 13.63476,-10.30104 -38.99929,-51.78739 z m 25.09995,-18.891111 38.9993,51.769751 13.17615,-9.93062 -15.22225,-20.19637 2.34596,-1.78152 c 12.52351,-9.43673 13.7935,-16.368767 4.76246,-28.345483 -9.06632,-12.047272 -17.67404,-11.447554 -28.68062,-3.104422 l -15.381,11.588664 z m -8.04327,115.745531 -15.36336,11.58866 38.99929,51.75212 13.1938,-9.93062 -15.22225,-20.17874 2.38123,-1.78152 c 12.48824,-9.43673 13.75823,-16.3864 4.74483,-28.32784 -9.08396,-12.04727 -17.67404,-11.44755 -28.73354,-3.12206 m 0.24694,190.65733 13.15852,-9.94825 -15.20461,-20.14347 2.34595,-1.78151 c 12.5588,-9.45438 13.82879,-16.38641 4.79774,-28.36312 -9.06632,-12.04728 -17.67403,-11.44756 -28.75117,-3.12206 l -15.34572,11.57102 38.99929,51.78739 z m -38.76999,29.19215 13.67004,-10.2834 -38.99929,-51.76975 -13.67004,10.28339 38.99929,51.76976 z m -62.56467,6.59689 c 15.38099,20.39041 22.78927,24.76482 36.33584,14.55198 4.05691,-3.06914 6.2794,-6.56162 7.32008,-11.13006 l 3.96872,1.23472 7.02023,-5.25635 -21.71331,-28.76882 -17.05668,12.85866 7.26717,9.66604 3.42192,-2.55762 3.86288,5.11524 c 2.34596,3.08678 1.78152,5.43273 -0.29985,7.02022 -2.11666,1.58749 -4.53317,1.46402 -6.84384,-1.6404 l -17.81515,-23.65358 c -2.34595,-3.08678 -1.79915,-5.4151 0.29986,-7.00258 2.11665,-1.58749 4.49788,-1.48166 6.8262,1.62276 l 2.32832,3.01623 13.63476,-10.2834 c -3.1397,-4.18038 -5.34455,-6.57925 -7.61995,-8.06091 -7.21425,-4.70955 -15.89252,-2.48706 -23.19496,3.01623 -13.17616,9.94826 -12.45297,20.7079 2.25776,40.25164 m 8.76646,-75.72318 30.42686,-22.91275 -8.39605,-11.09478 -16.72154,12.59407 -7.61995,-10.07173 13.19379,-9.93062 -8.39605,-11.09478 -13.17615,9.91299 -6.59689,-8.78411 15.91016,-11.99435 -8.04328,-10.68909 -29.58019,22.31303 38.99929,51.75212 z m -36.23001,27.32243 13.17615,-9.94826 -15.20461,-20.17874 2.32832,-1.78151 c 12.52352,-9.4191 13.79351,-16.35113 4.76246,-28.32785 -9.06632,-12.04727 -17.67403,-11.42991 -28.73353,-3.12206 l -15.32808,11.58867 38.99929,51.76975 z m -38.76999,29.19215 13.6524,-10.2834 -39.01693,-51.76975 -13.63476,10.28339 38.99929,51.76976 z m -62.59995,6.59689 c 15.381,20.39041 22.77164,24.76482 36.35348,14.55198 4.07455,-3.06915 6.31467,-6.56162 7.26717,-11.16534 l 4.03927,1.26999 6.98495,-5.27398 -21.66039,-28.75118 -17.05668,12.85866 7.24953,9.66603 3.42192,-2.57525 3.84524,5.13287 c 2.34596,3.08679 1.79916,5.43274 -0.31749,7.02023 -2.11665,1.60513 -4.48025,1.46402 -6.8262,-1.6404 L 278.6324,402.24659 c -2.34595,-3.10442 -1.76387,-5.4151 0.35278,-7.02023 2.09901,-1.60512 4.49788,-1.46401 6.79092,1.62277 l 2.29304,3.01623 13.68768,-10.2834 c -3.17498,-4.19802 -5.37983,-6.56162 -7.63759,-8.06091 -7.23189,-4.70955 -15.85724,-2.48707 -23.2126,3.01623 -13.14088,9.94826 -12.45297,20.7079 2.25776,40.25164 m 8.76646,-75.72319 30.42686,-22.93038 -8.36077,-11.07714 -16.75682,12.61171 -7.61995,-10.07173 13.19379,-9.94826 -8.37841,-11.11242 -13.19379,9.93062 -6.59689,-8.80174 15.91016,-12.01199 -8.04328,-10.65381 -29.58019,22.27775 38.99929,51.78739 z m -36.23001,27.34008 13.17615,-9.94826 -15.22224,-20.17874 2.34595,-1.78151 c 12.54116,-9.45438 13.81115,-16.38641 4.7801,-28.36313 -9.06632,-12.02963 -17.63875,-11.44755 -28.69825,-3.10442 l -15.381,11.6063 38.99929,51.76976 z m -38.76999,29.19214 13.68768,-10.30103 -39.03457,-51.76976 -13.6524,10.2834 38.99929,51.78739 z m -62.56467,6.56162 c 15.39863,20.40804 22.77163,24.78246 36.33584,14.55198 4.05691,-3.05151 6.26176,-6.54398 7.30244,-11.13006 l 3.98636,1.25235 7.00259,-5.27399 -21.67803,-28.75117 -17.09196,12.87629 7.28481,9.6484 3.42192,-2.57526 3.84525,5.13288 c 2.34595,3.08679 1.81679,5.4151 -0.29986,7.00259 -2.11665,1.58749 -4.49789,1.48166 -6.84384,-1.62277 l -17.81515,-23.63593 c -2.31067,-3.10442 -1.76387,-5.45038 0.29986,-7.03787 2.15193,-1.58748 4.53316,-1.44637 6.87912,1.64041 l 2.2754,3.01623 13.63476,-10.2834 c -3.15734,-4.19802 -5.34455,-6.61453 -7.61995,-8.06091 -7.21425,-4.70955 -15.85724,-2.48707 -23.19496,3.01622 -13.17615,9.94826 -12.45297,20.70791 2.2754,40.23401 m 44.3262,-170.56679 c -7.24953,-4.70955 -15.87489,-2.46942 -23.21261,3.05151 -13.17615,9.91298 -12.43532,20.67262 2.2754,40.19873 15.36336,20.40804 22.77164,24.80009 36.35348,14.56961 4.07455,-3.06914 6.24412,-6.56162 7.26717,-11.14769 l 4.02164,1.26999 6.98494,-5.27399 -21.66039,-28.76882 -17.1096,12.8763 7.30245,9.6484 3.42192,-2.57526 3.82761,5.13288 c 2.34595,3.10442 1.81679,5.43273 -0.29986,7.03786 -2.09901,1.58749 -4.48024,1.44638 -6.8262,-1.6404 l -17.83278,-23.63594 c -2.34596,-3.08678 -1.79916,-5.43274 0.35277,-7.0555 2.06374,-1.58749 4.46261,-1.44638 6.80856,1.6404 l 2.29304,3.03387 13.63476,-10.30104 c -3.1397,-4.18038 -5.34454,-6.57925 -7.6023,-8.06091 m 16.29821,-25.36453 -13.6524,10.26576 38.99929,51.80503 13.63476,-10.30104 -38.98165,-51.76975 z m 40.44567,-30.49741 -15.36336,11.57102 39.03457,51.76976 13.14088,-9.93063 -15.18697,-20.17873 2.34595,-1.74624 c 12.52352,-9.47201 13.79351,-16.40405 4.78011,-28.36312 -9.08396,-12.04728 -17.67404,-11.44756 -28.75118,-3.12206 m 113.73471,105.16227 13.63476,-10.30103 -38.99929,-51.76976 -13.63476,10.30104 38.99929,51.76975 z m -56.7968,-23.00094 c 2.08138,-1.58749 4.49789,-1.44638 6.79092,1.6404 l 2.31068,3.03387 13.6524,-10.30103 c -3.15734,-4.18039 -5.34454,-6.5969 -7.61994,-8.02564 -7.21426,-4.74482 -15.85725,-2.52234 -23.19497,2.99859 -13.19379,9.91298 -12.45296,20.69026 2.25776,40.21637 15.36336,20.40804 22.754,24.80009 36.3182,14.55197 4.07456,-3.0515 6.29704,-6.54398 7.28481,-11.13005 l 4.05691,1.28763 6.98495,-5.29163 -21.67803,-28.76881 -17.09196,12.87629 7.30245,9.6484 3.42192,-2.57526 3.82761,5.13288 c 2.34595,3.08678 1.81679,5.4151 -0.29986,7.00259 -2.09901,1.60512 -4.49788,1.48165 -6.84384,-1.60513 l -17.81514,-23.65358 c -2.3636,-3.10442 -1.8168,-5.43273 0.33513,-7.03786 m 71.87794,-69.54962 -15.34572,11.57102 39.01693,51.76976 13.15852,-9.93062 -15.23989,-20.17874 2.36359,-1.78152 c 12.52352,-9.43673 13.82879,-16.36876 4.78011,-28.34548 -9.04869,-12.02963 -17.63876,-11.42992 -28.73354,-3.10442 m 113.71707,105.16227 13.67004,-10.30103 -39.01693,-51.75212 -13.67004,10.26576 39.01693,51.78739 z M 431.15474,280.5568 c 2.11665,-1.62277 4.51553,-1.4993 6.84384,1.58749 l 2.2754,3.03386 13.67004,-10.26575 c -3.1397,-4.19803 -5.34454,-6.61454 -7.60231,-8.09619 -7.26716,-4.69191 -15.91016,-2.48707 -23.19496,3.01622 -13.19379,9.94826 -12.4706,20.70791 2.25776,40.25165 15.36336,20.3904 22.754,24.80009 36.33584,14.55197 4.03928,-3.06914 6.26176,-6.56161 7.26717,-11.14769 l 4.03927,1.25235 6.93204,-5.23871 -21.60748,-28.78645 -17.1096,12.85865 7.32009,9.66604 3.369,-2.57526 3.86289,5.13288 c 2.36359,3.08678 1.81679,5.43274 -0.3175,7.02023 -2.11665,1.60512 -4.48024,1.48165 -6.80856,-1.64041 l -17.83278,-23.63593 c -2.34596,-3.10442 -1.79916,-5.4151 0.29985,-6.98495 m 23.389,-127.35183 c 2.11665,-1.60513 4.51552,-1.46402 6.84384,1.62276 l 2.27539,3.03387 13.68768,-10.31868 c -3.15734,-4.16274 -5.34454,-6.56161 -7.61994,-8.04327 -7.24953,-4.72719 -15.91016,-2.48706 -23.19497,3.01623 -13.19379,9.93062 -12.48824,20.69026 2.25776,40.23401 15.36336,20.40804 22.754,24.78245 36.3182,14.56961 4.05692,-3.05151 6.2794,-6.52634 7.28481,-11.1477 l 4.02164,1.28763 6.98495,-5.27398 -21.67804,-28.8041 -17.03904,12.8763 7.23189,9.68367 3.42192,-2.57525 3.89817,5.13287 c 2.34595,3.08679 1.74624,5.43274 -0.35278,7.02023 -2.11665,1.58749 -4.49788,1.46402 -6.80856,-1.6404 l -17.85042,-23.67122 c -2.32832,-3.08678 -1.78152,-5.4151 0.3175,-7.00258 m -37.69403,29.79186 15.9278,-12.012 -8.04327,-10.68908 -29.5802,22.31303 38.99929,51.76975 30.40922,-22.91275 -8.34313,-11.11241 -16.80974,12.62935 -7.56702,-10.08937 13.19379,-9.93062 -8.39605,-11.11242 -13.15852,9.91298 -6.63217,-8.76646 z m -91.10418,-42.40358 c 2.09901,-1.60512 4.49788,-1.48165 6.84383,1.62277 l 2.24013,3.03387 13.68767,-10.30104 c -3.1397,-4.16275 -5.34454,-6.59689 -7.61994,-8.04327 -7.23189,-4.70955 -15.87488,-2.50471 -23.21261,3.01623 -13.15851,9.91298 -12.43532,20.69026 2.29304,40.25164 15.36336,20.39041 22.754,24.78246 36.30057,14.55198 4.07455,-3.08679 6.29703,-6.56162 7.32008,-11.1477 l 3.98636,1.26999 7.02023,-5.27399 -21.69568,-28.78645 -17.07431,12.87629 7.26716,9.66604 3.42192,-2.57526 3.84525,5.09761 c 2.34596,3.12206 1.81679,5.46801 -0.29986,7.0555 -2.08137,1.60513 -4.49788,1.46402 -6.84383,-1.62277 l -17.79751,-23.67121 c -2.32832,-3.10442 -1.79915,-5.43274 0.3175,-7.02023 m -37.74695,29.77423 15.94544,-12.02964 -8.00799,-10.65381 -29.59784,22.31303 38.98165,51.75212 30.40922,-22.89511 -8.37841,-11.09478 -16.75682,12.61171 -7.56702,-10.08936 13.15851,-9.91299 -8.34313,-11.13005 -13.19379,9.93062 -6.64982,-8.80174 z m -149.78833,35.98306 2.38123,-1.78151 c 12.52352,-9.43674 13.79351,-16.38641 4.76247,-28.34549 -9.06632,-12.04727 -17.67404,-11.46519 -28.73354,-3.10442 l -15.381,11.58867 39.03458,51.75211 13.14087,-9.91298 -15.20461,-20.19638 z m 14.90475,130.10348 30.42686,-22.93038 -8.37841,-11.07714 -16.73918,12.61171 -7.61995,-10.08937 13.17616,-9.93062 -8.37841,-11.09478 -13.17616,9.91298 -6.59689,-8.80174 15.94544,-11.99435 -8.07856,-10.67145 -29.58019,22.29539 38.99929,51.76975 z m -38.25846,-2.78692 2.34595,-1.78152 c 12.52352,-9.45437 13.77587,-16.3864 4.74483,-28.36312 -9.06633,-12.02963 -17.67404,-11.44755 -28.680624,-3.08678 l -15.380997,11.57102 38.999291,51.76976 13.17615,-9.93062 -15.2046,-20.17874 z m 427.22835,-11.88852 -13.15851,9.91298 -6.66745,-8.7841 15.96308,-12.012 -8.04328,-10.67145 -29.61547,22.31303 39.01693,51.76976 30.39158,-22.93039 -8.36077,-11.11242 -16.75682,12.64699 -7.56703,-10.107 13.14088,-9.91299 -8.34314,-11.11241 z"
       style="fill:#febf4a"
       id="path3333"
       inkscape:connector-curvature="0" /><g
       id="g3347"><path
         inkscape:connector-curvature="0"
         id="path3337"
         style="fill:#ffffff"
         d="m 211.2259,514.79774 -93.60889,0 0,-325.22342 -61.18885,0 0,-55.19167 c 41.997883,0.59971 69.60254,-16.80974 84.59548,-57.608187 l 70.20226,0 0,438.023277 z" /><path
         inkscape:connector-curvature="0"
         id="path3339"
         style="fill:#ffffff"
         d="m 421.80973,323.98166 c -18.59125,0 -27.00494,18.60889 -27.00494,58.2079 0,40.19873 8.41369,58.2079 27.00494,58.2079 19.80833,0 28.20437,-18.00917 28.20437,-58.2079 0,-39.59901 -8.39604,-58.2079 -28.20437,-58.2079 m -27.00494,-57.59054 c 18.00917,-16.80974 31.2206,-28.8041 61.20649,-28.8041 55.80903,0 85.21284,47.39535 85.21284,135.60677 0,82.79633 -21.60748,148.81821 -120.61383,148.81821 -69.60253,0 -105.00352,-35.41863 -117.5976,-102.6223 -5.41509,-29.40381 -6.01481,-65.40451 -6.01481,-114.59901 0.59972,-60.00705 1.21707,-96.00776 6.61453,-125.41157 12.59408,-67.20367 47.99506,-102.604653 117.5976,-102.604653 63.00565,0 114.01693,38.999293 114.01693,105.003523 l 0,22.2072 -87.61171,0 0,-10.1952 c 0,-30.02117 -11.39463,-37.8175 -26.40522,-37.8175 -17.99153,2.41651 -25.8055,19.20861 -26.40522,43.19732 l 0,67.22131 z" /></g><path
       d="m 576.00246,58.53069 -5.57385,0 0,-27.181326 -0.17639,0 -9.5602,27.181326 -4.53316,0 -9.1016,-27.181326 -0.15875,0 0,27.181326 -5.59149,0 0,-34.519049 8.8723,0 8.59007,25.664392 0.17639,0 8.37841,-25.664392 8.67827,0 0,34.519049 z m -38.66416,-34.519049 0,4.462605 -9.50729,0 0,30.056444 -5.57385,0 0,-30.056444 -9.48965,0 0,-4.462605 24.57079,0 z"
       style="fill:#000000"
       id="path3341"
       inkscape:connector-curvature="0" /></g></g></svg>