<?xml version="1.0" encoding="UTF-8" standalone="no"?>
<!-- Generator: Adobe Illustrator 15.0.0, SVG Export Plug-In . SVG Version: 6.00 Build 0)  -->

<svg
   xmlns:dc="http://purl.org/dc/elements/1.1/"
   xmlns:cc="http://creativecommons.org/ns#"
   xmlns:rdf="http://www.w3.org/1999/02/22-rdf-syntax-ns#"
   xmlns:svg="http://www.w3.org/2000/svg"
   xmlns="http://www.w3.org/2000/svg"
   xmlns:xlink="http://www.w3.org/1999/xlink"
   xmlns:sodipodi="http://sodipodi.sourceforge.net/DTD/sodipodi-0.dtd"
   xmlns:inkscape="http://www.inkscape.org/namespaces/inkscape"
   version="1.1"
   id="Ebene_1"
   x="0px"
   y="0px"
   width="425.292px"
   height="519.372px"
   viewBox="0 0 425.292 519.372"
   enable-background="new 0 0 425.292 519.372"
   xml:space="preserve"
   inkscape:version="0.48.4 r9939"
   sodipodi:docname="PEGI_18[1].svg"><metadata
   id="metadata3569"><rdf:RDF><cc:Work
       rdf:about=""><dc:format>image/svg+xml</dc:format><dc:type
         rdf:resource="http://purl.org/dc/dcmitype/StillImage" /><dc:title></dc:title></cc:Work></rdf:RDF></metadata><defs
   id="defs3567" /><sodipodi:namedview
   pagecolor="#ffffff"
   bordercolor="#666666"
   borderopacity="1"
   objecttolerance="10"
   gridtolerance="10"
   guidetolerance="10"
   inkscape:pageopacity="0"
   inkscape:pageshadow="2"
   inkscape:window-width="1213"
   inkscape:window-height="778"
   id="namedview3565"
   showgrid="false"
   inkscape:zoom="0.90878983"
   inkscape:cx="288.16329"
   inkscape:cy="245.687"
   inkscape:window-x="59"
   inkscape:window-y="-8"
   inkscape:window-maximized="1"
   inkscape:current-layer="Ebene_1" />

<g
   id="g3612"><g
     id="g3521">
	<defs
   id="defs3523">
		<rect
   height="536.12"
   width="426.082"
   y="-3.624"
   id="SVGID_1_" />
	</defs>
	<clipPath
   id="SVGID_2_">
		<use
   id="use3527"
   overflow="visible"
   xlink:href="#SVGID_1_" />
	</clipPath>
	<rect
   id="rect3529"
   height="425.712"
   width="425.717"
   fill="#E2011A"
   clip-path="url(#SVGID_2_)" />
	
	
	<path
   id="path3535"
   d="M0,519.372h425.717V0H0 M417.205,417.189H8.522V8.508h408.682V417.189z"
   clip-path="url(#SVGID_2_)" />
	
	<polygon
   id="polygon3539"
   points="27.039,487.449 34.262,487.449 40.901,455.162 41.049,455.162    47.976,487.449 54.763,487.449 64.114,447.924 57.639,447.924 51.522,480.24 51.364,480.24 44.807,447.924 37.512,447.924    30.796,480.24 30.653,480.24 24.312,447.924 17.821,447.924  "
   fill="#FFFFFF"
   clip-path="url(#SVGID_2_)" />
	<polygon
   id="polygon3541"
   points="74.837,487.449 82.061,487.449 88.694,455.162 88.853,455.162    95.784,487.449 102.547,487.449 111.922,447.924 105.432,447.924 99.316,480.24 99.163,480.24 92.596,447.924 85.301,447.924    78.595,480.24 78.446,480.24 72.105,447.924 65.62,447.924  "
   fill="#FFFFFF"
   clip-path="url(#SVGID_2_)" />
	<polygon
   id="polygon3543"
   points="122.625,487.449 129.854,487.449 136.488,455.162 136.636,455.162    143.577,487.449 150.35,487.449 159.716,447.924 153.235,447.924 147.109,480.24 146.961,480.24 140.394,447.924 133.104,447.924    126.388,480.24 126.24,480.24 119.898,447.924 113.398,447.924  "
   fill="#FFFFFF"
   clip-path="url(#SVGID_2_)" />
	<rect
   id="rect3545"
   height="7.804"
   width="6.773"
   fill="#FFFFFF"
   clip-path="url(#SVGID_2_)"
   y="479.646"
   x="163.21" />
	<path
   id="path3547"
   d="M185.321,467.701   c0-9.012,1.112-15.492,7.971-15.492c5.752,0,7.228,6.059,7.228,14.744c0,10.181-1.476,16.221-7.228,16.221   C186.659,483.174,185.321,475.36,185.321,467.701 M179.502,500.429h6.183v-17.466h0.158c1.404,3.384,4.721,5.521,8.254,5.521   c10.248,0,12.908-12.539,12.908-21.531c0-11.715-3.542-20.055-12.908-20.055c-4.28,0-7.736,2.962-8.551,5.905h-0.144v-4.88h-5.9   V500.429z"
   fill="#FFFFFF"
   clip-rule="evenodd"
   fill-rule="evenodd"
   clip-path="url(#SVGID_2_)" />
	<path
   id="path3549"
   d="M219.032,463.56v-1.477   c0-2.339,0.738-10.314,7.229-10.314c5.455,0,6.864,5.225,6.864,9.653v2.138H219.032z M239.605,468.43v-2.502   c0-8.484-1.112-19.029-13.201-19.029c-12.16,0-14.087,11.427-14.087,21.32c0,13.564,4.055,20.266,13.723,20.266   c10.766,0,13.259-9.807,13.259-14.006h-6.174c0,2.943-0.824,9.146-6.721,9.146c-7.587,0-7.587-9.146-7.587-15.194H239.605z"
   fill="#FFFFFF"
   clip-rule="evenodd"
   fill-rule="evenodd"
   clip-path="url(#SVGID_2_)" />
	<path
   id="path3551"
   d="M258.625,452.209   c6.634,0,7.957,7.813,7.957,15.492c0,8.091-1.323,14.446-8.034,14.446c-6.174,0-7.151-8.043-7.151-14.446   C251.396,458.268,252.873,452.209,258.625,452.209 M272.41,447.924h-5.886v5.033h-0.163c-0.806-3.106-4.267-6.059-8.552-6.059   c-10.018,0-12.894,10.104-12.894,20.803c0,5.234,0.729,19.748,12.232,19.748c3.911,0,7.593-1.994,8.935-5.302h0.153v5.167   c0,2.723,0.288,8.839-7.688,8.839c-3.24,0-6.049-1.399-6.327-5.004h-6.192c1.016,9.874,10.535,9.874,12.951,9.874   c7.967,0,13.431-4.275,13.431-16.076V447.924z"
   fill="#FFFFFF"
   clip-rule="evenodd"
   fill-rule="evenodd"
   clip-path="url(#SVGID_2_)" />
	<path
   id="path3553"
   d="M280.913,487.449h6.184v-39.516   h-6.184V487.449z M280.913,441.895h6.184V434.8h-6.184V441.895z"
   fill="#FFFFFF"
   clip-rule="evenodd"
   fill-rule="evenodd"
   clip-path="url(#SVGID_2_)" />
	<rect
   id="rect3555"
   height="7.804"
   width="6.787"
   fill="#FFFFFF"
   clip-path="url(#SVGID_2_)"
   y="479.646"
   x="296.97" />
	<path
   id="path3557"
   d="M313.641,487.449h6.203v-39.516   h-6.203V487.449z M313.641,441.895h6.203V434.8h-6.203V441.895z"
   fill="#FFFFFF"
   clip-rule="evenodd"
   fill-rule="evenodd"
   clip-path="url(#SVGID_2_)" />
	<path
   id="path3559"
   d="M328.318,487.449h6.174v-27.273c0-5.752,4.516-7.967,7.832-7.967   c5.599,0,5.819,4.946,5.819,7.967v27.273h6.193v-28.021c0-4.63,0-12.529-10.401-12.529c-3.815,0-7.947,2.07-9.567,5.694h-0.163   v-4.669h-5.887V487.449z"
   fill="#FFFFFF"
   clip-path="url(#SVGID_2_)" />
	<path
   id="path3561"
   d="M364.306,487.449h6.212v-34.646h6.768v-4.88h-6.768v-4.63   c0-2.732,1.313-3.758,3.979-3.758h2.866v-5.312h-4.496c-5.982,0-8.561,3.097-8.561,9.069v4.63h-5.742v4.88h5.742V487.449z"
   fill="#FFFFFF"
   clip-path="url(#SVGID_2_)" />
	<path
   id="path3563"
   d="M379.634,467.701   c0,11.12,2.819,20.783,14.236,20.783c11.36,0,14.227-9.663,14.227-20.783c0-11.149-2.8-20.803-14.227-20.803   C382.53,446.898,379.634,456.552,379.634,467.701 M393.717,483.634c-6.337,0-7.573-7.401-7.573-15.933   c0-8.57,1.323-15.933,7.573-15.933c6.644,0,7.909,7.362,7.909,15.933C401.626,476.232,400.284,483.634,393.717,483.634"
   fill="#FFFFFF"
   clip-rule="evenodd"
   fill-rule="evenodd"
   clip-path="url(#SVGID_2_)" />
</g><path
     inkscape:connector-curvature="0"
     id="path3506"
     style="fill:#f66041"
     d="m 168.96343,230.92605 c 3.08483,4.08397 2.12317,5.65761 -0.99913,8.03056 l -6.69422,-8.89232 c 3.64685,-2.73514 5.08311,-2.63522 7.69335,0.86176 m 165.8442,107.99417 c 3.1098,4.08397 2.11067,5.69508 -0.97417,8.01807 l -6.7067,-8.87981 c 3.65934,-2.73515 5.09559,-2.59777 7.68087,0.86174 M 185.51162,140.76646 c 3.09734,4.08397 2.12317,5.69508 -0.98663,8.03056 l -6.68173,-8.86733 c 3.62187,-2.74763 5.05813,-2.62274 7.66836,0.83677 M 110.86364,41.689576 c 3.07234,4.083975 2.12317,5.682593 -0.97417,8.030559 l -6.6942,-8.879821 c 3.60938,-2.747628 5.05813,-2.622734 7.66837,0.849262 M 61.194064,312.13087 c 3.07235,4.09647 2.123167,5.6826 -0.986646,8.04305 l -6.706702,-8.89231 c 3.634354,-2.73514 5.070614,-2.64771 7.693348,0.84926 M 202.07233,50.619365 c 3.07234,4.071478 2.12316,5.695074 -0.99914,8.030557 l -6.66924,-8.892316 c 3.62187,-2.722648 5.05813,-2.610245 7.66838,0.861759 m 41.5516,279.358585 c 3.07233,4.08397 2.08568,5.70757 -1.01163,8.05554 l -6.69422,-8.90481 c 3.62187,-2.71016 5.07062,-2.61024 7.70585,0.84927 m 16.56068,-90.12212 c 3.05985,4.05899 2.12316,5.6701 -1.01163,8.01807 l -6.68172,-8.87982 c 3.64684,-2.73514 5.05813,-2.62274 7.69335,0.86175 m 107.76937,-81.22981 c 3.07234,4.08398 2.11067,5.69509 -0.99914,8.03056 l -6.68172,-8.89231 c 3.63435,-2.72264 5.05812,-2.61024 7.68086,0.86175 M 293.2935,59.549144 c 3.07234,4.083972 2.12316,5.68259 -0.98665,8.030558 l -6.68172,-8.879824 c 3.62187,-2.735137 5.05813,-2.622733 7.66837,0.849266 m -16.5607,90.147096 c 3.07235,4.08397 2.12317,5.68259 -0.98664,8.03056 l -6.68172,-8.87982 c 3.59689,-2.73514 5.05812,-2.62274 7.66836,0.84926 M 384.51466,68.478925 c 3.07235,4.083975 2.12317,5.682594 -0.97415,8.018077 l -6.73168,-8.87983 c 3.65934,-2.735137 5.09559,-2.610244 7.70583,0.861753 M 77.754751,221.98378 c 3.072341,4.08397 2.123165,5.6701 -0.974156,8.03056 l -6.694212,-8.91729 c 3.621863,-2.69768 5.058123,-2.58527 7.668368,0.88673 m 74.647989,99.08936 c 3.07235,4.059 2.12317,5.65762 -0.98664,8.00559 l -6.68173,-8.89232 c 3.62187,-2.72265 5.05813,-2.59775 7.66837,0.88673 m 198.96557,-72.3125 c 3.10981,4.08396 2.13565,5.70756 -0.97415,8.05554 l -6.68173,-8.89232 c 3.60937,-2.74763 5.04564,-2.61025 7.65588,0.83678 M 11.974103,31.910525 l 6.694212,8.879829 c 3.109811,-2.347967 4.058994,-3.946592 0.986646,-8.018069 -2.622734,-3.484487 -4.046505,-3.596891 -7.680858,-0.86176 m 82.328845,99.926155 c 3.097328,4.08397 2.123165,5.69508 -0.986646,8.04305 l -6.694213,-8.89231 c 3.62187,-2.72266 5.058131,-2.63523 7.680859,0.84926 M 413.87679,9.0927437 l -11.29024,0 4.09646,5.4328063 7.19378,-5.4328063 z m -207.39577,0.9616733 -0.72438,-0.9616733 -15.14941,0 6.18215,8.2553673 9.69164,-7.293694 z m 37.23033,20.869462 c 10.90307,14.450017 16.12356,17.55983 25.72776,10.3036 2.87252,-2.160637 4.43367,-4.621007 5.17053,-7.893183 l 2.82256,0.911713 4.95822,-3.721785 -15.34923,-20.382384 -12.10205,9.104629 5.15805,6.856577 2.4229,-1.835916 2.72265,3.634361 c 1.66106,2.198099 1.28639,3.846677 -0.21232,4.970707 -1.4987,1.12403 -3.18475,1.036606 -4.84581,-1.14901 L 247.59549,14.975164 c -1.66107,-2.185609 -1.28639,-3.846678 0.18733,-4.970708 1.49871,-1.1240297 3.20973,-1.0615792 4.8708,1.14901 l 1.6111,2.14814 5.57019,-4.2088623 -23.34233,0 c -2.4229,5.5327193 -0.0874,12.1520043 7.21877,21.8311353 m 53.99084,-11.93968 -7.46855,-9.8914553 -15.16189,0 12.93881,17.1851483 9.69163,-7.293693 z M 334.945,39.866151 c 10.86561,14.437526 16.09859,17.547339 25.70279,10.3036 2.88501,-2.17312 4.47114,-4.645987 5.18302,-7.893183 l 2.82256,0.899222 4.95822,-3.734267 -15.34923,-20.357411 -12.07707,9.092147 5.13307,6.856568 2.41041,-1.835908 2.72266,3.621871 c 1.67354,2.210588 1.29887,3.84667 -0.21233,4.98319 -1.4987,1.12403 -3.18475,1.049096 -4.83331,-1.161494 L 338.77918,23.904945 c -1.64856,-2.198099 -1.2614,-3.846677 0.24979,-4.970699 1.49871,-1.136521 3.18476,-1.049097 4.83333,1.136512 l 1.59861,2.148147 9.69163,-7.281211 c -2.24806,-2.947455 -3.78423,-4.67096 -5.42032,-5.6950763 -0.0999,-0.074934 -0.21231,-0.074934 -0.31223,-0.149874 l -12.36431,0 c -1.26141,0.636952 -2.5478,1.3863083 -3.73427,2.2980133 -9.31695,7.00645 -8.82987,14.637355 1.62359,28.475394 M 388.89838,27.91398 374.72313,9.0927437 l -15.14941,0 19.65801,26.1149383 9.66665,-7.293702 z M 50.927936,49.607739 72.44684,33.371766 66.551936,25.541034 54.6747,34.470816 l -5.382853,-7.156317 9.329444,-7.031423 -5.932374,-7.868203 -9.316953,7.043914 -4.69594,-6.219624 5.470276,-4.1464193 -15.711424,0 -5.120574,3.8716583 27.613634,36.643337 z m 91.221174,8.942269 21.5189,-16.235971 -5.93238,-7.855712 -11.85225,8.942272 -5.39535,-7.156316 9.32945,-7.018933 -5.93237,-7.868203 -9.30447,7.01894 -4.69594,-6.21963 11.27775,-8.505148 -3.40955,-4.5585633 -6.26958,0 -16.97283,12.7889503 27.63862,36.668314 z m 36.06882,-26.227339 c 2.88501,-2.185609 4.47115,-4.633496 5.17054,-7.905665 l 2.83504,0.899222 4.94573,-3.734273 -9.39188,-12.4892093 -16.39833,0 -1.6236,1.2489243 5.13307,6.819106 2.4229,-1.810935 2.74762,3.63436 c 1.63609,2.173119 1.24893,3.834187 -0.24978,4.970707 -1.4987,1.124023 -3.18475,1.036599 -4.84581,-1.17399 l -10.29111,-13.6881723 -13.58826,0 c 1.17399,3.6593413 3.62188,7.8682033 7.39362,12.9138433 10.91557,14.437521 16.13605,17.547333 25.74025,10.316082 M 87.009253,23.380397 c 2.885005,-2.173119 4.45865,-4.645979 5.170535,-7.880685 l 2.822561,0.874242 4.945718,-3.721783 -2.660194,-3.5594273 -15.149413,0 0.699395,0.9366923 c 1.636088,2.21059 1.261414,3.859168 -0.23729,4.983191 -1.498705,1.12403 -3.184747,1.049097 -4.845814,-1.149003 l -3.5844,-4.7708803 -15.661464,0 c 0.849262,1.2863873 1.736002,2.5727813 2.785091,3.9840623 10.890584,14.43752 16.111079,17.547332 25.715275,10.303591 m 295.806877,339.993693 27.65111,36.65582 6.46941,-4.93324 0,-6.5818 -24.42889,-32.44696 -9.69163,7.30618 z m -25.26566,40.65238 -9.32945,7.01893 -4.68344,-6.23212 11.26527,-8.48017 -5.6826,-7.55597 -20.95688,15.78635 9.34192,12.37681 19.24587,0 6.73169,-5.05813 -5.93238,-7.8557 z m 39.47838,3.05984 2.84755,0.88673 4.94571,-3.70929 -15.32425,-20.36989 -12.10205,9.11711 5.12058,6.81912 2.4354,-1.82343 2.74763,3.63436 c 1.66105,2.18561 1.24891,3.83419 -0.24979,4.95821 -1.48622,1.12403 -3.18474,1.04911 -4.80834,-1.14901 L 370.0147,388.71469 c -1.66107,-2.21058 -1.2864,-3.85916 0.21232,-4.9707 1.48621,-1.12403 3.18475,-1.03661 4.84581,1.14901 l 1.61111,2.16062 9.66663,-7.30618 c -2.22307,-2.94745 -3.75924,-4.68344 -5.37034,-5.70756 -5.14556,-3.33462 -11.26527,-1.76098 -16.42332,2.16063 -9.35441,7.01893 -8.85484,14.61237 1.58613,28.4629 4.65848,6.18216 8.28035,10.16622 11.65243,12.27689 l 11.02798,0 c 0.99913,-0.54952 1.99827,-1.1615 3.05984,-1.97329 2.84755,-2.16064 4.43368,-4.62101 5.14556,-7.8807 m -83.65271,8.59259 -1.69853,1.2614 21.23166,0 c -6.1322,-7.43107 -12.03961,-6.89404 -19.53313,-1.2614 m -97.45328,-4.19639 -7.29369,5.45779 29.56195,0 c -0.61197,-1.07407 -1.02411,-2.06072 -1.92334,-3.25967 -6.43194,-8.53014 -12.5017,-8.13049 -20.34492,-2.19812 m 40.76478,3.19725 9.31694,-7.03142 -5.90739,-7.85572 -9.31696,7.01893 -4.72092,-6.21962 11.30274,-8.49267 -5.69507,-7.56846 -20.96939,15.81135 12.51419,16.59815 15.18687,0 -1.71101,-2.26054 z m -111.62855,-9.94141 c -6.41945,-8.53013 -12.51419,-8.09301 -20.34492,-2.19811 l -10.8781,8.19292 4.65848,6.20714 14.62485,0 -4.95821,-6.5943 c 3.62187,-2.73514 5.07062,-2.62274 7.68087,0.84926 2.03574,2.71017 2.17312,4.28381 1.23642,5.74504 l 11.27776,0 c 1.32385,-3.54693 0.39965,-7.26872 -3.29715,-12.20195 m 37.64247,-0.77433 -11.85226,8.92978 -5.35786,-7.14383 9.29196,-7.01893 -5.8949,-7.84322 -9.32944,7.01892 -4.69594,-6.24459 11.27775,-8.50516 -5.69508,-7.55597 -20.96938,15.81134 19.25836,25.52794 23.11752,0 6.79413,-5.10808 -5.94486,-7.8682 z m 85.86331,12.97628 8.43021,0 -3.07234,-4.0465 -5.35787,4.0465 z m 141.70254,-74.24834 6.66924,8.82988 0,-13.86303 -6.66924,5.03315 z m -17.13519,-64.76902 23.80443,31.58521 0,-20.12012 -14.11281,-18.77128 -9.69162,7.30619 z m 11.12789,-60.49773 5.14555,6.84409 2.42291,-1.83591 2.73514,3.62186 c 1.66105,2.21059 1.2614,3.84668 -0.24979,4.97071 -1.48622,1.12403 -3.15977,1.0491 -4.82084,-1.14901 l -12.60161,-16.74802 c -1.66106,-2.18561 -1.2739,-3.83419 0.21232,-4.95822 1.4987,-1.13651 3.19723,-1.06158 4.84581,1.13652 l 1.59862,2.16063 9.69162,-7.30619 c -2.22308,-2.94745 -3.78423,-4.65848 -5.39534,-5.69507 -5.12057,-3.33462 -11.25277,-1.77347 -16.4233,2.14814 -9.32944,7.01894 -8.81738,14.63735 1.6111,28.4754 10.15373,13.48834 15.44915,16.97283 23.90435,11.47758 l 0,-31.46031 -0.59948,-0.78683 -12.07706,9.10463 z m 3.69679,-106.98255 c -9.30445,7.04391 -8.80488,14.66233 1.63609,28.48789 2.74763,3.68431 5.14556,6.59429 7.34366,8.82987 l 0,-20.13261 -3.48448,-4.6335 c -1.66107,-2.19809 -1.27391,-3.84667 0.2248,-4.97069 1.02411,-0.77434 2.14814,-0.92421 3.25968,-0.26228 l 0,-11.09042 c -3.04737,0.33721 -6.1322,1.64858 -8.97975,3.77174 m -4.42117,-61.496853 11.27776,-8.505148 -5.70758,-7.568461 -20.91942,15.811338 27.61364,36.643334 1.13652,-0.861759 0,-17.722181 -2.79758,-3.709297 2.79758,-2.110676 0,-12.326845 -8.72996,6.569321 -4.67096,-6.219626 z m 13.40092,148.434233 0,-15.07447 -7.23125,5.47027 7.23125,9.6042 z m -13.95044,-37.05548 -5.39534,-7.14383 9.30446,-7.03142 -5.90739,-7.85571 -9.31696,7.01893 -4.68345,-6.21963 11.26527,-8.49265 -5.69509,-7.55597 -20.9319,15.78635 27.61363,36.65583 17.69721,-13.35097 0,-7.93064 -2.12316,-2.82256 -11.82728,8.94227 z m -366.033697,241.07917 6.681729,8.89231 c 3.109812,-2.34797 4.083968,-3.94659 0.999136,-8.00558 -2.610244,-3.48449 -4.058994,-3.60938 -7.680865,-0.88673 M 9.1015806,140.22942 l 0,18.58395 8.9297814,-6.74418 -8.9297814,-11.83977 z m 7.7308194,44.78632 -5.682586,-7.55599 -2.0482334,1.53617 0,11.83978 7.7308194,-5.81996 z m -4.521094,-68.57825 c -1.074069,-1.43626 -2.135656,-2.51033 -3.2097254,-3.45951 l 0,23.37979 c 8.6550214,-6.5943 9.5417544,-11.51505 3.2097254,-19.92028 m 4.546074,179.51986 -7.7557994,5.84494 0,12.32686 13.6881724,-10.31609 -5.932373,-7.85571 z m 22.480569,-82.29138 -5.919883,-7.85572 -11.852256,8.92978 -5.382845,-7.11884 9.329436,-7.04391 -5.932374,-7.85571 -9.329436,7.01892 -1.1490104,-1.52368 0,20.1326 8.7049814,11.55252 21.531387,-16.23596 z m -1.998272,80.16821 c 2.872522,-2.1856 4.433669,-4.64598 5.158045,-7.89318 l 2.847542,0.89923 4.94572,-3.75925 -15.349233,-20.35741 -12.102045,9.12961 5.158045,6.8316 2.422906,-1.82343 2.735138,3.63436 c 1.648579,2.18562 1.261407,3.84668 -0.224807,4.98319 -1.511194,1.12403 -3.197236,1.02412 -4.833324,-1.18647 L 15.471079,267.55689 c -1.648578,-2.19809 -1.273904,-3.85916 0.224807,-4.98319 1.498705,-1.12403 3.184745,-1.01163 4.845807,1.17399 l 1.611108,2.12316 9.666647,-7.26872 c -2.235569,-2.98493 -3.784227,-4.65847 -5.370355,-5.70756 -5.145554,-3.33462 -11.265265,-1.76098 -16.448289,2.12316 -0.349695,0.27477 -0.5745024,0.53704 -0.8992234,0.7993 l 0,24.12916 c 0.7868191,1.16149 1.5611544,2.3105 2.5103314,3.54693 10.89059,14.47499 16.111079,17.5848 25.727765,10.34106 m 18.558967,-170.30283 -5.919884,-7.85571 -11.864747,8.94227 -5.370362,-7.15632 9.316946,-7.04391 -5.919884,-7.84322 -9.329436,7.01895 -4.695939,-6.23212 11.277755,-8.492666 -5.695083,-7.555972 -18.5964294,14.025388 0,4.89576 25.2781584,33.52103 21.518905,-16.22348 z M 25.275103,68.95352 9.1015806,47.484572 l 0,-23.754473 C 16.645062,18.22236 22.602416,17.985062 28.85951,26.290383 c 6.381982,8.480174 5.495249,13.400921 -3.3596,20.08265 L 23.813869,47.63444 34.592057,61.922094 25.275103,68.95352 z M 15.258762,348.74923 c -2.22308,-2.98492 -3.771745,-4.68346 -5.3828524,-5.72006 -0.2497807,-0.17484 -0.5245414,-0.17484 -0.774329,-0.32472 l 0,10.67828 6.1571814,-4.6335 z m 76.234114,46.28501 -11.827276,8.92978 -5.382845,-7.14383 9.329436,-7.03143 -5.932374,-7.8682 -9.329435,7.04391 -4.70843,-6.20713 11.290238,-8.51764 -5.682586,-7.55597 -20.956892,15.78636 25.965062,34.47021 4.533583,0 18.633893,-14.06284 -5.932374,-7.84322 z m -41.027038,20.84448 -1.398791,1.06158 -15.037009,0 -11.402642,-15.12443 10.878094,-8.20541 c 7.830738,-5.90739 13.912979,-6.30705 20.33243,2.1981 6.406969,8.46768 5.495256,13.37594 -3.372082,20.07016 M 20.778991,383.9688 c 2.885004,-2.17313 4.446158,-4.64599 5.158044,-7.90567 l 2.847535,0.89922 4.933237,-3.72179 -15.336743,-20.3574 -9.2794834,6.96898 0,5.86992 2.3479744,3.09733 2.410416,-1.81093 2.722647,3.60937 c 1.661062,2.1981 1.273898,3.85916 -0.212316,4.98319 -1.498705,1.11154 -3.184753,1.0491 -4.845814,-1.149 l -2.4229074,-3.22222 0,15.89877 c 3.6218704,1.26141 7.1688074,0.23729 11.6774104,-3.15977 m 389.388509,-61.40944 4.98319,-3.73427 -15.34924,-20.3699 -12.10203,9.10463 5.15803,6.85658 2.42291,-1.84841 2.72265,3.62188 c 1.66107,2.22307 1.28639,3.84667 -0.21232,4.98319 -1.4987,1.12402 -3.18474,1.03661 -4.8458,-1.14901 L 380.3183,303.27603 c -1.66107,-2.18562 -1.2864,-3.84667 0.2248,-4.9707 1.4987,-1.11155 3.17226,-1.04911 4.84582,1.13652 l 1.59861,2.17311 9.69163,-7.31867 c -2.23557,-2.94746 -3.78424,-4.65848 -5.39534,-5.70757 -5.14556,-3.33462 -11.26527,-1.74849 -16.42332,2.16063 -9.32943,7.04392 -8.81737,14.64984 1.61111,28.50037 10.86561,14.41255 16.0861,17.52236 25.7028,10.27862 2.89749,-2.17312 4.45864,-4.62101 5.15804,-7.88069 l 2.83505,0.91171 z m -22.55551,16.98532 -5.90739,-7.85571 -11.86476,8.92978 -5.37035,-7.15631 9.32944,-7.01894 -5.93238,-7.84322 -9.34192,6.99396 -4.70843,-6.19465 11.30273,-8.50514 -5.68259,-7.56846 -20.95689,15.79884 27.61364,36.64334 21.5189,-16.22349 z m -37.87977,28.52535 -10.74071,-14.27516 1.66106,-1.2614 c 8.86734,-6.66924 9.77905,-11.60249 3.37209,-20.05768 -6.40696,-8.53013 -12.51419,-8.10549 -20.34493,-2.21059 l -10.85312,8.18044 27.61364,36.65581 9.29197,-7.03142 z m -27.08908,20.41986 -27.61364,-36.65582 -9.65416,7.30618 27.61364,36.65582 9.65416,-7.30618 z m -15.29929,11.55251 -15.32425,-20.38238 -12.10204,9.11712 5.15804,6.8191 2.42291,-1.81093 2.72264,3.62186 c 1.66107,2.18563 1.2739,3.84669 -0.21231,4.98321 -1.49871,1.12403 -3.18475,1.02411 -4.84582,-1.14901 l -12.62658,-16.74802 c -1.63609,-2.2106 -1.24893,-3.84669 0.24979,-4.97072 1.47371,-1.11154 3.18474,-1.04908 4.8458,1.13652 l 1.59862,2.16064 9.64167,-7.30619 c -2.22308,-2.94746 -3.75925,-4.65848 -5.37036,-5.70757 -5.10809,-3.33462 -11.24029,-1.76098 -16.4358,2.16063 -9.31695,7.03142 -8.80489,14.63735 1.59863,28.4754 10.91556,14.43752 16.14853,17.54734 25.74025,10.30359 2.885,-2.17312 4.43366,-4.64598 5.17053,-7.89317 l 2.82256,0.89922 4.94572,-3.7093 z m -32.47193,-53.20402 21.55637,-16.21099 -5.94486,-7.88069 -11.83978,8.95476 -5.39533,-7.16881 9.31695,-7.01893 -5.91989,-7.84322 -9.32944,7.01894 -4.67096,-6.24461 11.27776,-8.50515 -5.70757,-7.55597 -20.95689,15.81134 27.61364,36.64333 z m -16.3109,12.31436 -10.80317,-14.30014 1.68604,-1.24893 c 8.86734,-6.68171 9.76657,-11.60247 3.37209,-20.05766 -6.41946,-8.53013 -12.51419,-8.11798 -20.34493,-2.22308 l -10.89058,8.19293 27.6511,36.65581 9.32945,-7.01893 z m -27.10159,20.43235 -27.63861,-36.65584 -9.66666,7.26873 27.61365,36.65582 9.69162,-7.26871 z m -15.31177,11.51504 -15.36172,-20.38239 -12.06458,9.11713 5.13306,6.83159 2.42291,-1.81093 2.72265,3.63436 c 1.66106,2.17312 1.2739,3.85916 -0.21232,4.9707 -1.49871,1.12403 -3.18475,1.02411 -4.84581,-1.16149 l -12.6141,-16.74803 c -1.64858,-2.18562 -1.26141,-3.8217 0.22481,-4.94573 1.51119,-1.14901 3.19723,-1.06157 4.84581,1.14901 l 1.61111,2.12316 9.69161,-7.26872 c -2.26054,-2.97243 -3.8092,-4.67096 -5.38284,-5.73254 -5.14556,-3.30963 -11.27775,-1.736 -16.47327,2.14814 -9.29196,7.0564 -8.80488,14.66233 1.61111,28.48789 10.8781,14.43751 16.13606,17.55982 25.72777,10.32857 2.8975,-2.1981 4.44616,-4.67097 5.14556,-7.90567 l 2.86003,0.88674 4.95821,-3.72179 z m -32.45945,-53.20403 21.51891,-16.22347 -5.9199,-7.85571 -11.87723,8.92978 -5.35787,-7.11885 9.30446,-7.0564 -5.8949,-7.8682 -9.32944,7.04391 -4.70843,-6.20714 11.27775,-8.51763 -5.70757,-7.54349 -20.9444,15.77388 27.63862,36.64332 z m -16.34838,12.31437 -10.77819,-14.27516 1.66107,-1.27391 c 8.86735,-6.66923 9.76657,-11.60247 3.40955,-20.05766 -6.45692,-8.51764 -12.51418,-8.1055 -20.34491,-2.21059 l -10.89059,8.21789 27.61364,36.65583 9.32943,-7.0564 z m -27.08909,20.43235 -27.61364,-36.66833 -9.69161,7.3062 27.61363,36.64333 9.69162,-7.2812 z m -15.29927,11.51504 -15.36173,-20.34492 -12.08955,9.10464 5.14555,6.8191 2.4229,-1.82342 2.74763,3.63435 c 1.63609,2.1981 1.26142,3.84668 -0.2373,4.98319 -1.4987,1.12403 -3.18474,1.02412 -4.8458,-1.16149 L 90.131555,366.62129 c -1.648577,-2.18562 -1.273896,-3.83419 0.224808,-4.95822 1.486214,-1.12403 3.184746,-1.0491 4.833324,1.13652 l 1.611108,2.14814 9.679125,-7.28121 c -2.23556,-2.95994 -3.77173,-4.67096 -5.38284,-5.70757 -5.145555,-3.3471 -11.252775,-1.76097 -16.460773,2.14815 -9.291973,7.01893 -8.779915,14.63735 1.636081,28.4629 10.878101,14.45001 16.098592,17.55982 25.702792,10.31609 2.88501,-2.17313 4.45864,-4.62101 5.17053,-7.88069 l 2.83505,0.88673 4.97071,-3.73427 z m -32.471941,-53.16656 21.518911,-16.23596 -5.93238,-7.84323 -11.864747,8.90481 -5.382852,-7.13134 9.329439,-7.04391 -5.932377,-7.84322 -9.304456,7.03142 -4.708429,-6.23212 11.290238,-8.50515 -5.682586,-7.54348 -20.969374,15.77387 27.638613,36.66831 z m -16.348377,12.28939 -10.778179,-14.27516 1.661061,-1.27391 c 8.867338,-6.68173 9.766561,-11.57749 3.37209,-20.05767 -6.419458,-8.51763 -12.501699,-8.11798 -20.332431,-2.19809 l -10.878101,8.18042 27.626125,36.66832 9.329435,-7.04391 z m -27.089085,20.44483 -27.626125,-36.65583 -9.679137,7.26871 27.613635,36.66833 9.691627,-7.28121 z m 6.869066,-82.87839 9.69162,-7.26871 -27.638614,-36.65583 -9.666647,7.29371 27.613641,36.63083 z M 53.887881,203.6621 c 2.885005,-2.14814 4.458642,-4.621 5.158038,-7.88068 l 2.860031,0.89923 4.945727,-3.73427 -15.34924,-20.36991 -12.102037,9.11713 5.158044,6.84409 2.410417,-1.82343 2.747622,3.63436 c 1.648577,2.18562 1.261413,3.8217 -0.224808,4.94572 -1.498704,1.13652 -3.184746,1.04909 -4.845807,-1.13651 L 32.044256,177.4098 c -1.661068,-2.19811 -1.286387,-3.84669 0.212317,-4.9832 1.486214,-1.11154 3.184746,-1.04909 4.833324,1.18648 l 1.623597,2.12316 9.666648,-7.29369 c -2.223079,-2.94746 -3.796724,-4.65848 -5.382852,-5.69509 -5.120574,-3.33461 -11.265265,-1.77346 -16.448283,2.13566 -9.304463,7.01894 -8.804895,14.64984 1.611108,28.4754 10.890584,14.45 16.111072,17.55982 25.727766,10.30358 m -9.017212,-51.6054 27.613634,36.65583 9.654157,-7.28121 -27.613634,-36.66831 -9.654157,7.29369 z m 25.602879,-38.5292 c 2.847535,-2.17312 4.433662,-4.64598 5.133056,-7.89318 l 2.860032,0.88673 4.945728,-3.72178 -15.361723,-20.369894 -12.077065,9.117118 5.133065,6.831596 2.422907,-1.810935 2.747628,3.621875 c 1.661061,2.1856 1.273897,3.84667 -0.224807,4.9707 -1.511194,1.12403 -3.197236,1.02412 -4.858305,-1.1615 L 48.592453,87.250209 c -1.661062,-2.18561 -1.261407,-3.821698 0.224807,-4.958217 1.498704,-1.12403 3.184745,-1.049089 4.833324,1.14901 l 1.611107,2.148138 9.679137,-7.293693 c -2.223079,-2.959945 -3.784233,-4.658477 -5.370361,-5.695083 -5.145555,-3.347103 -11.265266,-1.773465 -16.448283,2.135657 -9.316954,7.031423 -8.817386,14.649844 1.611108,28.475389 10.8781,14.43753 16.111079,17.54734 25.740256,10.31609 M 61.406382,61.909605 89.020016,98.565428 98.699153,91.271734 71.098009,54.615907 61.406382,61.909605 z m 27.451277,-20.682126 27.613641,36.655824 9.32943,-7.043915 -10.77819,-14.275164 1.66107,-1.24892 c 8.86734,-6.681729 9.76656,-11.614966 3.40955,-20.082649 -6.45692,-8.530128 -12.51419,-8.117983 -20.357404,-2.21059 l -10.878097,8.205414 z m 38.491731,70.251791 -9.32943,7.04392 -4.68346,-6.23212 11.26526,-8.50515 -5.68258,-7.555976 -20.944402,15.786366 27.613632,36.65582 21.53139,-16.211 -5.91988,-7.85571 -11.86474,8.94227 -5.38285,-7.14382 9.32944,-7.04392 -5.93238,-7.88068 z m 8.59257,0.66193 c 10.87811,14.4625 16.11108,17.55982 25.74026,10.31609 2.84755,-2.17313 4.42118,-4.65848 5.14556,-7.90568 l 2.84753,0.89922 4.95823,-3.73427 -15.37422,-20.357403 -12.08956,9.104623 5.14556,6.8441 2.4229,-1.82343 2.76012,3.63436 c 1.66106,2.18561 1.23643,3.83418 -0.22481,4.95821 -1.52368,1.12403 -3.20973,1.04911 -4.87079,-1.16149 L 139.80113,96.179991 c -1.66105,-2.185609 -1.27389,-3.834188 0.22481,-4.970708 1.49871,-1.124022 3.18474,-1.036599 4.84581,1.1615 l 1.61111,2.135656 9.66664,-7.28121 c -2.22307,-2.959945 -3.77173,-4.670967 -5.37035,-5.707566 -5.14556,-3.334619 -11.27775,-1.748492 -16.4358,2.135656 -9.32944,7.031423 -8.81739,14.662328 1.59861,28.487881 m 16.67311,-41.314301 27.61362,36.655831 9.69163,-7.26872 -27.61364,-36.668319 -9.69161,7.281208 z m 27.45127,-20.682129 27.61364,36.668314 9.32943,-7.031423 -10.77818,-14.300143 1.66107,-1.248921 c 8.87982,-6.681726 9.77905,-11.589987 3.38457,-20.070154 -6.43194,-8.530134 -12.48921,-8.105499 -20.33243,-2.210589 l -10.8781,8.192916 z m 25.65283,-19.320805 27.65111,36.643334 21.50642,-16.21099 -5.93238,-7.880692 -11.82728,8.942279 -5.40783,-7.143826 9.32944,-7.031424 -5.93237,-7.855712 -9.30446,7.018933 -4.70842,-6.232114 11.29023,-8.492664 -5.68259,-7.568462 -20.98187,15.811338 z m 47.78372,41.651512 -9.66665,7.293694 27.61363,36.643339 9.67914,-7.28121 -27.62612,-36.655823 z m 17.78462,-13.388433 27.61364,36.655823 9.32943,-7.043914 -10.77818,-14.275164 1.66107,-1.261407 c 8.86733,-6.681729 9.79153,-11.589986 3.40955,-20.070157 -6.43194,-8.530127 -12.51418,-8.105493 -20.34492,-2.198099 l -10.89059,8.192918 z m 25.65284,-19.34578 27.60114,36.655824 21.55638,-16.210994 -5.94487,-7.868198 -11.83977,8.929781 -5.37036,-7.131338 9.29197,-7.031421 -5.88241,-7.868202 -9.32944,7.018933 -4.70843,-6.219625 11.27776,-8.517637 -5.67011,-7.543481 -20.98186,15.786358 z m 47.7962,41.651505 -9.69163,7.293701 27.6511,36.66831 9.65415,-7.30618 -27.61362,-36.655831 z m 17.77213,-13.375942 27.61364,36.655823 9.32944,-7.031425 -10.77819,-14.300137 1.66107,-1.261414 c 8.86734,-6.681722 9.76656,-11.589987 3.37208,-20.070156 -6.41945,-8.530128 -12.51418,-8.105495 -20.30745,-2.1981 l -10.89059,8.205409 z m -5.69507,81.941693 -10.87811,8.21789 27.61364,36.64335 9.34194,-7.03143 -10.7782,-14.30014 1.68605,-1.24893 c 8.84236,-6.66923 9.74158,-11.60247 3.35959,-20.05767 -6.43194,-8.53013 -12.51418,-8.10548 -20.34491,-2.22307 m 0.17484,134.99584 9.31696,-7.01893 -10.7657,-14.28766 1.66106,-1.23643 c 8.89232,-6.7067 9.79154,-11.60248 3.39707,-20.08264 -6.41946,-8.53014 -12.51419,-8.118 -20.35741,-2.21059 l -10.86562,8.18042 27.61364,36.65583 z m -27.45127,20.68213 9.67914,-7.26873 -27.61364,-36.65581 -9.67914,7.26871 27.61364,36.65583 z m -44.29922,4.65847 c 10.89058,14.4625 16.13605,17.55983 25.72776,10.32857 2.87252,-2.17311 4.44616,-4.65847 5.18302,-7.90566 l 2.81008,0.88673 4.9707,-3.6968 -15.37421,-20.38239 -12.07706,9.09214 5.14555,6.85658 2.42291,-1.82343 2.73513,3.63436 c 1.66106,2.17312 1.26141,3.84668 -0.21231,4.95822 -1.49872,1.12402 -3.20973,1.04909 -4.84581,-1.14901 l -12.6141,-16.74803 c -1.66107,-2.18561 -1.27391,-3.8217 0.21231,-4.95821 1.4987,-1.12403 3.18475,-1.0491 4.83333,1.149 l 1.64857,2.12317 9.65415,-7.26872 c -2.22307,-2.95994 -3.78423,-4.65847 -5.39533,-5.70756 -5.10809,-3.33463 -11.25278,-1.76098 -16.42331,2.12316 -9.32944,7.05641 -8.81738,14.67481 1.59862,28.48788 m 6.20713,-53.61616 21.54389,-16.211 -5.94486,-7.84322 -11.83977,8.90481 -5.39534,-7.11885 9.34192,-7.04392 -5.94486,-7.85571 -9.32944,7.03143 -4.67095,-6.23211 11.26526,-8.50516 -5.69509,-7.55597 -20.94439,15.78636 27.61363,36.64334 z m -25.65283,19.37075 9.32943,-7.04391 -10.76569,-14.28766 1.64858,-1.27389 c 8.86734,-6.65675 9.76656,-11.5775 3.37208,-20.05767 -6.41945,-8.53013 -12.51418,-8.09301 -20.34491,-2.21058 l -10.85312,8.21789 27.61363,36.65582 z m -27.45127,20.65716 9.66664,-7.28122 -27.62612,-36.65581 -9.65416,7.29369 27.61364,36.64334 z m -44.32421,4.67095 c 10.8906,14.43753 16.12358,17.53485 25.74026,10.31609 2.88501,-2.17312 4.47114,-4.64598 5.14556,-7.90567 l 2.86003,0.89923 4.94572,-3.74676 -15.33674,-20.34492 -12.07707,9.10463 5.13307,6.84408 2.4229,-1.8484 2.72265,3.65933 c 1.66106,2.18562 1.2739,3.84669 -0.2248,4.97072 -1.49871,1.13652 -3.17227,1.01162 -4.83332,-1.17399 l -12.6266,-16.74803 c -1.66107,-2.18561 -1.24892,-3.83419 0.24978,-4.95821 1.48622,-1.12403 3.18475,-1.02412 4.80836,1.16149 l 1.62358,2.12317 9.69163,-7.28121 c -2.24805,-2.95994 -3.80921,-4.64599 -5.40782,-5.69508 -5.12058,-3.34711 -11.2278,-1.77347 -16.43581,2.13566 -9.30446,7.01893 -8.81738,14.63734 1.59862,28.48787 m 6.20713,-53.60368 21.5439,-16.23596 -5.91989,-7.86821 -11.86474,8.95477 -5.39536,-7.14383 9.34194,-7.04391 -5.93237,-7.86821 -9.34194,7.03144 -4.67095,-6.24461 11.26526,-8.48017 -5.69509,-7.55597 -20.94438,15.78636 27.61362,36.6683 z m -25.65283,19.34579 9.32944,-7.0564 -10.77818,-14.26268 1.66106,-1.28638 c 8.87983,-6.68173 9.77906,-11.5775 3.38457,-20.07016 -6.41945,-8.51764 -12.48919,-8.1055 -20.31993,-2.1981 l -10.89059,8.2179 27.61363,36.65582 z m -27.45128,20.68212 9.69163,-7.29369 -27.63861,-36.65583 -9.66664,7.28122 27.61362,36.6683 z m -44.29921,4.64599 c 10.90308,14.45001 16.12356,17.54734 25.72776,10.3036 2.87252,-2.17312 4.43368,-4.6335 5.17054,-7.90567 l 2.82255,0.89922 4.95823,-3.72178 -15.34924,-20.35741 -12.10205,9.11712 5.15805,6.81911 2.4229,-1.81094 2.72266,3.62187 c 1.66105,2.18562 1.28638,3.84669 -0.21233,4.97071 -1.4987,1.11154 -3.18475,1.0491 -4.8458,-1.14901 l -12.61411,-16.73554 c -1.63607,-2.19809 -1.24891,-3.85916 0.21231,-4.98319 1.5237,-1.12402 3.20974,-1.04909 4.8708,1.14901 l 1.61111,2.16063 9.65416,-7.2937 c -2.23557,-2.97243 -3.78423,-4.67096 -5.38285,-5.72005 -5.12058,-3.32213 -11.24028,-1.74849 -16.4358,2.16063 -9.329433,7.01893 -8.817381,14.63735 1.61111,28.47539 m 31.38538,-120.77063 c -5.13306,-3.33462 -11.24029,-1.76098 -16.4358,2.14814 -9.32943,7.03144 -8.80489,14.63736 1.61111,28.4629 10.8781,14.4625 16.12357,17.54734 25.74025,10.32858 2.88501,-2.17312 4.42118,-4.65847 5.14556,-7.90566 l 2.84754,0.89922 4.94572,-3.73428 -15.33674,-20.3574 -12.11454,9.09214 5.17054,6.85657 2.4229,-1.83591 2.71016,3.63435 c 1.66106,2.19811 1.28639,3.84669 -0.21232,4.9832 -1.48621,1.12403 -3.17225,1.02411 -4.83332,-1.16149 l -12.62659,-16.73553 c -1.66106,-2.18562 -1.2739,-3.84668 0.24978,-4.9832 1.46125,-1.13652 3.15978,-1.0366 4.82084,1.16149 l 1.6236,2.12317 9.65415,-7.26872 c -2.22307,-2.98492 -3.78422,-4.67097 -5.38284,-5.70757 m 11.54002,-17.98446 -9.66665,7.28121 27.61364,36.68081 9.65416,-7.29371 -27.60115,-36.66831 z m 28.63776,-21.58134 -10.87811,8.18042 27.63862,36.66832 9.30446,-7.03143 -10.7532,-14.28765 1.66106,-1.24892 c 8.86733,-6.69422 9.76655,-11.60248 3.38458,-20.08265 -6.43195,-8.53013 -12.51419,-8.1055 -20.35741,-2.19809 m 80.53041,74.46065 9.65415,-7.29371 -27.61362,-36.64333 -9.66665,7.28121 27.62612,36.65583 z m -40.21525,-16.27343 c 1.47374,-1.13653 3.18476,-1.03661 4.80834,1.14901 l 1.63609,2.14813 9.66665,-7.2812 c -2.23557,-2.97243 -3.78422,-4.69595 -5.39533,-5.70757 -5.10809,-3.34712 -11.2278,-1.77348 -16.42331,2.13565 -9.32944,7.01894 -8.81738,14.64984 1.59861,28.4629 10.87811,14.4625 16.11108,17.57231 25.71528,10.31609 2.88502,-2.16064 4.45865,-4.62101 5.15805,-7.88069 l 2.87251,0.91171 4.94573,-3.74677 -15.34923,-20.35739 -12.10205,9.10462 5.17054,6.8316 2.4229,-1.82343 2.71017,3.63436 c 1.66105,2.18561 1.28638,3.83419 -0.21233,4.95822 -1.48621,1.13651 -3.18475,1.04909 -4.84581,-1.13652 l -12.6141,-16.74802 c -1.67355,-2.18562 -1.28639,-3.84667 0.23729,-4.9707 m 50.89353,-49.25744 -10.86562,8.19291 27.62613,36.65584 9.31695,-7.04393 -10.79068,-14.27516 1.67355,-1.26141 c 8.86735,-6.68173 9.79155,-11.58999 3.38458,-20.07016 -6.40697,-8.53013 -12.4892,-8.10548 -20.34491,-2.19809 m 80.51792,74.44816 9.67913,-7.26871 -27.62612,-36.65584 -9.67914,7.26872 27.62613,36.65583 z m -40.22774,-16.24846 c 1.4987,-1.13652 3.19724,-1.04909 4.84581,1.13652 l 1.61111,2.13565 9.67913,-7.26872 c -2.22308,-2.97242 -3.78422,-4.67096 -5.38285,-5.72004 -5.14555,-3.32214 -11.26526,-1.7485 -16.4233,2.13565 -9.34193,7.0439 -8.82987,14.66232 1.59861,28.50037 10.87811,14.43751 16.11108,17.54733 25.72777,10.31608 2.86004,-2.18562 4.43367,-4.65848 5.14556,-7.91816 l 2.86003,0.89922 4.90825,-3.72179 -15.29927,-20.36989 -12.11454,9.10463 5.18303,6.84409 2.38544,-1.82342 2.73514,3.63435 c 1.67354,2.18562 1.28638,3.84668 -0.22481,4.97071 -1.49871,1.12403 -3.17227,1.04909 -4.82084,-1.1615 l -12.62658,-16.74802 c -1.66107,-2.18561 -1.27391,-3.8217 0.21231,-4.94573 m 16.56069,-90.17208 c 1.4987,-1.12402 3.19724,-1.03661 4.84581,1.1615 l 1.6111,2.14815 9.69163,-7.30619 c -2.23557,-2.94746 -3.78422,-4.64598 -5.39533,-5.695084 -5.13307,-3.347109 -11.26527,-1.760974 -16.42332,2.123164 -9.34192,7.04391 -8.84235,14.66233 1.59862,28.50038 10.87811,14.45001 16.11108,17.54733 25.71528,10.31608 2.87252,-2.17313 4.44616,-4.62101 5.15805,-7.89318 l 2.84754,0.89922 4.94572,-3.73426 -15.34923,-20.3824 -12.06458,9.10464 5.12057,6.86906 2.42291,-1.82342 2.76011,3.63436 c 1.66107,2.1856 1.23644,3.84667 -0.24977,4.97069 -1.49871,1.11155 -3.18476,1.03662 -4.82084,-1.16149 l -12.63907,-16.76052 c -1.64858,-2.19809 -1.26142,-3.83418 0.2248,-4.9707 m -26.70193,21.09427 11.29025,-8.50515 -5.69508,-7.56846 -20.9444,15.79885 27.61363,36.66831 21.5314,-16.22348 -5.9074,-7.86819 -11.90222,8.92978 -5.35786,-7.13134 9.34193,-7.03143 -5.94486,-7.86819 -9.31696,7.01893 -4.70843,-6.21963 z m -64.49427,-30.01156 c 1.48622,-1.124027 3.18476,-1.049095 4.84581,1.13652 l 1.58614,2.14814 9.69162,-7.281209 c -2.22308,-2.947448 -3.78422,-4.67096 -5.39533,-5.695077 -5.12058,-3.334618 -11.24029,-1.773464 -16.43581,2.135657 -9.31694,7.018933 -8.80488,14.649839 1.6236,28.500369 10.87811,14.42504 16.11108,17.54733 25.70279,10.3036 2.88501,-2.18562 4.45865,-4.64599 5.18303,-7.89319 l 2.82255,0.88673 4.97071,-3.72178 -15.36172,-20.38238 -12.08956,9.10464 5.14555,6.84408 2.42291,-1.82342 2.72265,3.62187 c 1.66106,2.21058 1.28638,3.87165 -0.21232,4.99567 -1.47372,1.12403 -3.18475,1.02413 -4.8458,-1.14901 l -12.60162,-16.773 c -1.64857,-2.1856 -1.2739,-3.84667 0.2248,-4.95821 m -26.7269,21.08178 11.29025,-8.51764 -5.6701,-7.55597 -20.95691,15.81133 27.60116,36.64334 21.5314,-16.21099 -5.93238,-7.85572 -11.86475,8.9298 -5.35786,-7.15632 9.31695,-7.01894 -5.90739,-7.86819 -9.34194,7.03142 -4.70843,-6.23212 z m -106.058354,25.47798 1.686044,-1.27389 c 8.86733,-6.66924 9.76655,-11.58999 3.37209,-20.05767 -6.419454,-8.54262 -12.514192,-8.13048 -20.344924,-2.1981 l -10.89059,8.19292 27.638622,36.6683 9.316942,-7.03142 -10.778184,-14.30014 z m 10.553374,92.13288 21.54389,-16.24845 -5.93238,-7.85572 -11.85225,8.92978 -5.39535,-7.11884 9.32945,-7.04391 -5.93237,-7.85572 -9.32945,7.03143 -4.670956,-6.2446 11.290246,-8.50514 -5.72007,-7.54348 -20.944389,15.78635 27.613629,36.6683 z m -27.089081,-1.97329 1.661062,-1.26142 c 8.854848,-6.69421 9.75407,-11.61495 3.359599,-20.09512 -6.419458,-8.50515 -12.514189,-8.1055 -20.30745,-2.19811 l -10.890591,8.20542 27.613634,36.66831 9.329437,-7.03142 -10.765691,-14.28766 z m 302.501091,-8.43021 -9.31695,7.03142 -4.72091,-6.2446 11.30273,-8.49267 -5.69508,-7.56845 -20.96938,15.81133 27.62613,36.66832 21.5189,-16.23598 -5.91988,-7.88068 -11.86475,8.96725 -5.35787,-7.1688 9.30446,-7.01895 -5.9074,-7.86819 z" /><path
     inkscape:connector-curvature="0"
     id="path3508"
     style="fill:#ffffff"
     d="m 150.73305,366.55339 -66.548457,0 0,-231.20793 -43.500393,0 0,-39.236873 c 29.857152,0.426346 49.481856,-11.950385 60.14064,-40.95483 l 49.90821,0 0,311.399633 z" /><path
     inkscape:connector-curvature="0"
     id="path3510"
     style="fill:#ffffff"
     d="m 297.88327,111.45974 c -14.08214,0 -17.48041,6.82163 -17.48041,36.26496 0,29.4308 3.39827,36.25243 17.48041,36.25243 14.08214,0 17.49295,-6.82163 17.49295,-36.25243 0,-29.44333 -3.41081,-36.26496 -17.49295,-36.26496 m 0,122.85194 c -15.34866,0 -19.19836,10.65879 -19.19836,39.67577 0,29.4308 3.8497,39.67577 19.19836,39.67577 15.34865,0 19.19836,-10.24497 19.19836,-39.67577 0,-29.01698 -3.84971,-39.67577 -19.19836,-39.67577 m -85.74682,43.51294 c 0,-30.70986 6.83417,-52.46632 32.00144,-71.66468 -20.90376,-20.90376 -28.57809,-39.24942 -28.57809,-67.40116 0,-49.055507 31.13621,-83.615058 82.32347,-83.615058 51.18726,0 82.32346,34.559551 82.32346,83.615058 0,28.15174 -7.67432,46.4974 -28.56555,67.40116 25.16728,19.19836 31.98891,40.95482 31.98891,71.66468 0,55.87713 -17.49296,93.84749 -85.74682,93.84749 -68.25386,0 -85.74682,-37.97036 -85.74682,-93.84749" /><path
     inkscape:connector-curvature="0"
     id="path3514"
     style="fill:#000000"
     d="m 410.06012,42.183886 -3.96256,0 0,-19.323751 -0.1254,0 -6.79654,19.323751 -3.22272,0 -6.47051,-19.323751 -0.11286,0 0,19.323751 -3.96256,0 0,-24.540293 6.29495,0 6.10686,18.245343 0.1254,0 5.95638,-18.245343 6.16956,0 0,24.540293 z m -27.48714,-24.540293 0,3.17256 -6.75892,0 0,21.367733 -3.96256,0 0,-21.367733 -6.74639,0 0,-3.17256 17.46787,0 z" /></g></svg>